/* XPM */
static char *_a94e29f0fea4812a9c72cceb4cfcc1befU0HNQrqXygvxsq[] = {
/* columns rows colors chars-per-pixel */
"75 75 142 2 ",
"   c #8FB457",
".  c #8FB558",
"X  c #91B657",
"o  c #94BA57",
"O  c #98BF57",
"+  c #93B658",
"@  c #96BA58",
"#  c #99BE59",
"$  c #97C057",
"%  c #9BC457",
"&  c #9EC957",
"*  c #9CC25A",
"=  c #9FC958",
"-  c #A1CD57",
";  c #A3C55A",
":  c #A8C75B",
">  c #A4CA59",
",  c #ABCC5B",
"<  c #B0CF5C",
"1  c #A6D556",
"2  c #A7D457",
"3  c #A5D656",
"4  c #A6D656",
"5  c #A7D656",
"6  c #A7D756",
"7  c #A5D556",
"8  c #A5D356",
"9  c #A8D257",
"0  c #A8D757",
"q  c #A9D757",
"w  c #A8D557",
"e  c #A6D856",
"r  c #A7D856",
"t  c #A7D856",
"y  c #A8D956",
"u  c #A9DA56",
"i  c #A9DB56",
"p  c #AADA56",
"a  c #A8DC55",
"s  c #A9DC55",
"d  c #AADE55",
"f  c #ABDE55",
"g  c #ABDF55",
"h  c #AADC56",
"j  c #ABDD56",
"k  c #ABDE56",
"l  c #ABDF56",
"z  c #ACDF55",
"x  c #ACDE56",
"c  c #ACDF56",
"v  c #AADB56",
"b  c #A7D158",
"n  c #A8D258",
"m  c #A8D358",
"M  c #A9D558",
"N  c #AAD558",
"B  c #ACD459",
"V  c #AEDA58",
"C  c #B0DE57",
"Z  c #B1D15B",
"A  c #B1D759",
"S  c #B1D65A",
"D  c #B3D75A",
"F  c #B4D35C",
"G  c #B5D35C",
"H  c #B4D25D",
"J  c #B7D65D",
"K  c #B4D45C",
"L  c #B8D75D",
"P  c #B8D75D",
"I  c #B4DB59",
"U  c #B2DD58",
"Y  c #B3DC59",
"T  c #B4DC5A",
"R  c #B7DF5A",
"E  c #B3DB5A",
"W  c #BBDF5B",
"Q  c #BADA5C",
"!  c #BADA5D",
"~  c #BCDE5C",
"^  c #BBDB5D",
"/  c #ABE155",
"(  c #ADE155",
")  c #AEE255",
"_  c #AEE355",
"`  c #ADE156",
"'  c #AFE455",
"]  c #AEE255",
"[  c #B3E257",
"{  c #B4E357",
"}  c #B0E754",
"|  c #B2E656",
" . c #B4E457",
".. c #B1E456",
"X. c #B3EA55",
"o. c #B4EA55",
"O. c #B9EA57",
"+. c #B5E159",
"@. c #B7E159",
"#. c #B6E258",
"$. c #B5E258",
"%. c #B8E259",
"&. c #B9E05A",
"*. c #BDE35B",
"=. c #BBE559",
"-. c #BBE35A",
";. c #BAE859",
":. c #BDE959",
">. c #9DC560",
",. c #A0C760",
"<. c #A1C860",
"1. c #A5CD63",
"2. c #A6CE64",
"3. c #A2CA61",
"4. c #A8D065",
"5. c #AAD366",
"6. c #C1DC5E",
"7. c #C0E05D",
"8. c #C2E15D",
"9. c #C2E45D",
"0. c #C3E45D",
"q. c #C2E75C",
"w. c #C3E75C",
"e. c #C6E65D",
"r. c #C4E45E",
"t. c #C3E45D",
"y. c #CAE45F",
"u. c #C0E85A",
"i. c #C3EB5A",
"p. c #C1EC5A",
"a. c #C4ED5B",
"s. c #C4EA5C",
"d. c #C8EC5C",
"f. c #C8EC5D",
"g. c #C9ED5D",
"h. c #C8EE5C",
"j. c #CAEC5D",
"k. c #D2EF5F",
"l. c #C5F25A",
"z. c #CAF25B",
"x. c #D2F05F",
"c. c #CFEA60",
/* pixels */
"@ @ @ @ @ @ ; * @ # # o * # @ # @ # > @ # y @ o o @ @ @ @ @ @ % >.@ # O o % * + @ # @ : % + 3 % + @ @ @ @ @ @ @ # >.# @ # @ @ >.# @ @ + % : + % 3 + o ",
"@ @ * * @ @ 2.* + + + # # + # + @ # e.I O g % : % @ @ @ >.@ o ,.1.# + + + @ @ # @ + + G p.% 8 8 % : @ @ @ * * @ # 4.* + + @ @ @ @ @ @ o ; a.0 % c $ : ",
"# @ # * @ @ @ + # Q 8 + @ # + & % + # $.& ' 3 B : + O @ * # @ @ +   , I o + @ @ % - @ + K 3 8 | : I + # @ # % @ @ o + % *.% @ @ @ @ - % + ; [ % o.- *.",
"+ @ @ # @ # t.3 + , f.- @ % a :., @ @ - ( % 8 8 o + @ @ O @ + Q -.O # y.%.# @ 8 $.~ @ @ $ _ 8 % r O + @ # @ @ @ : w.& + G a.= + & a w.; @ + y c $ 3 & ",
"= + - b + o , *.& O , p.% a 3 # @ + @ @ 3 8 & & @ > O o r @ @ # *.y % # *.r & _ % @ + @ @ = h % 8 o ; = + - & + @ K $.& # Z %.% _ - @ + + @ # y - - % ",
"f.b $ _ $ + @ + & ( + % 8 a @ % b Z # # @ @ + o # t.=.O a - + @ + # _ & # - a & @ = K % # @ @ +   o Z a.= - c @ + @ + r y + = r y + % B , # # o @ + @ ",
":  .3 - % - # @ O / b + y 8 + b y , # # + O W , + @ Y / - % - & @ + & ' # & c @ % _ B * * + + B W @ + , | 8 & $ - # + # _ = @ a = + a 1 : # # @ % W ; ",
"+ $ _ = + c # @ @ & y + y # % | $ # # @ # j.7.# @ @ @ r a + b - + # # y O & b + a 8 @ $ + @ Q c.; @ # + & _ # % a o # @ - 8 # a @ - _ # $ @ + ; k.Q @ ",
"# @ + # @ 8 # + @ @ @ @ 8 % % - @ 7.%.O r y @ @ @ @ @ # # @ - % + @ @ @ @ % - # b @ Z a.% = ..% + @ # @ @ # # # 8 @ @ # @ # # 8 @ - % # j.M O _ b @ @ ",
"@ o @ # @ @ # * @ @ + @ + + @ @ @ # *.8 3 % @ @ # @ @ @ @ @ @ @ % # @ @ @ @ + @ @ @ + K x - 8 + # @ @ @ @ @ @ @ @ # # @ @ + @ . @ @ O o ; *.- y @ @ @ ",
"O >.# + @ @ # # @ @ O o G V @ @ @ + # % $ # @ # @ @ * >.@ @ @ @ # @ @ # @ ; %.% @ @ @ o % % % @ @ # # # > @ @ @ @ # # @ @ # @ ~ b @ @ @ o O % $ @ @ @ ",
"@ % @ # # @ @ O O [ Q + ; f.0 + B % @ @ @ # * @ 3.# @ # O # @ @ @ O b r.# # ~ %.o - b o @ + @ * # * * @ # @ # @ @ @ # $ *.Z + , a.& # V O @ + + * % @ ",
"@ @ . Q *.+ @ - :.7.# @ + % - r 9.% + * # @ # @ @ @ @ + ; j.% + % ..f.; @ @ @ b 8 %., o # * O @ + # @ @ @ + y.B X @ r l.Q # # + % 8 c *.@ @ * # @ @ @ ",
"@ # + ; B 8 + - -.# + @ O + & _ @ @ @ * % + o # @ # # + @ Z b % # $.,   @ @ @ @ _ & o @ * >.@ o # @ @ @ @ + , 0 & + r J + + + @ + b y + @ # >.# @ @ @ ",
"@ # ~ - + a O - % # y W :   - - + # # @ + ; G + @ @ o Z U + - - # r + b C P + # r # O @ @ @ @ G % + # o ; *.% # a + 1 # % h &.% + 3 % @ O @ @ + , B + ",
"# # , c.*.=   8 8 [ 7.% # # O # +   B J . - B # % @ @ % y.j.y + $ a 8 u.: $ # # O + . # 7.# # V % % + @ # J j.%.% + u - -.P % # $ # # o   J , + B > # ",
"@ @ @ + G ;.& % | r @ + @ 3.@ + , - % _ & y # J ; + @ @ + ; :.3 # a | % @ + ,.% + ; B @ y y 3 & , K + # + + # W | % & X.8 o + # >.@ @ B % % [ - 3 # ~ ",
"% # @ @ + - - + % # @ O @ @ @ o , M 3 > % % 8 - + # % @ @ @ $ b O # % + @ @ @ @ @ ; B 8 b % % % u + @ * # # @ + 8 % + & + # # @ o o # K b 3 - % % 3 % ",
"# # * ,.# + + # @ @ @ @ @ # O O + @ - # + + $ % @ # # @ 3.# + + @ @ @ @ @ @ @ # @ @ X % & @ + @ % # @ * @ >.* o + + # # @ O + # # # @ + # - @ + + $ # ",
"+ + @ $ o # $ = _ # @ % @ $ b + # % + @ % % @ + U $ + @ # O @ % # _ - + O O @ 0 # @ % # + # % # . > b . + @ % o # # 8 a # + $ + = - + # % + @ % % @ @ ",
"O , $ B V $ a 3 % + + B B % a % # 3.o + b a + % ^ @ : > $ =.$ 3 r - + o % -.O a - @ * # + % [ % + E , + B # J b % a b #   + $.- & a @ # >.+ @ y 0 + & ",
"@ P *.; $.& c % + G # : %.$ y 8 . M Z + # _ % 3 % + ; j.; I b b 3 + , ; @ W - % _ + & Q # + 3 r = 3 + # ~ I : ` - / @ % K + , ..O _ & o I , . % [ % a ",
"o + B & 8 - 3 @ W B @ + -.V % | y [ ; * # - 0 3 % + + % 0 & 8 8 $ , ~ # + ; p.$ a a / B # * $ r - 1 @ @ @ B = 8 - b # 7., + @ w.- - _ a c ; * # b 8 3 ",
"% @ # _ % @ % y c # @ @ # y $ 8 - + o # # @ % | % # % @ t 0 @ # 3 C - @ @ # b b % 3 # + @ O @ O a y + * @ % _ % @ & a h + @ @ ; r # 3 = + + # @ @ - } ",
",.# @ @ o + # o + + # o + % = + # o @ @ @ @ @ & $ # 3.@ @ @ @ @ # + o @ # + o - # @ @ @ @ @ O + % & o 1.# @ @ @ # @ @ @ @ @ # + % - + + @ # # @ + @ - ",
"@ @ @ @ # + o # # O + o * @ + # o # # + # - @ @ @ @ @ @ @ @ @ @ @ # @ # o # * + @ @ @ @ @ @ & % @ + @ + @ @ @ @ @ @ @ @ # @ # * @ @ @ # @ @ @ $ - @ @ ",
"@ @ # # # # 5.>.O + # o # # O @ + % 9.& # a # # # @ @ @ # @ + > 4.# o + + # # # @ @ + ! C @ y & @ # # + @ # # @ % 5.>.@ + @ + % # @ @ + : 9.% % u + % ",
"@ @ * ,.+ # @ # # > $ + @ @ + O # O , :.$ ' 8 E > + # @ 1.# @ @ # + % ; @ @ # + @ # # % w.> 8 ' : Q + # @ * * @ @ + @ # : @ @ @ @ + $ # @ P [ % o.- 6.",
"@ @ @ @ @ # K $ + ~ :.% + # & ;., o + b 0 - b 8 % @ @ @ @ @ @ , - . , f.- @ @ % V Y @ + $ c - 3 8 & @ @ # @ @ @ ; B o # f.$.@ + % - -.% @ + a b b > 8 ",
"@ @ % - + # ~ u.$ + ~ :.# 1 / , % + @ % | - - > + @ @ @ - # o , f.b . : z.= % } M ; o @ # y c $ a @ # + @ % % + # u.%.o @ 7.$.$ h a , # + @ = | % 3 & ",
"*.% % h @ + # % 3 3 @ B & a % + # % # @ # % # @ # t.0 + z % @ X ; - _ % ; 3 e 8 + O % # # @ % # O o P -.@ 8 b + @ # ; a 8 @ V 8 h # + * % # @ % % + # ",
"Q %.= h % % # + # _ % + y a + b _ Q # * @   - % + : w.8 8 b # $ + + 3 3 . & ' # # / ~ : * @ + $ ; + # *._ = y % % @ + % a O # a b + 1 ..G # # + o - % ",
"+ 8 X.% @ h # @ @ 8 a + r % # _ %   @ @ # Q f.; + @ $ | 8 + b > @ @ % | # % b @ b r . + # + , f.P + @ + 0 _ # # y @ # @ u 1 @ u @ % _ # + @ o # 7.w.; ",
"# + = % + y # @ @ # % + y $ = y # ~ b + b p.; + O # @ $ & @ 8 - + @ @ % @ - b @ _ % , $.# $ ;.G + O O # @ - # % r @ @ @ # % # u @ 3 b % *.% @ V 9.# + ",
"+ # + @ # $ # # @ # # o # + # # @ , a.& y % + # @ @ @ + @ @ # # # @ @ @ @ @ o O # @ # w.y - 3 + O @ @ @ @ @ @ @ $ # @ @ @ o @ @ + $ # @ G p.% c o @ @ ",
"+ * # @ @ @ # % @ + X # : % + # @ + & - - # @ @ + @ % # @ O + @ >.@ @ + + % - o @ @ + % 8 % - + @ o + # * @ @ @ @ % # @ + X # , $ + # + @ - & - O @ @ ",
"# = # + @ O @ @ o > Z o Z a.- + & % + @ + # * @ ; # * * @ + # @ # + $ J # ; j.V @ % % + @ @ @ % @ * * @ >.@ @ @ # + @ + M , + ~ :.% @ = @ # @ @ % # @ ",
"@ o o 5., + @ % a f., @ + B u % w.% + # @ # # @ * # # + % P @ @ # 3 :.~ # + ; Y $ -.K o @ # @ # @ * % o # + G ; o # - U f.; @ + V 8 b w.@ + # + # # @ ",
"@ @   G p.$ + 8 h.;   + # + = ' : @ @ 3.>.+ X @ + @ # . # j.- # $ O.Q + + o o @ _ u # + * 3.@ o @ @ o # @   6...O + u j.% . + @ + b ' % @ @ 3.# o + @ ",
"@ O , O + a @ b -   & B % + - 1 + @ @ @ @ % - o # # + : &   8 & % y + $ - , + O a @ @ # + @ @ ; # @ # + % , o # a + 1 % @ = , % + 1 - X @ o # + % ; @ ",
"O @ *.c.b - @ 8 & b :.K ; o % % o + : ,   - W   @ # + , f.Q 8 # % 0 $ p.U , @ # = @ @ # Z @ o -.% + @ @ # f.r.> = + y $ U *.Z # + % % @ + , ;   B B   ",
"@ + # , r.x + - _ _ ; + @ 3.@ @ # o > =.% 3 O Z ; + # o ; Q :.% # a [ B + X ; * + # # # =.- - & ; G + # + # Z j.r + 3 ' ..* + # 3.+ @ % @ B U % b O P ",
"# # + . # x 1 @ 3 % + O # % # + Q V $ y - - & 0 @ # # @ + + b / # & 3 + O @ # # + , -.% & 8 - - u * @ # # @   % _ = # a # o # @ # @ # ~ b % y = - 8 B ",
"* # * * @ @ @ @ + o O @ o + + @ @ $ y % + @ & & + # * @ * # @ # O + + @ @ @ @ + @ @ @ 8 b @ @ # b + @ * @ * * @ # @ + + @ @ @ @ @ @ @ @ % h % @ + - $ ",
"@ @ * * @ @ + % 0 # @ @ + # - @ @ @ + @ @ @ @ @ - # @ @ ; @ @ @ @ 3 - @ @ + @ - # @ @ @ @ @ @ @ + % % @ + * * + @ + - 3 @ @ @ o % = @ @ @ + @ @ @ @ @ ",
"@ * + - - @ 8 b 3 + + b = % V + # 3.@ @ b 3 @ @ 7.# O @ # 0 @ - - a $ + % 9 @ t % o >.$ @ % y % + K K + % + 8 % % - 3 - + @ 3 # - 1 + * ; + # 0 - @ O ",
"+ ~ U , :.% _ - + ; + K %.$ _ - + % ; @ $ ( O b - + , p.% r.- 3 c @ # # * j.% 8 g + # : # @ y - % 3 @ # r.B G [ & | % @ ; + ~ V $ ' % + > * + - a @ 3 ",
"# # Q # 3 - 3 + , ~ $ + $.> & c -  .Z # # y 8 8 & + o K : & 0 0 $ # 6.: X > R O / - g *.# # - c & 8 o o ; E O 3 8 b . G G @ # %.% 3 1 8 ;., # # _ - y ",
"@ + % [ - # - 3 *.% + # , _ # a y % @ % @ @ - _ % + # + / y $ % 8 [ B + @ % -.& - _ & @ @ % @ % a 3 @ @ . & ' & # 8 y %.@ @ @ K 0 # ( 3 % @ % @ # b ' ",
"3.* # % # @ # & % O + O o % - # @ @ # @ @ @ # u % * 1.+ % % @ @ % & # @ @ o o b % % + # @ @ @ + 8 b + 1.# # & # + O = $ # @ # + - - # @ + O @ @ + $ a ",
"# # @ @ @ @ @ @ + @ @ @ # @ $ @ @ @ + + @ % @ @ @ # # + @ + # # + @ @ @ @ # # @ @ + # + + @ % # @ # @ # @ @ + # + + + @ # @ o % @ # @ @ @ + @ O $ @ # ",
"o @ @ @ @ @ 3.* @ O @ @ * # @ # @ % B O # u @ + + @ o # o + o >.3.@ @ # @ # % @ # @ @ , - + 3 = o + @ @ @ o O @ % 1.% + @ @ @ * # @ @ @ ; B o % 0 + o ",
"@ @ * ,.@ @ 3.* @ @ o @ @ @ @ @ o # 7.-.# _ & < - + # @ >.$ + * 3.@ O @ @ @ @ @ @ @ @ < z.= b r ; B o # o * * + # 3.* @ + @ @ @ @ @ @ + % j.V % [ % P ",
"@ @ # # @ # # @ @ 6.u + @ @ @ 1 = o @ U - a 3 M - + # + * # # # @   , *.# @ @ @ % M @ + > y - _ > B o # @ # # o # # . * c.= X @ @ # 0 % + # ` = ' - U ",
"o @ O $ @ # r.U @ * f.V @ - _ &.: o @ & | % 8 8 + X + # % # . G p.% @ ! p.$ $ a [ J o @ # / 1 % y #   + @ # % o ; f.1 + : z.8 @ b _ 6.% @ + 8 ' $ 3 & ",
"9 o % 3 + + ; E 3 % ; *.& h - + + + @ @ - 8 % % # K % @ y # + # P 0 - # ~ y - a @ + + @ @ % 1 % - @ , b . 8 = + o : V 8 $ : ;.% _ % + + + # @ 8 - % % ",
"w.V % [ % @ @ X ; ( @ O 3 z + & V Q * >.+ + + @ @ Q p.$ a b @ @ + @ / - + & ' % # 3 W ; * @ + + @ + , f.> - _ # @ + . 8 y + $ a y + - U G # % + + + # ",
"# c g % $ b @ @ @ g 5 + 5 & + t 1 # @ # @ % p., + @ 9 ' - # & & @ + & ' O % t @ % c % # # @ # U ~ @ + ; | 3 % $ 8 # O # _ - @ c $ @ a - # # # @ > w.; ",
"@ # y - @ c # @ @ $ b @ j $ - ( # : % + % c.G @ O @ + 8 y + b 8 + @ @ b # - 8 @ _ - * = @ @ &.c.# @ # + $ c $ % a + # + & - @ a @ b / # : # + > x.B + ",
"@ @ @ + @ - # @ @ @ @ @ - # % % @ ~ :.$ x 8 + # @ @ @ @ @ @ % % @ @ @ @ @ % % @ - @ , z.- - h # @ @ @ @ @ @ + O & @ # o @ + # - @ & $ # r.$.$ _ & + + ",
"@ # @ # @ o # % o @ @ @ + @ @ @ @ + E - 3 $ + o @ @ # @ @ O @ @ % @ @ @ @ @ @ @ @ # . > x - - + @ @ @ @ # @ # # + * # @ @ @ # + @ + # + # C & 3 @ @ @ ",
"@ 3.# @ @ o @ # + # % @ ^ &.# @ @ @ + % # # # # # @ 3.* @ + @ @ # @ @ ; @ ; w.& + # O + # # # # @ # # # 3.@ o + @ # # @ % # @ y.V O o O @ O # # # # @ ",
"@ @ @ ; ; X @ O & :.P X @ t.5 o -.% @ @ @ # * @ 3.# @ @ # ; @ @ # $ V r.# o F O.o u V + @ + @ * # * * @ @ @ ; # @ @ $ - a.,   ; w.- % $.@ @ @ @ * % @ ",
"# @   P w.o + - l.Q @ @ @ O - ( W # + * % @ @ @ @ @ # + ; x.% @ $ O.j.# o @ o ; r %.: + * >.@ @ @ @ @ @ # + y.Y + + y z.< + @ o $ - | P @ @ >.# + @ @ ",
"@ @ # # > 3 @ 8 V + @ # @ + & / + @ o * % @ # @ @ @ @ O O ; b % # [ * + O @ @ @ c $ + # # * @ # # @ @ O @ o % : b + t , + O # # + b 3 + O @ * # # @ # ",
"@ # w.B # 3 o - % % [ -.: + = = @ # # # . ; Q . + # + K %.% 8 & $ 3 + U [ P + # 3 # @ # % @ + ~ # X @ o ; f.b $ 0 + t O - ( ~ % X 8 % @ @ # # + B K   ",
"# @ ; y.a.> + 8 3 [ J o # * # # +   B W o 8 = : % + @ # ! j.U o $ c r *.* + ; # @ @ + # 9.% $ b ; : o @ o , y.p.% + r b =.Z o # % @ @ + + W B @ 8 % : ",
"@ @ @   , O.- $ _ 8 o @ @ * # + K b O / - r $ I ; @ # @ + # $.a # 3 ( O @ @ % * + ; E O 8 0 0 % , , o O # + + Z X.% & | & + o # ,.+ # P - $ a - r % J ",
"* # @ # o % % @ # @ # @ @ o @ @ - : r - # $ - & . # * o # @ @ - # @ # @ @ @ @ @ @ % : 8 3 $ % % r . @ >.@ # # + % % @ # + @ # @ + + # : - y - # % b % ",
"# @ * : o @ X # $ O @ @ @ O # @ o + $ # + o O # # # # # 3.# @ X # $ # @ @ @ @ # # + + # % + + @ # O # # @ * * @ + # % % # # + @ % % + + @ $ @ + + # O ",
"@ + + $ O # % - _ # @ % @ $ 3 @ # >.# # & % # @ $.% + + # % + % % | - + # % + y % @ * * @ % - #   B B   + + % # $ $ r a @ @ % @ = 8 + # % @ @ - % @ + ",
"@ J - B [ % ( 8 # @ + E Y $ ' % + * @ + - _ + & Z @ , I % u.% M a % + @ % p.% y b + * # + % _ % O B ; # W % W u % _ - @ + o *.M = / # # ; + @ 0 y + 8 ",
"@ , *.# x - u # @ ! # # ..% b 3 + I J + @ ( - 3 % + % c.* B b 3 - . G , + K 3 % _ @ 8 6.* + b a & 3 + @ G W % x - y + ; P @ : ..# a - # $., + % ..% a ",
"@ + : 0 8 % b % *., @ + Q [ $ [ / u % * # % 3 r % @ + # y - & - = B Q @ o ; :.$ 1 _ a - # * O 3 8 3 + o + B b - = 8 % 7.% @ + 7.1 % ' a 3 # * # - b h ",
"* # $ a % @ % u 0 @ @ # @ b % & % + @ @ O + % ' % # * @ 8 b @ @ b a = + # + & 8 % - + @ @ @ @ @ y 3 @ * @ % y % + = a 1 @ @ @ # 3 # - % + # + # @ = ' "
};
