/* XPM */
static char *result[] = {
/* columns rows colors chars-per-pixel */
"75 75 47 1 ",
"  c #576739",
". c #5A6A39",
"X c #616F3A",
"o c #66733B",
"O c #69763B",
"+ c #667F3C",
"@ c #6D793C",
"# c #66803C",
"$ c #69823C",
"% c #708F3B",
"& c #7B993C",
"* c #6C8640",
"= c #6E8942",
"- c #718C44",
"; c #849E3E",
": c #95BB57",
"> c #96BB58",
", c #99BE59",
"< c #9CC457",
"1 c #9EC957",
"2 c #9BC25A",
"3 c #9FC858",
"4 c #A1CD57",
"5 c #A2C55A",
"6 c #A4CA59",
"7 c #AACC5B",
"8 c #A5D356",
"9 c #A9D657",
"0 c #A7D856",
"q c #AADB56",
"w c #A6D158",
"e c #ACD359",
"r c #AED958",
"t c #B1DF57",
"y c #B2D45B",
"u c #B9D75D",
"i c #B3DB5A",
"p c #BADD5C",
"a c #ADE255",
"s c #B2E257",
"d c #B6E159",
"f c #BCE25B",
"g c #BCE859",
"h c #A0C760",
"j c #A3CA62",
"k c #C0DF5E",
"l c #C2E35D",
/* pixels */
" :>>>>>h,>>>>2>>>>55:8<::>>:>>>,h>>>>2,>>>,6,,0,:>>>>>>>h,>>>>h>>>>25><8>>+",
" :>22>2j,>>>>>>>>>7f<8455:>>2,>hj>>>>>>>>>,pi<016,>>,2>,hh>>>>>>>>>5f91q27+",
" >>,2>:,>2y3>>>24>>e98r87>>>5,,,>>7y2:>><1>2y4q8e5>:>2::,,>y6>>>>42:6r4a8y$",
" >>>>:5p5,yf<>8rp>><q810<:>>>>>7t2,kr228i7>>8q484>>>:,:,u8,6lw>2qp<:>9q183#",
"X5>14>>yr1<yr3q1,>>>58<4:5<:8<:,p81<p8402>:>:8811,6<>8,:6p1<7d1q82>::<0142+",
"Of8102::288:808>1e52<,>>>yf484,:>2q<280<28e,2::,>,py<q1,>>1q2180>167>,,,>>#",
" 6r81<1,:<a<<q22q72,:>ey>>er81<1>>80<18>506,>>2y7:5rq4<12:>q8>84>0e6,>>5y2+",
" :1q<<8,::4128:8922>>il5>>>49>44>>28>812q422:2lp,>:,88,8<>><8>8<3q2<>>7ly2+",
" :>,>,4>>>>>24>4<7p44r<>>>>,2><<>>>>><<,4>pi28q,>>>>>>>42:::>>421<2fe<r8>>$",
" :>>>>>,,:>>>>>>:,7r44>>>>>,:>>>,>>>::,:>>,i8w2:>>>>>>>>>,::>>>:>>>5i48>>,+",
" ,h,>>>,,:>>2u5>,>>2<2>>>>,2>>>>>:>,:7y<::>>22,,>>>22,>>>2>2,,ee>>>><,<,>,%",
" >,>,,>>23f6>ed146>>:>2>h2>,,2>>>2ep2,pi,95>>>,,,h,,,,2:>><yy>6f82r>>>:,,2-",
" :>>ue>>8gy>>>48t7,,,>>,>>>>,k5>2af7:>,88f5>2,>>>>>>>7p,:1gp2>>58ri,>2>>>,*",
" :>>7e4>9y,>,>>94,>,h>,,>>>>,ee<2t6,>>><q<>>22>>>>>>>5e6>1i2>>>>40,>>h,>>,+",
" :,p6<8>8<5qy,>8,>>,>>y,>>>7y<44,8,8r7>28::>>>2y>>>>ye,8<4429y5>43>>,>>75>+",
" :,7li1>88fe2,,2>>,u2,e,,>>,plr<288f6,,,,,:5y>4w,,>>5kf8:48qp5,,>>:>y6,w52+",
" :>>,ur<4a4:>22>262888177>>>>5i820r<>>2,>532a18<y5>>>27s13a82:>3,>624q183y#",
".,,>>,4<,1,:>>>>5e481<18,>2>>>24<21>>>,>>6w88<<15>,,>>>31><>>>>,:,7w84<<8<#",
" ,>22:>>,>::>>>>>>2<::,<>>,>h,>>:>>>>>>,>>:12::22>,,>h>>>>2:>:>>,>:23>>>22#",
" >>>2,,288>,2:4<>,>>><::w5>>,2>,<03>>,>8,>,::2<>>e,>>>2>210<:2>24::2>><2><&",
" >7<ew3042:,i388>h,><q<2e527<i<8812:3t<q<>h>>102<y,565r1085>:ee30<>2>>88>w-",
" >yy6r80,57>e81q22y2>8814>2p7e888>7<2y449,6e>2q18<>6f6y4q5,7,5r<042e6><q38$",
" >,e18182p5>2f10qqw22<881>>2e184<6y2>7s1qqr622188<>>6w848<ee,>ir1q0r52,880#",
" 2>10<>10e>>,41<82>:>><08>2>882,8q6>>,81142>>>>1a<,,,84><8r2>>28283,>>>,8r#",
" 22>>>>>>>>>,:32:>>>>>><<>22>>>>>,>>>>,3>>:>>>>>3222>>>>:>>>>>>2<>>>>>::,4$",
" :>>>>>,>>>>,2:,:>>>>1,:>>>>>>>>>>>>>,,>>>>,>:1>>>>>,>>>>>>>>>2>>>>>>><1>>+",
" :>>,,2j2>>>>>::>>yr<81,,>>>,>>hj,>>>,,>>>,p6<8<,>>>:>:>jj>>>>>>:>:5p518,2+",
" :,22,,,,,6>>>:,2,<p88q7e>>>h,>>,>5<>>>>,,>7f4q8y5>>>j::,,>5<>>>><,,yt1a4u$",
" :>>>>27,2py2><8y>>2q888<>>>>>>66>7f4,><ee::89888<::,,:,71,yf<>,4t5>>q8884#",
" >><<>2pr,5fe<q86>>,80<8>,>>12>5fw,7f44r85>><q445,>:,1:,ef<,yf<8q7,>>1q182#",
"@d238>>2588<088,<<2,><,2>yy,81::510<6801,22,>><>,2pw<8,:>5882e802>22>,<>2>#",
".ys88<2>>30><q12qy6,>><5>5pq882<>>88>4q21ry22:,52>7d881<,,201>08>8re22>,62+",
" ,8q<<8,>>01<8,4q,:,>7l7>>,q8,44>>3q281>84>>>>yl6>><r8>8<:>80>8<<q<,>>5pp2+",
" >,<228>>><2<8,8<6r2<iy,>>>21,14>>><>11<q2ye>8d5>>>><<>82:>><>8218<i4,ei2,+",
" :>>::,,>>>>:>>,>2pr4w>>>>>>::,,>>>>>,>>,>6f481:>>>>>>>2>>>>>>2:>,>yi49<>,+",
" >2>>>>,2>>>,62>>>2133>>>>,2>:>>2>>>><32>>>3412,>>>2>>>>>2>>:>6<>>>>4<4:>,+",
" :2>:>>>>2e5,pt22<,:>>,>2,,h,>>:>><y,5lw>12:>>>2>2>h,>>>>>,67>ef1>1>>>>,,,=",
" :>>y5>>4tp2>2e4ry:,,>,,,,>>,y2:28fy,>5r3f5:>>>,,2,>>5y>><rf7>,e8wf2>>>>,,=",
" :>>yi<>rp5:>>20q,:,h>>>>>>>2p82<sy,>>><qw,>h2,:>>>>:5f3>1g7>>>>4q5>>j>>>>+",
" :272<8>8<,46>>e2>>>,>5>>>>5521128,<45><8>>>,>25>>>>55,w246,<7,>44>>>>>52,#",
" :,ule3>81ti7>><>:>7,,i<>>>5lp8<<8<fe7>,<>>57:<y>>>>ely4,11wde5>2<>>72>e6>#",
" :>27l8>8qr2><2>>2<i44577>>>5yf3<qqe,>22>,>5t16<75>>>7pt<1aq6>>h>>,,er<8<y$",
" >>>><q328,:>,,>5i4484<9,>,:>,6e218:>>,>>7r381817>,,>>288<11>>>,>,y818<4w6#",
" 2,,2>2>>>>>>>>>>,44>>>4>>2,,,>>:>>:>>>,>>281>><<>,,>2>>,:,:>>>>>>,38<>,32+",
" >:22,>>44,:::1<>>>>,,::<2::2,>>>8<>>>>4>>>>>>,:>1>>>2,>><4,>>><1>>>>:>>>2%",
" >,242<405:,8281>22:<0<:y6,,,82418<><6>q2>j,>48>2u222<62448>>53<8>22>281>6;",
" >ueyt1q5,5,u81q,25,:84<w,5p6p88q<,,5p188,<5><0<85>7p6f3q8>5,7s<01252,10<e=",
" >2y<048,77><s388ei5,4q44>>7e38812u5:eq<q4re,2888<>,e5888,7u,,t4888i6><q19$",
" >>3r3210t>>,y81q4<>,>1q8>>>88<<8re>:6r1801>>>21q<,:2q8<18t5>>7r<q8<:2><8q$",
" h2><>:212>>>,1<,>>>>>>41>h,,2>><<,>>><122>>>::28<22><<:><<>>>>312,:>>>><8$",
" >>>>>>>>>>>>>2,>>>>>2>>>>,>>>>>>:>>>,,>::>:>><:>>,,>>>>>:>>>>>>,>>>:>>>>2#",
" >>>>>,j,>>>>2::>>76>8<>>>>>>>>hh>>>>,,:>:>e<282>>>>>>>>2h>>>>2>>>>56218>>#",
" >>22>,h2>2>>>>>>>7g48857>>>22>2h,,,>>>:>>,yd1q175>>>h>>h2,,>>>>>>>2pr1q<y$",
" >>>,>,2>2p6>>>3w>>6q8q86>>>2,>2>:7i<>>244>,e8q8e<>>,,>>,,,yr>>>2w<><r8q8e$",
" >>22>5fw>7f4>8ry>><q818>>>>2::ef3,ud<<qy7>>1a184>>>>2>,py22fr21qd2:>8038<#",
"ow>11>>7e8<er8q<>>>><8<1>e5>82:>e84<y8882>>>>14<<27<28>><yw45s1q5>>::28332#",
"ofq102>>>88>1q428e62>>2>>7g488>:>,01280<<8y22>>>>,ud1q5>,><q<<80>4r722>>,,#",
" 5q0<<8>:2q3<02<r5,,>2yy>>6r8<54>>1r218>405,,>5f6:28q1282>,88,8<>042,,,ep2+",
" :<8<28,:>3<<8:882<,,uf2>>>18<44>>>4<132q153>5ly,>>>88>8<>>24>8<4r26,:wl7,#",
" ::,,>3>>>>>21:1,6l84r2:>>>:::<2>>>>:<<23>yf<98>>>>:::><>>>>>:<<<<,py1q3>>#",
" :::>>>,,>>>:>>>:>6e43:>>>>>>>>>2,>::>,>>>,e8w,>>>>,>>>>>2>:>>,,::>2r1w>>,+",
" :h,::>,,>222pw>,2>,,,>>,,25>>>>,>,5:6p3>>>>>,,,>,>h2>>>>,>2<>yy2:,:2,,>,,*",
" >,>5,:,<4f5>7d14e>>>>2>h2>>,5>>><ep2,yr<r2>>>,2>h>>>,5>>21dy:<p81y>>>>2,2=",
" :>>pe,,rl7>>>18i6:,h>>>>>>>,l4><df5>>>40y5>22>>>>>>>7p<>3fp,:,28rr>:h,>>>+",
" :,,544>862,2:>e3>>>2>2>>>>>,74<<e5,>>>2q2>>,,,,>>>>,,74,1q,,,,>58>>>2,,,,#",
" :,pe59>8<8ri>>42>>2>>y2>>>7f644<8<9iy>24>>,,>5y>>>>ui58<14<ri5>13>>2>>76>#",
" :>6kf4>00i6,,2,>:2i3<w<5>>,yli<>qqi<,,,>>>5t21152>>5pl9,10ry<,22:::ye2836#",
" >>>>et<1r1>>,2,5y<8883w5>>>:2y9<8q2:>2,>6e<0881e,>>:>5t8<q8>>,2,,e5<q445e#",
" 2,>>,<2>2:>:::,,68w22<8>,2>,>>3><,:>>>>>5588,213>,2:,>2<,<>>>>>>>6481><8<+",
" >>22>:><<:>>,>>>:,,::::>,,>5,>>,<>,>>><>>>2>>:2>2>>>5>>:><:>>>>,>>><,::22#",
" >,:<>,<88>:<>8<>,,>212:e6>>,<>2<q1>2<>8,>2,>31>2r,>:<2><18<><><w>,2>>1<:<-",
" >y4ye4q4,><p488>22,<0<<e2<y3i4881>>5t<q4>2,>30>4e>7e6i5q8<,:yr1q<22>>882e;",
" >7u5q48,67,79<q24i2:8q14>,ue6881>e6,e83028y,>q48<>5f6e40<,y,5t<84<y7:<q10*",
" >,488<85p2><f48a06,22884>>,w8843eu>>7s10qr222<88<>><8838<i7>>yr3aq8222180#",
" 2><8<>398>>>54<4,>>::>0w>2>8w>>803:>>4513>>>>,<r<>,281>2892:>>811<>>>>:8q#"
};
