/* XPM */
static char *_74ebb09b6a840f5b07601376978c307j7s8PfVRCluNQHz8[] = {
/* columns rows colors chars-per-pixel */
"75 75 145 2 ",
"   c #51544C",
".  c #4F4958",
"X  c #524E59",
"o  c #565654",
"O  c #5A5D55",
"+  c #57555D",
"@  c #59565E",
"#  c #5B5A5E",
"$  c #5C674E",
"%  c #5E684E",
"&  c #5D6550",
"*  c #5F6358",
"=  c #626D50",
"-  c #63655E",
";  c #666C5C",
":  c #686E5D",
">  c #677451",
",  c #6A7557",
"<  c #6C7B54",
"1  c #6C745D",
"2  c #70735D",
"3  c #5A5663",
"4  c #5E5C63",
"5  c #605E65",
"6  c #636264",
"7  c #66646B",
"8  c #68666A",
"9  c #6E6E6E",
"0  c #6D7163",
"q  c #6F706F",
"w  c #717863",
"e  c #70706F",
"r  c #6D6B71",
"t  c #706F70",
"y  c #727272",
"u  c #7A7C77",
"i  c #7C7C7C",
"p  c #758D4E",
"a  c #76934C",
"s  c #7D994D",
"d  c #6F8152",
"f  c #728552",
"g  c #758A52",
"h  c #7A8E54",
"j  c #75835E",
"k  c #7A8E59",
"l  c #7B9352",
"z  c #7E9A52",
"x  c #7D9359",
"c  c #768262",
"v  c #798761",
"b  c #809D4E",
"n  c #819D52",
"m  c #8B9F53",
"M  c #82A24D",
"N  c #84A252",
"B  c #8AA654",
"V  c #8BAB54",
"C  c #8CAA58",
"Z  c #95A654",
"A  c #93AC55",
"S  c #9BAE56",
"D  c #8EB456",
"F  c #8FB358",
"G  c #91B657",
"H  c #94BA57",
"J  c #98BF57",
"K  c #93B658",
"L  c #95BA58",
"P  c #99BE59",
"I  c #A6B656",
"U  c #80807F",
"Y  c #97C157",
"T  c #9BC457",
"R  c #9ECA57",
"E  c #9CC25A",
"W  c #9FC958",
"Q  c #A0C651",
"!  c #A1CD57",
"~  c #A3C55A",
"^  c #A9C75B",
"/  c #A3CB59",
"(  c #ABCC5B",
")  c #B1CF5C",
"_  c #A5D356",
"`  c #A9D557",
"'  c #A7D856",
"]  c #AADC56",
"[  c #A5D258",
"{  c #ABD359",
"}  c #ADDA58",
"|  c #B1DF57",
" . c #B3D45C",
".. c #B9D65D",
"X. c #B3DC5A",
"o. c #BCDB5D",
"O. c #ADE255",
"+. c #ADE058",
"@. c #B2E556",
"#. c #B2EA56",
"$. c #B5E258",
"%. c #BCE35A",
"&. c #BDE959",
"*. c #BFF057",
"=. c #A0C760",
"-. c #A3CA61",
";. c #A6D061",
":. c #C1DD5F",
">. c #C3E45D",
",. c #C8E55E",
"<. c #C4EB5C",
"1. c #CAEC5D",
"2. c #D0ED5F",
"3. c #C4F15A",
"4. c #C8F05C",
"5. c #D0F05E",
"6. c #CEE860",
"7. c #D1EC60",
"8. c #D4F160",
"9. c #7D7B80",
"0. c #848484",
"q. c #878886",
"w. c #888886",
"e. c #88868C",
"r. c #8B8B8B",
"t. c #92928F",
"y. c #8C8991",
"u. c #908F91",
"i. c #949494",
"p. c #989997",
"a. c #969599",
"s. c #9E9E9E",
"d. c #9FA09E",
"f. c #A0A09E",
"g. c #A2A2A2",
"h. c #A7A8A7",
"j. c #A8A7A8",
"k. c #ABABAB",
"l. c #B6B6B6",
"z. c #B8B8B7",
"x. c #B8B7B8",
"c. c #B9B9B9",
"v. c #BFC0BF",
"b. c #C1C2BF",
"n. c #C3C3C2",
/* pixels */
"L L L ~ / G ~ 1.` H L L Y $.~ H K ' _ ' ' ! R L L L L L L P / H L ,.@.K L L T } [ K L ! ' ! ' ! _ H J L H H L L ^ J K :.&.J H H L ` } K L T ] ! ] R ` ",
"T J H ( 1.! D ~ 1.` H ' O.o.E H L W O.! / ' K L L L E J H ~ 1.} L I 1.} L R O.X.( K L E O.' Y ] H G K L E Y L P >.$.J K >.%.J T O.|  .H L J ] ] E ] Y ",
"+.J L G ( ` ' Y ^ $.R O.E D G H L K R ! E T L  .! G ' / K G ~  .' R T %.R ] _ K K L L K Y _ E ~ H  .{ H ! ' K H P  ._ _ L %._ ' ' K K K L L J ` T W L ",
"] ' L L G G ' ' G J ] ' G _ | ..E E H K H L K { 4.R _ ] J L L K R +.K Y ' +.K T ] o.~ E H K H L H ~ 1.` T @.T L J K Y O.J H ! O.L E ' %.~ E L K K L L ",
"! J R ! L L E @./ L ] J L ] ! J L L L ~ >. .K L ! @.` Y T ` L L L O.' K ] R K ' ' J L J L J %.o.K G E @.` Y J ` J L K ` ] K _ _ K _ ' E J J L J | 6.E ",
"' H ! ' K L L / R J ] K _ O.P ~ J K W 1.o.L L L G ~ ] J E ] L L L Y _ K ] E T O.E ~ E H L >.6.J L J K E ] R L ] J L J J ' L _ / L @.R ~ T K L X.6.E K ",
"L L T R H L L L L L ! L / E J ,.&.J ] _ K L L L J L L L Y / H L H L L L / J T R K o.<.Y ' ' L L L L L L H J L ! L L L L L L T T J ! K ( 4.( R O.Y K Y ",
"L L L H E J L L L L K H H L L L $.R ' E L L L L H H L L L H E J L L L L K L L L L H  .' _ / K L L L L J L L L H P E H L L L L H L L L K { } / [ K L L ",
"L L L L J L L L J J >.` L L L L L E Y J L L J L E -.H H L L L J L H J H o.X.J L L J H Y J J J L J L P -.H H L L P P K L E F  .&.Y L L L K Y J J J L L ",
"J E L L L Y R <.( K ( <.R L @.E L K H L =.L -.E L J L E L L L Y E <...G P <.} K | ~ K K L L =.K =.=.L J L E E K L J Y | 6.F L o.@.K ` { L L L L =.J J ",
"E 7.W K L @.4. .K L K T _ ] %.L H E J K L L L L L L K 6.{ L H _ <.o.H J L Y ! ' >.~ H E E L J L L L L L D :.o.H K ! &.6.E L L L _ _ &.^ G P E L L L L ",
"H  .` T L }  .K L K L L _ } L L L =.E H L L L L L L K ( ` R H ] o.K K K L L T O.J K L E E H L L L L L L K / { _ L ! %.J K K K L J @.T K L J =.L K L L ",
"} L R ' L ' L T ] o.E K _ W L L L L K ~ ..K L L K ( %.E T O.H Y D / O.o.~ G R ' H L L L L L ..J L L L ~ >.R G ] H ! R H ' X. .K E ' H L L L H K ..~ G ",
",.,.' L L ] R <. .E J L L J K G  .X.G W } J E K J E >...Y V z 6 1 Q ( _ E E L E K D ~ o.H E } E P L L L  .7.&.T K _ _ ' <.T E J J E L K J >.J L } E P ",
"L ~ <.` J ' #.! L K E -.H L ( T T O.R ' H .. .L B n n 0 7 6 y c.g.6 w s n E E L ~ W L O.! ' Y (  .K L L L L o.$.Y T @.] J L K -.E G E ( L } ' _ ! T :.",
"H G E ' Y L ! L L J L L L L ..' ! _ T W ] T l s w 8 9 k.v.c.c.c.x.v.d.8 r j z V o.$._ _ T / R ' L L E L H H L _ _ L / E K L L L L H ^ X.! _ W / T ] J ",
"-.J L K L L K L L L L L L L K L [ E L C s v r 8 j.v.c.c.x.c.x.c.c.z.c.c.n.a.7 j a g / [ K G J T L L E L E =.L L L L K L L L L L L L L K W ! L L L T J ",
"E L L J L ' ` L L L L W ! K L P K L G c r a.n.c.c.l.c.c.x.x.c.x.x.c.c.z.x.c.n.i.r y f h J / L G ( R K K L E K L L W O.Y L L L L ' L L J L K L J L L J ",
"J @.L [ _ ' E K L @.T ! ' L J -.J D < 0.n.c.c.c.l.x.c.x.x.x.x.c.x.x.x.x.x.c.l.c.v.n.r.y h M E H  . .K / H ` [ L ' [ _ H G ( } L ] T H =.P K T +.T K ^ ",
"~ o.` ! O.L J ^ K o.] Y @.T K / { h 4 i.h.k.k.x.v.c.x.x.x.x.c.x.x.c.x.x.c.x.c.l.l.l.c.n.y.i h T ` K J >.X.( &.T O.! F ^ J ~ &.T ` ' G E { P K ` ' E ] ",
"! T ` _ W K o.( H L &.T _ ' _ #. .n # i.g.f.s.h.k.k.x.c.c.x.x.x.c.z.z.x.z.z.l.c.c.c.c.s.p.i.o / ' K H J ..Y ' ! } F ( :.Y F X.| Y O._ O.o.P E E O.W ' ",
"] ] E P _ +.$.K L L  .] L +._ T N , i s.a.a.f.s.s.s.j.k.k.x.c.x.c.z.z.c.v.c.n.d.r.y.r.y 8 8 - l ' K L K R O.! L R ' &.T K L ~ @.T [ ] R L L J K T ' O.",
"E T H L E E J L L L H ! ! L K E n 3 i.h.u.r.g.s.s.s.s.d.s.j.j.k.c.c.v.h.w.r.r.u 8 8 9 9 q t r - h H -.E L T J L L T E L L J K L ' L L L L J J L L T ' ",
"H H H H H L L L L L E L L L L Y z # i.i.u.s.f.f.g.s.s.s.s.d.s.g.d.0.q.i 6 9 8 q y q y 9 q q q 8 O E L L L L L L H L L L L L P L L L L L K L L L E H J ",
"H L L E -.E L L L Y E L L L K ( A @ i.s.a.g.f.g.d.s.g.s.s.g.s.g.i.8 8 9 q q q 9 q r q q r e 9 9 6 d J L H L L L -.E L L L L E E H L L L ( ! K _ / L H ",
"^ L L E -.L H K L L L L L K E C 2 0.s.s.g.d.f.s.s.s.g.s.s.g.s.g.p.i q q q q r q q q q q e e e e e 5 d J E =.L J -.E L L L L K L H H L L  .1.R _ ] T  .",
"E P L J H G ~ >.W L L L L ` / n + i.g.s.d.d.d.d.g.s.s.s.s.s.g.s.s.i r q 9 e e q q q q q 9 9 q e e y 4 d E P H J J K K o.} K L L H / _ K K ( ' R #.R X.",
"L L K  .<.W K  .<.W L ! O.>./ N # r.g.i.u.g.d.d.s.s.s.g.s.d.d.g.p.0.i q 9 9 q q r q q r e 9 r e 9 9 y 5 f T K J 6.} K E 1.| L E ' $.o.H J J O.' E ' E ",
"] Y L L ..} R Y  .&.T #.R D G z O r.g.i.9.i.g.s.s.s.r.a.d.d.f.f.i.0.i r y 9 9 9 q q q q q e q 9 9 e y 5 f [ L H ~ %._ T ~ <._ _ ' J K G L L T ' Y _ J ",
"+._ K K L L ] ' F R ] R N * # O 6 e.t.u.0.q.i.g.s.s.r.e.s.d.g.a.q.0.q.i 9 9 9 y q q q q 9 e r q q 9 r y 6 f G G E H T @.L L _ +.E J _  .~ E L L H G L ",
"! W T W L L T O.! V T ; 6 s.f.f.g.h.p.r.i.g.g.g.j.g.d.s.d.d.s.a.0.0.q.i y 9 9 9 q 9 e e q 9 9 9 9 y e 9 y y * x N H L ' ' K _ ' G R +.( E P L L [ o.L ",
"' K _ ` K L K ] J - # p.h.l.x.c.c.c.c.x.c.z.c.c.x.x.j.s.s.d.g.s.0.0.0.0.u 9 9 e 9 q q r 9 e 9 y 9 8 y u a.c.c.r.# x N E @.G _ R H O._ L L L H  .8.( L ",
"Y L R ! K L Y V 0 a.j.l.c.c.c.l.x.x.x.x.c.c.c.l.c.x.c.j.s.s.s.i.q.0.0.0.9.y r q e 9 q q q q e 8 e U i.c.x.c.c.c.v.0.6 x s L ' T L ' K  .<.T T @./ D L ",
"K L L L P E V ; a.c.c.l.c.l.c.c.x.x.x.x.l.l.c.c.z.c.z.x.j.h.s.0.i U 0.0.q.i 9 9 9 q q q t q q 0.i.c.c.c.x.x.z.x.x.c.v.i 8 h z Y E K L K o.@./ ' G J L ",
"L L L L =.C ; a.z.c.c.c.c.l.l.c.c.z.c.z.c.c.l.c.x.c.c.z.z.l.i.0.y y 0.0.q.u 9 9 q 9 q y 8 8 r.c.c.z.c.c.x.x.z.c.c.z.z.v.c.9.q z z J L L K T E T L L L ",
"L L K T N 0 a.c.c.c.l.c.c.c.c.c.c.x.x.c.c.l.c.c.x.z.c.c.c.k.0.0.0.i 0.0.0.i y 9 q y 8 9 e.i.z.z.z.c.c.c.x.x.x.c.x.c.z.l.l.v.l.9.u z / ! L K H H E E L ",
"T 6.E N ; e.k.c.c.c.c.c.c.c.l.l.z.c.z.x.c.z.c.l.c.z.l.z.v.z.w.0.0.0.0.0.0.q.i 9 r 8 r.i.l.v.l.x.c.c.l.c.c.l.c.l.z.c.c.c.l.l.c.n.y.% 3.) K J E L L J L ",
"J :.] f 7 d.s.h.l.c.c.l.c.l.c.c.x.c.z.c.x.z.x.c.z.z.c.c.a.r.i 0.0.0.0.0.0.0.i 8 9.q.h.c.l.c.c.x.z.c.c.c.c.c.c.l.x.c.c.c.v.c.s.r.8 ; N L L P -.L K L L ",
"! D ' N 4 a.s.s.h.k.l.c.c.c.c.l.z.c.x.c.c.c.c.c.c.c.p.r.q 8 e 0.0.0.0.0.0.q.i U s.g.s.j.k.k.l.c.x.c.l.l.l.l.c.c.x.z.c.c.p.r.9 8 y 6 & T L G H K { E L ",
"1.>.H 1 0.d.s.s.s.s.g.c.c.l.c.c.x.c.x.z.c.c.c.c.s.e.t 9 t t q i 0.0.0.0.0.0.r.s.d.s.s.s.s.d.j.k.c.c.c.c.c.c.c.x.z.c.c.i.9 8 y r q 9 6 h E ..J G X.~ L ",
"P o.Z 3 u.r.p.g.s.s.s.j.c.c.c.c.c.z.z.c.c.v.g.i.0.9 r q q r q e q.9.u 0.q.U i.g.d.d.s.d.s.f.s.d.k.x.c.c.x.x.z.z.c.p.q.y 9 y 9 9 e e 5 = ~ $.' / ! E :.",
"L n 0 r.r.9.q.s.g.s.s.s.j.c.c.c.c.x.c.k.u.i.y.c w.y q q e e q e i U 9.q.0.r.s.s.d.d.d.s.f.s.f.d.f.h.k.c.c.x.z.v.p.y 8 q 9 9 9 q e e q - h _ ! ! / ' E ",
";.l 3 p.s.p.a.s.s.g.s.g.s.j.j.l.c.k.u.r.9.0.e.0.0.U e e e e e q y 0.q.0.r.s.g.d.s.g.s.g.s.g.s.r.f.s.f.g.g.l.f.i y r y q e 9 q r q r e q - z J K H ! H ",
";.z 4 i.g.i.i.g.s.g.s.s.s.s.s.j.k.r.U 0.0.0.0.0.0.w.y r 9 r e 8 y 0.0.r.s.g.s.s.s.s.s.s.g.s.r.a.d.d.s.s.f.u.y 8 y q q q 9 q q e q q e e 4 > E H H H L ",
"T N 5 i.g.s.r.a.g.s.d.s.d.d.s.p.e.0.0.0.0.0.0.0.0.0.y e q q q q t u r.s.g.s.d.d.y.a.g.s.g.a.r.s.s.s.f.s.g.w.8 t r q q r q 9 e 9 r q q r q - a O.E H ~ ",
"{ S 4 i.d.f.s.d.d.d.d.d.d.s.g.a.0.0.0.0.0.0.0.0.0.0.y e q e r q 9 i g.g.s.g.y.q.q.p.g.s.g.s.r.s.f.d.s.s.g.e.9 e q q q q 9 t r q q q q q q r @ V ' J ' ",
"{ h 5 i.g.d.d.d.d.s.d.s.d.d.s.s.0.0.0.0.0.0.0.0.0.0.0.t r q q q 9 i s.d.f.t.i.i.i.f.s.g.g.s.s.f.g.s.g.s.g.q.9 q q q q q q q e q q q q q q y 4 h @.E ' ",
"#.N 3 a.s.d.d.f.y.a.g.s.g.d.s.a.U 0.0.0.0.0.0.0.0.0.0.e 9 q q r 9 r y y.i.y.d.s.d.d.g.s.a.e.a.f.s.s.s.g.t.u 9 e r q q q q 9 q q r q q q q q y @ s @.] ",
"[ n 4 i.s.s.g.s.y.i.g.d.d.g.a.0.0.0.q.i i 0.0.0.0.0.0.y q q q q y 9 y i.i.h.g.h.g.d.s.p.y.q.y.s.s.s.g.u.q.i 9 e 9 e e q q e 9 q q q q r q q e 5 < ~ O.",
"E l 4 i.d.d.s.g.u.0.a.d.d.s.s.0.0.0.0.0.y i e.0.0.0.0.0.t q q t 9 r i.c.c.c.x.c.c.k.r.e.s.d.d.d.g.s.a.0.i.r.8 y q 9 r 9 q 9 q q q q q 9 q e e r X < / ",
"E l 4 p.d.d.d.d.d.i.s.d.s.d.a.q.0.0.0.q.i i U 0.0.0.0.0.t q q q e i.c.c.c.x.c.c.x.c.u.p.g.d.d.s.g.s.g.f.g.r.9 e r q 9 e q q q q 9 q y y 9 3 5 : = h H ",
"[ l 4 p.a.s.g.d.d.d.s.d.s.d.s.0.0.0.0.0.q.i i 0.0.0.0.0.q q t 8 c z.c.c.l.c.c.c.c.c.u.u.d.d.d.s.g.g.s.d.g.q.9 r e q e 9 r 9 q y y 9 5 5 - n = A @.Y ( ",
"-.x 4 p.i.r.i.s.g.s.s.d.d.g.a.0.0.i 0.0.0.0.q.0.0.0.0.0.i 9 9 9 9.g.l.x.c.c.c.c.v.k.r.U p.g.d.s.u.a.g.s.g.r.9 9 q q 9 9 y y e 5 3 6 d > z &.] ! #.~ &.",
"T l 4 i.g.i.r.u.s.s.g.d.s.g.s.0.i y 0.0.0.q.i 0.q.0.0.0.0.t 9 9 9.j.j.k.k.k.k.g.g.r.0.0.s.g.f.s.0.0.i.s.g.q.9 y 9 e y y 5 @ # < g A &.J L H O._ T ' T ",
"+.l 4 p.g.d.g.i.a.g.d.s.s.s.y.q.0.i 0.0.0.e.y y i U 0.0.0.t q 9 u y.a.s.s.s.r.i 9.0.0.0.r.s.s.s.u.u.i.s.g.r.9 y y 6 @ @ < B l ` #.! L K L L / +.T ' J ",
"#.N 4 i.p.u.s.g.g.s.s.s.d.s.0.0.0.0.0.0.0.0.u 9 9 i 0.0.U t q 9 q q.y.a.g.g.u.0.q.0.0.0.q.g.h.j.j.j.h.h.p.i 6 + + < l m L ` ' ] T L T ( P P L J H H H ",
"' N . 6 4 y u.i.u.f.s.s.s.p.0.0.0.0.0.0.0.0.U y 9 i q.0.0.u 9 9 u d.p.i.a.p.s.r.0.0.q.w.8 7 7 r 8 9 9 r 5 X , N h A E #._ F ! ] L T O...T E J K T  .J ",
"' F z V % o 4 @ 4 8 s.j.h.s.w.w.w.w.q.w.q.q.w.0.i q.q.q.w.q.y 9 + i h.h.i.w.d.i.0.r.6 @ g S I l h l p z G n V #.T L K W +.L _ ! K +.' F K L H ( 4...L ",
"W L [ ] C z z z n   3 5 5 5 @ @ + @ + 3 @ @ @ # 4 @ + @ 3 @ X # z j 5 6 4 + 4 4 @ @ n n / *.} E E E E T ! / E ' J L L L E L _ / J } Y  .&.L T #.X.K K ",
"L K L L E T E E E z f f g p g l V l z h g g g g g g g h g g h z T G f g f f g p g g >.] _ R K L L H L G G H L L P P L L H L H K J L L L >.} R ' K L L ",
"L Y L L E L L K G E X.R J T E E ` [ ' W E E E E T -.E T E E / E H L E E  ._ E Y E E T R / T G L H L L =.L L L L P E H L G L / ( K L L K L ! W R K L L ",
"L K L L L K L X.( K o.>.E K R L K K K P E G =.P J =.H K G L K L K ` ( K  .<.! K T Y K L L L E L E E L -.L K L L J L K !  .H / 1.} K T W L L L L E J P ",
"J o.J L J _ $.>.E L K X._ ! <.J L Y L L P L E P H L L ..~ K L ! ] 1./ L H ( ' T <./ K L L L E L E E L H K  .( K L T ] <. .L G ~ | Y &. .K L L L P P P ",
"P 6.` L L @.,.J K K L G _ @.~ L L -.E K K L H L L K K ,.| J L ' 1.~ F K H H R @.( J L =.W L K L L H L L F ..&.E L ! 4.( F K L L Y +.} J L E -.L K L L ",
"T K _ _ K ] J L W ( E K ` R K L L L L E ~ L J L L ~ / D Y ] G ' / K T ( E G / ' G L L L L J ~ J L L L P ( J L ] L ! _ K T ( ~ L E ] L L L L P L ~ J J ",
"<. .! T K ] L | $.X.P K W W L K ^ ~ K T %.G L L H ~ 1.o.! / L ` Y { &.X.~ G Y / H L E ( K J >.L K J L P >.>._ ! K _ W T &.} ( D J ! L L L ( L K o./ D ",
"( o.<.T H +.+.$.I F J -.K L L K { $.J [ T ( ^ K L K ~ o.<.! K ` ] @.^ G H -.L L H H ~ &.T ! R ~  .K L K E  .<.` G ! +.O.{ K K -.P L L L L &./ T ! E ..",
"K K { #.T T +.J L L J P L L %.` L ' / ' T } E L J L K K ( @.R Y O.T K L L E J K ..X.H ' ! ' T ` ~ K J J L K T $._ J ] ! K J L E J K ( %.T R ` _ / ' ^ ",
"E L H E J K L L J L L H L L E ~ +.R H L / ! G L E H L E H J E G H L L L H H H J P E } ! L J Y ' K L W L J P K J E G H H L L J H L L J E ' ' L L J ' L ",
"-.L H L H R R L H H L E Y H L K L J H G J H E J L H -.E H H L T / J L H L J Y H H H L J L K L L Y Y P H ~ =.L L K E / J L L L H E L L K L L L K L L L ",
"L R L T E O.! L H R H ! _ K P -.L L ! ! H G %./ K L H T H E Y ' ' L H R J E ' H L =.J K T ' J K }  .H K K T E L T _ O.J K T T H ] J L =.E G T ' Y L E ",
"T <.! _ O.T K J H >.` T @.E L E L L / O.L R { L ~ %.T >.} R @.! H J G ..$.Y O./ H E P L E O.E Y } P L >.R ..$.Y O.' L H H ( <.J ] [ K E J L J +.! H ` ",
"~ / ' _ _ K ( ..G ~ $.J ' _ J $...L J ] _ [ R K L o. .J } ! ' K ~ o.H P $.E ! ] J ' o.P L ' ] W [ K L  .%.L | ! } L J :.E L X.! T O.J _ >.E K W O.T ] ",
"} _ / / ! ! >.L L L >.' T @.] ' L E P Y _ ' ! K L K ' _ _ T _ T >.E L H ..$.J @.} } E P E H ' ` ` K K K ! ' ! T ' Y %.( L G ) &.Y ] @.' ~ J ~ L _ _ ] ",
"_ _ H H ! ] ! H L L J _ Y ! Y K L L H L Y @.! L E L ! } L L W ' ' L L L H ' E T W K L L L L L } ` L E L E ' E K E ' ` Y H L H ! ! Y / G L L L L K ' +."
};
