/* XPM */
static char *result[] = {
/* columns rows colors chars-per-pixel */
"75 75 114 2 ",
"   c #505D35",
".  c #546036",
"X  c #596436",
"o  c #5E6837",
"O  c #687038",
"+  c #575A52",
"@  c #5B5E56",
"#  c #5B5B5B",
"$  c #5D6352",
"%  c #5E605A",
"&  c #636B56",
"*  c #63675C",
"=  c #656C5A",
"-  c #677453",
";  c #697654",
":  c #6D7D54",
">  c #6B735D",
",  c #6F7A5B",
"<  c #707F55",
"1  c #70755E",
"2  c #707D5A",
"3  c #636363",
"4  c #676963",
"5  c #686C62",
"6  c #6F6F6F",
"7  c #6D7363",
"8  c #737B65",
"9  c #747474",
"0  c #7A7D76",
"q  c #7B7B7B",
"w  c #6F8053",
"e  c #728454",
"r  c #758955",
"t  c #798F54",
"y  c #788358",
"u  c #7A8B5D",
"i  c #7D9556",
"p  c #7F9855",
"a  c #7D925A",
"s  c #778265",
"d  c #7D8A67",
"f  c #7B826E",
"g  c #7F8276",
"h  c #7F8870",
"j  c #7F8378",
"k  c #838E57",
"l  c #819C55",
"z  c #8D9C57",
"x  c #839C59",
"c  c #87A556",
"v  c #8AA457",
"b  c #8BAA56",
"n  c #86A159",
"m  c #8AA35A",
"M  c #8BAB58",
"N  c #93A858",
"B  c #8EB057",
"V  c #91B357",
"C  c #95BA57",
"Z  c #98BE57",
"A  c #92B458",
"S  c #99B45A",
"D  c #96BB58",
"F  c #99BE59",
"G  c #808377",
"H  c #81857A",
"J  c #9DC657",
"K  c #9FC957",
"L  c #9BC259",
"P  c #9FC958",
"I  c #A1CD57",
"U  c #A3C55A",
"Y  c #ABC65C",
"T  c #A4CC59",
"R  c #AACC5B",
"E  c #A4D357",
"W  c #A9D757",
"Q  c #A7D856",
"!  c #AADC56",
"~  c #A7D158",
"^  c #ABD459",
"/  c #AEDA58",
"(  c #B3D45C",
")  c #B8D65D",
"_  c #B4DC59",
"`  c #BBDB5D",
"'  c #ADE156",
"]  c #B1E456",
"[  c #B5E258",
"{  c #BBE35A",
"}  c #BDE959",
"|  c #A0C760",
" . c #A3CA62",
".. c #A7D065",
"X. c #AAD367",
"o. c #ACD568",
"O. c #C0DF5D",
"+. c #C3E35D",
"@. c #C8E65E",
"#. c #C2E85B",
"$. c #C9EA5E",
"%. c #CCE760",
"&. c #CFEB60",
"*. c #D1EB60",
"=. c #848484",
"-. c #868882",
";. c #8A8E85",
":. c #8C8C8C",
">. c #949494",
",. c #9E9E9E",
"<. c #A3A3A3",
"1. c #ADADAD",
"2. c #B3B3B3",
"3. c gray72",
/* pixels */
"  D D D D D D F F D D D D | D D D D F U F Z ! F C D D D C D D D F F D D D D F U C C F D L L F E J C F C D D D D D D F F D D D D | D D D D F J F L Q C ",
"  D D F L D F ..| D D D D D D D D D F +.W L ! J U F D D C | D D  . .F D D D D D C C C C ) { J E I L U C D D F F A |  .| D D D D D D D D D U +.~ J ! L ",
"  D D F L D D D D D ) ~ D D D D K L D U / K ' Q / L D D C L D Z D D D ../ F D D F L I C F ^ ~ E ' J ^ F D D L F C F C F U ` P D D D D E F D U / J ' K ",
"  D D D D D L +.T D T +.K D L ! #.U D D E ' J I I D D D D D D C ` / F F O._ D D ~ [ ` D C L ' E J Q F D D D C C D U { J D ..} J D K ! #.U D D Q ! L E ",
"  L D J ~ D D U { K L T } I ! ~ D D D D F E Q J I D U F C ! L C D { Q L L ` Q ~ ! L C D D D J ! K ~ D F L F E K D D ( [ J L ( { K ' I C D D C F ' E I ",
"o +.W K ! L C F F K ! L J ~ ! F J E R F F D D D D D ) [ L ! K Z D C L Q T F ~ Q K F E ^ L L F D C F D T +.T K Q F D D D I Q C K ~ ~ F K ~ R F F C C D ",
"  U ' E K F I Z D D ' I C Q K F E ~ U F F D F _ R D F ( ! K K J J D C E Q L K Q L L / T L F D D E ` D D R ' E K F I D D L ' K F Q K D W I T F F C J _ ",
"  F J ' E D Q F D D J E C E L J ' J F D D F %.+.F D D F ! ! Z I T D Z L E L K E L Q Q D D D F ) &.U D D F K ' K F Q C C Z K E F Q F I ' L D D D J *.` ",
"  D D D D D K D D D D D D K L J U F ` _ L Q E F D D D D D D D J L D D D D D J J F I D R } U K ! L D D D D D D D Z I D D D D D F I F J L L +._ L ' K D ",
"  D D D D C F F F D D D D D D D D D L _ T Q F D D D D D D D D D C L D D D D D D C D D F ^ ! K I D D D D D D D D D Z F F D D C D D D D D D U _ K ! D D ",
"  D  .F D D D F F C F D F ( ~ F D D D F L J D D D D D L L D D D D F D D C D U _ J Z D C F J F L D D D D D | D D D D F F D F D F ` I D F D D F F J D D ",
"  D F D F F D D F L / ( C U ` E F W L D Z D F L D  .D F F D L C D D L ~ ` U F ) _ L T T C C C F L D | L D F D U F D D F J _ R D T { K L / D D D D L L ",
"  D D D ( ( F D E } ` F C D L E Q { L D F F D D D D D D D F %.L D L ] #.U F D D I E [ R F F L C D D D D D D D O.T F Z Q } ) D D D L ~ ! _ D D L D D D ",
"  D D D U ^ I F E _ F F C D F J Q F D D | F D D D D D D D D ( I L L ' U D F D D L Q K C D F | C D D D D D D D R ~ K F Q ( F D D D D E E F D C | D D D ",
"  D F ` I D E F I K L ~ _ T C K E D D D D D L ) D D D D ( W D I K L E C I / ( D Z Q C C D C C C ) F D D D U ` J L E D E L L Q ` L D ~ J D D C D D U  .",
"  D D U *.} K F E I [ ) D C F C D D D R ) D J ^ F D D D D %.$./ F L ! E +.L C F F C F C F %.F F ^ F F D D D ^ *.[ J D Q I [ ( D D F D D D D ) R F I K ",
"  D D D D ( [ J K ' E F C F | F C U K J / K ! L _ F D D D D U { E J Q ' L D D J | D L T L Q Q E J T ( D D D D D ` ! L I ' E D D F | D D T L K ! J E J ",
"  F F D D D I P D J F Z D D D C D ^ ~ ~ E L K J K D F F D D D L E V C J F D D C D D U ^ I E K J L ! D D | D D D F I J D K Z D D D D D F ( E E I L K ~ ",
"  F F F | D D D C D D D D D C F D D F J L C Z L L C F L D | M b b 7 d b A F D D D D D D J J C F F J D D L D L L D D D F D C D D C D D D D F K F C C J ",
"  D D D F F D L E ' L D F Z L E D D F D C L L C F / F c x u 9 9 6 3.>.9 a p M C ~ F C F C F C L F D T I D D D F D F F E Q F D F F K E D D D D F L F F ",
"  D R J T W J ! E L D D ^ W J ! L F | F C I ' C L k : H :.>.3.3.3.3.3.3.>.:.h : K K F J F D J ' J D / R D R L _ T J Q E L Z D / I K Q F F | D F Q Q F ",
"  D ( [ U [ K ! J D R F R ' J Q E F I R C L ! p , ,.,.1.3.3.3.3.3.3.3.3.3.3.1.,.s , a F ( F D ~ E L E D F ) _ R ] I Q L F R D R ! J ! K F ^ T D J ! J ",
"  D C U E Q K Q F ` U D D ` / K ' ! ' L | F i -.1.3.3.3.3.3.3.3.3.3.3.3.3.3.3.3.2.1.:.5 D B L F Q J E C D D T K ! K E D ` U D L +.~ E ' / ! F U F K K ",
"  F F J ! J F L ' / L D D F ~ F K J C C C c 3 >.1.1.2.3.3.3.3.3.3.3.3.3.3.3.3.3.3.3.3.3.q h c C L ! E F F D I ! L D T ! Q F D D L E F E L F D D C C E ",
"  | F D D D D D D D D D D D F I F C D D D b 3 >.,.,.<.1.1.3.3.3.3.3.3.3.3.3.3.3.3.3.3.,.:.q e Z C L K D  .D D D C D D D D D D D D L K D D D D D D D D ",
"  D D D D D D D D D D D D L F D C D D D F % =.,.:.,.,.,.<.<.<.1.3.3.3.3.3.2.1.2.=.q q 9 6 6 4 V L D D D D D D D D D D D D D D F | D D D D D D D F I D ",
"  D D D D D F X.| D D D D F C C D C L %.K # :.,.:.,.,.,.,.,.,.<.,.1.1.1.<.9 9 9 9 6 6 6 6 6 6 @ J C F D D D D D D L o.L D D D D F D D D D R { L L E D ",
"  D A |  .D D D D D L F D D D C F F D T } # :.>.,.,.,.,.,.,.,.,.,.,.-.6 6 6 6 9 6 6 6 6 6 6 6 # M U ) D D D | J D D D D F L F D D D D F D D ( [ K ] I ",
"  D D D D D F ( U D ) { J C L E _ T D D r q ,.,.,.,.,.,.<.,.,.,.,.,.:.9 6 6 6 9 6 6 6 6 6 6 6 6 5 i J Z C D D D C U ^ L F ` _ L C L E [ L C C ! E E I ",
"  D F L K D F ( { J F ) { K E ! U F D D $ =.,.,.<.,.,.,.,.,.,.,.,.,.>.9 6 6 6 6 6 6 6 6 6 6 6 6 6 4 p C C Z J J C L ` [ F L ` _ J ! Q T F F C J ' E E ",
"O { L J E D D D L E Q L E E Q L F D D D $ :.,.>.>.,.,.,.,.,.,.,.,.<.>.=.9 6 6 6 6 9 6 6 6 6 6 6 6 6 % Y _ Z I K D D L L ! E L W K Q F F F C C C L L L ",
"  ( ' I Q J J F D D Q K D E E Z E E z r + =.>.>.=.>.,.<.,.=.,.,.,.,.:.=.q 6 6 6 6 6 6 6 6 6 6 6 6 9 3 : ` ! E W L L C Z L ! L F ! K F Q / ( L F C L U ",
"  D E ! K D Q F D C E E C E L L p > =.=.=.>.>.:.>.,.,.,.,.>.,.,.,.>.=.=.=.6 6 6 6 6 6 6 6 6 6 6 6 6 6 3 - M ! J F Q D D L E E L Q L J ' L C D D F ` +.",
"  C F J L D Q F D C F L D E x > ;.,.3.2.3.2.2.1.1.2.2.2.3.<.,.,.,.>.=.=.=.q 6 6 6 6 6 6 6 6 6 6 6 9 q <.1.;., c B Q D D C D L L E L E K J ` K F Q { L ",
"  D D D C C F F D C D D D n q <.1.3.3.3.3.3.3.3.3.3.3.3.3.2.,.,.,.>.=.=.=.q 9 6 6 6 6 6 6 6 6 6 =.>.2.3.3.2.1.q 8 m A D C C A C L Z F F Z ( { K ! F D ",
"  D L F D D D F L D D D p j 1.3.3.3.3.3.3.3.3.3.3.3.3.3.3.3.2.1.<.=.q q =.=.q 6 6 6 6 6 6 9 =.>.2.3.3.3.3.3.3.3.1.=.d r D C C L U L D D Z D K J ~ D D ",
"  D | D D D D D D F K m j 1.3.3.3.3.3.3.3.3.3.3.3.3.3.3.3.3.3.3.>.=.9 =.=.=.q 9 6 6 6 9 9 =.1.3.3.3.3.3.3.3.3.3.3.3.<.>., m P F ) { J D T D D D D F F ",
"  D D D R U D D K ~ S j <.3.3.3.3.3.3.3.3.3.3.3.3.3.3.3.3.3.3.3.:.=.=.=.=.=.=.9 6 6 9 q 1.1.3.3.3.3.3.3.3.3.3.3.3.3.3.3.<.j m C F ^ E E ` D D D D F D ",
"  D D D R [ J C E +.4 :.<.1.3.3.3.3.3.3.3.3.3.3.3.3.3.3.3.3.1.,.=.=.=.=.=.=.=.9 9 q >.1.3.3.3.3.3.3.3.3.3.3.3.3.3.3.3.<.>.4 e A D D E Q T D D | F D D ",
"  D D T L F E F E K 3 >.,.,.1.2.3.3.3.3.3.3.3.3.3.3.3.3.3.>.=.6 6 =.=.=.=.=.=.q :.,.<.<.1.2.3.3.3.3.3.3.3.3.3.3.3.1.>.9 6 6 # D F D E J D D D D D L U ",
"  D F ` %.I K F E w H ,.,.,.,.<.1.3.3.3.3.3.3.3.3.3.2.>.=.6 6 6 6 q =.=.=.=.=.>.<.,.,.<.,.<.<.2.3.3.3.3.3.3.3.2.1.9 6 6 6 6 4 s F D J L D D R L D I ~ ",
"  D D F R %.W F L * :.=.>.,.,.,.<.3.3.3.3.3.3.2.1.1.:.=.9 6 6 6 6 9 =.q =.=.=.>.,.,.,.,.<.,.,.<.2.3.3.3.3.3.2.=.q 6 6 6 6 6 6 * A | D D D D W / L E J ",
"  F D D C F Q ~ - q ,.:.:.,.,.,.,.<.1.3.3.3.<.>.=.=.=.=.9 6 6 6 6 6 q =.=.:.>.,.,.,.,.,.,.,.>.,.,.<.2.1.2.,.q 6 6 6 6 6 6 6 6 6 = M F F O.E L E J E E ",
"  L D F L C C F - q ,.>.,.,.,.,.,.,.,.<.2.,.=.-.=.=.=.=.=.6 6 9 6 6 q =.=.>.<.,.,.,.<.,.,.,.>.,.,.,.<.,.:.6 6 9 6 6 6 6 6 6 6 6 3 r D D D J E J C C I ",
"  D D F | C C F - q ,.,.>.,.,.,.,.<.,.,.>.=.=.=.=.=.=.=.=.6 6 6 6 6 9 q >.<.,.,.,.>.,.,.,.>.>.,.,.<.,.,.6 6 6 6 6 9 6 6 6 6 6 6 6 = x D C F C D D D C ",
"  D D C J J L E - q ,.,.,.,.,.,.,.,.,.,.-.=.=.=.=.=.=.=.=.9 6 6 6 6 6 :.,.<.,.>.:.:.<.,.<.>.>.<.,.,.,.,.6 6 6 6 6 6 6 6 6 6 6 6 6 6 % D F  .D F ! E D ",
"  D %./ R } J ' : q ,.,.,.,.,.,.,.,.,.<.:.=.=.=.=.=.=.=.=.=.6 6 6 6 6 =.>.>.>.>.>.,.,.,.,.>.<.,.,.,.,.,.6 6 6 6 6 6 6 6 6 6 6 6 6 6 3 c F L L D L ! F ",
"  D F _ J Q K Q - q ,.,.,.,.:.,.<.,.,.>.:.=.=.q =.=.=.=.=.=.6 6 6 6 6 6 =.>.,.,.,.,.,.,.:.:.>.<.<.,.>.=.6 6 6 6 6 6 6 6 6 6 6 6 6 6 6 $ I [ R F L ! K ",
"  D D L ' K L I w q ,.,.,.,.=.>.,.<.,.>.=.=.=.=.9 =.=.=.=.=.9 6 6 6 6 9 <.1.2.3.3.1.>.:.,.,.,.,.,.,.=.>.6 6 6 6 6 6 6 6 6 6 6 6 6 6 6 4 r J D F D F ~ ",
"   .F F L F C C - q ,.,.,.<.>.>.,.,.,.>.=.=.=.=.9 =.=.=.=.=.q 6 6 9 9 ,.3.3.3.3.3.3.,.>.,.,.,.,.,.,.,.,.6 6 6 6 6 6 6 9 6 6 6 6 6 6 3 $ w D D D D D L ",
"  D D D D D C A - q ,.,.,.,.,.,.,.,.,.>.=.=.=.=.=.q =.=.=.=.q 6 6 6 :.3.3.3.3.3.3.3.,.:.,.,.,.,.,.,.,.,.6 6 6 6 6 6 6 6 6 9 4 3 = : : D D D D D F L D ",
"  D D D D C C | ; q >.>.>.,.,.<.,.,.,.>.=.q =.=.=.=.=.=.=.=.=.9 6 6 :.<.3.3.3.3.3.1.:.=.,.,.,.>.>.,.,.<.6 6 6 6 6 6 6 6 # # 2 u n F D D D L T F L ~ D ",
"  D D L | D D | , q ,.,.>.>.,.,.,.<.,.>.=.9 =.=.=.=.9 =.=.=.=.9 6 6 =.,.,.<.<.>.:.:.=.=.,.,.,.:.:.>.,.,.6 9 6 6 6 4 @ @ b b A D D D D D D U { / L ' J ",
"  D D D F D D C - q >.>.,.,.,.,.,.,.>.=.=.=.=.=.=.j 6 9 =.=.=.9 6 6 q :.,.,.,.:.=.=.=.=.:.,.,.,.,.,.<.>.6 3 4 = & t A A U +.K D D D D ~ F D F ! J ' I ",
"  D D F F D L %.w 6 6 0 >.>.>.<.,.,.>.=.=.=.=.=.=.=.9 6 =.=.=.q 9 9 j ,.>.,.>.>.=.=.=.=.9 q =.q q q q 3 4 : : V C U #.~ F U #.T F I ! +.U D D ~ ' L E ",
"o ^ F L E D D U V c r # 3 3 3 =.,.,.,.=.=.=.=.=.=.=.=.q =.=.=.=.9 3 3 :.,.>.:.,.:.=.9 3 p p p l p l x N V F I I D D U ^ ~ I U [ I Q J D D D D D I K K ",
"X +.Q K ' L D D Z J E M M L c $ > > 1 = = = * = = = = > & > > * % , b u > > = > = = x R U | D D C C D U #.~ I Q F C D D K Q F J Q E F E Q ) L F D D D ",
"  L ' Q L F ~ F C C ' E F E J V J L C A A B A _ Y V A J Q C V L L V C K E V L J B C ~ J F F D D ~ %.D D U ' ~ L L E D D L ' K Z Q J C Q K L F D D J +.",
"  D F E K C W F F C L K C E J K ! J U L D K $.( C C F C I E F I K C C D K L K E F ! T U J D F { O.L C D F L W J Z Q D C C L K L Q Z E E L R L F R $. .",
"  D C C Z C T D C C C C F J F J J F ) { L Q E D D C C C C Z D L L Z C D C C L J D K C T +.E K Q L C C C C F D D F K D D C C C Z K F J L L ` _ J ! K D ",
"  D D D D D D F F D D D C C F C D D F / I E F D D D D D D D D D D L F D C C C D F D D C U ! K K C D D D D D D D D D | F C C C C D D D C D L / K ! C C ",
"  D  .D D D D D F D L L C ( / L D L D F L F D D D F D L L D D D D F D F J F U { I F F F F L F F F C D F F  .D D D D D D F L L F ` / Z F F D F F L F F ",
"  D D D L L D D L K { ( D F _ Q J _ L D D D D | D  .F D D F U D D D J / O.L D R [ L ~ ^ C C C C | C | | D D D U F D D J I { R F L ` E K _ D D D D F F ",
"  D D D ( _ F D E } ) F D D F ~ Q ) L D J F D D D D D D D L @.J D L ] +.U D D F K E [ T C L | C C C C A D D D O.^ D D Q #.( D D D L I ' ( D D | D D D ",
"  D C C L U ~ F I / F D D D D K E F C F L F D D D D D D D D R I J L ! J Z C D D F Q J F D F | D D D D D D D D U T I F Q T F F D D D E I F D D L F C D ",
"  D F %./ L E F E K J [ { R F J I F C F F C J O.D D D D ` } U I J L Q C ! [ ) D F ~ D D D L A D O.F D D D U #.R J E C Q J I [ { L D I L D D F F C ^ ^ ",
"  D D U +.#.I F E E ' ( D D | D D D D U _ F K K U F D D D ` %./ L L ! Q ` L D L F D D D L } J L ~ L U D D D R %.} K C Q E [ R D F F D D D D ( ^ L K J ",
"  D D D D R ' K J ! E F D D | A D ^ T J ' K ! L ( F D D D D L _ Q L E ! J D D L L A U / L E Q E K ~ R D D D D D ( ' J J ! I F D F | D D R T J ! J Q J ",
"  L D D D D U J C J F C C C C C D U T ~ E L J K I D F L D F D L K F Z L D D D D D D L T E ~ J L L Q D C L D D D F J L C J C D D D D D F R I Q K F J E ",
"  D D F  .D D C L L D C D C F L D F D D C D D D D F D D D  .F D D F L Z D D D D F D D F C F D D Z D F F D D | | C C C L L F D D D F F D D D D F F C C ",
"  D C D F L F J E Q F D L L L Q D F L D D J K C D _ F D D D L D J J ! T D D J D ~ L C L F D F J F C R ~ D D A J F L J E E Z D L F K E D D | D D K J D ",
"  D ( I ^ / J ! E L D D ^ W K / J D | D D K ! F K ( F U ^ L { K E E I D D L _ J ~ E C L L D L ! J L ^ U F ( J _ ~ K Q E F C F ( ~ K Q F D J D F E ~ D ",
"  D U %.L ! K ! L C ) L F W L I I L / ) C L ' E ~ J C L %.J T E Q J L ( T F R E J ! C K O.F D E ! J E F F R ` L ! K E F U ) D U Q L ~ J L [ ( D L ' K ",
"  D C L ~ E J ~ L { L F D _ [ J ' ' Q D | F L E E L C C A ! K E E J T ( D F  .} K ! ' ' L F | D E K E C C F K E ~ K E J { L D F +.Q I ' ' E C L F J I ",
"  F F L Q J C L Q ~ L D D F E K K J C D C C D J ' L F L D E E D C E ! K D D C K K L K F F C C D F Q E F L F J E L F K E E C C C F E J I L C D D D F I "
};
