/* XPM */
static char *result[] = {
/* columns rows colors chars-per-pixel */
"75 75 242 2 ",
"   c #505D35",
".  c #5A6537",
"X  c #687038",
"o  c #EC1D22",
"O  c #D5323A",
"+  c #E7272D",
"@  c #BE3F47",
"#  c #CE3C45",
"$  c #A4616A",
"%  c #D95E65",
"&  c #7DB03D",
"*  c #7BC839",
"=  c #7DB879",
"-  c #7FA17F",
";  c #68B342",
":  c #7FC652",
">  c #B19523",
",  c #8FB134",
"<  c #ABB439",
"1  c #E7931A",
"2  c #D3A71F",
"3  c #D98436",
"4  c #E58A36",
"5  c #E59937",
"6  c #ED9231",
"7  c #EBB438",
"8  c #F0AB34",
"9  c #DB9B24",
"0  c #90CD36",
"q  c #A6DD2E",
"w  c #FACB35",
"e  c #96BB58",
"r  c #99BE59",
"t  c #9EBD55",
"y  c #93B946",
"u  c #ADB84D",
"i  c #AFB450",
"p  c #858477",
"a  c #8ABB6B",
"s  c #88B869",
"d  c #84B874",
"f  c #8DB66B",
"g  c #B2B371",
"h  c #B7995D",
"j  c #D89547",
"k  c #DC8756",
"l  c #D99455",
"z  c #D58847",
"x  c #E89750",
"c  c #D4B54C",
"v  c #EBB848",
"b  c #E8B958",
"n  c #F5B857",
"m  c #EFAB4D",
"M  c #D39B6C",
"N  c #D5926B",
"B  c #F4837C",
"V  c #F88B7A",
"C  c #EB8A75",
"Z  c #D8A968",
"A  c #D6A978",
"S  c #DAB577",
"D  c #D6B966",
"F  c #E6BB68",
"G  c #F0B26D",
"H  c #9DC657",
"J  c #9FC957",
"K  c #9BC259",
"L  c #9EC95A",
"P  c #97C15E",
"I  c #96D451",
"U  c #A1CD57",
"Y  c #A3C55A",
"T  c #A4CC59",
"R  c #AACC5B",
"E  c #A9C55D",
"W  c #A4D357",
"Q  c #A7D856",
"!  c #AADC56",
"~  c #A6D259",
"^  c #ABD459",
"/  c #ADDA59",
"(  c #A7D759",
")  c #B3D45C",
"_  c #B4DD5A",
"`  c #BBDB5D",
"'  c #B9D75D",
"]  c #AFC44C",
"[  c #ADE155",
"{  c #B1E456",
"}  c #B5E258",
"|  c #BBE35A",
" . c #BDE959",
".. c #BBE646",
"X. c #98C968",
"o. c #92CB70",
"O. c #A3CA62",
"+. c #A1C861",
"@. c #A5D675",
"#. c #B0D46A",
"$. c #B3E373",
"%. c #C0DF5D",
"&. c #CFC555",
"*. c #F7C748",
"=. c #F3C857",
"-. c #FAD45A",
";. c #EDCB54",
":. c #C3E35D",
">. c #C2E85B",
",. c #C9E95E",
"<. c #CBD370",
"1. c #EAC66A",
"2. c #F4CD65",
"3. c #F6D567",
"4. c #E7C774",
"5. c #EBD37C",
"6. c #F9DB75",
"7. c #EDD372",
"8. c #CDE964",
"9. c #437DBF",
"0. c #3D4ECA",
"q. c #4557CE",
"w. c #4B5ED0",
"e. c #4B6DCE",
"r. c #C27C87",
"t. c #719695",
"y. c #66B695",
"u. c #74B994",
"i. c #6FAE91",
"p. c #4C8DB0",
"a. c #59B6A5",
"s. c #53B0B4",
"d. c #6AB5B1",
"f. c #739CB1",
"g. c #77C390",
"h. c #79C3B7",
"j. c #3CB2CB",
"k. c #43B6CC",
"l. c #4AB7C9",
"z. c #57B8CB",
"x. c #4BBCD5",
"c. c #4CBED9",
"v. c #45B7D3",
"b. c #4FB1D5",
"n. c #62BFD3",
"m. c #71B5CE",
"M. c #739DDC",
"N. c #4EC0DA",
"B. c #51C1DA",
"V. c #6DC2C9",
"C. c #74C3C9",
"Z. c #69C3D6",
"A. c #7CCBDC",
"S. c #74C7D6",
"D. c #7CCDE1",
"F. c #81A897",
"G. c #86B297",
"H. c #83B5A6",
"J. c #ACAAB8",
"K. c #A4919E",
"L. c #FA8584",
"P. c #FD8688",
"I. c #FB8B8B",
"U. c #F78A84",
"Y. c #F99894",
"T. c #F6958A",
"R. c #D9B785",
"E. c #D9BC93",
"W. c #CBB48D",
"Q. c #F7A79A",
"!. c #ECB394",
"~. c #F9A7A2",
"^. c #F8B5A9",
"/. c #F9B9B1",
"(. c #87C994",
"). c #B4DD89",
"_. c #86C6B9",
"`. c #B1D7A2",
"'. c #DDC899",
"]. c #DBCD8A",
"[. c #E5C686",
"{. c #F7D885",
"}. c #E5C898",
"|. c #EAD59C",
" X c #F5D696",
".X c #F6EC98",
"XX c #F2E990",
"oX c #D6CBA7",
"OX c #D6D3B2",
"+X c #F4C3A6",
"@X c #F4CBAA",
"#X c #E7D7AA",
"$X c #F2D5AC",
"%X c #E6D7B6",
"&X c #F3D9B1",
"*X c #E8CBB0",
"=X c #DCE8BD",
"-X c #ECE5A9",
";X c #F8E9A8",
":X c #F8F2A7",
">X c #EAE8B6",
",X c #F1E9B8",
"<X c #F4F2BB",
"1X c #ECF4B6",
"2X c #D4EF9C",
"3X c #A6B8C7",
"4X c #83B8E2",
"5X c #88CBD5",
"6X c #9BCBDD",
"7X c #8AD0D4",
"8X c #90D2D3",
"9X c #87C9C5",
"0X c #ADD8D0",
"qX c #87CAE2",
"wX c #8DD4E5",
"eX c #86D1E3",
"rX c #91D5E6",
"tX c #94D5E8",
"yX c #97D9E9",
"uX c #98D9E9",
"iX c #9BD9E7",
"pX c #91CDE7",
"aX c #A5DDEA",
"sX c #ACE1ED",
"dX c #B7E5EF",
"fX c #DEDCC5",
"gX c #E3DEC9",
"hX c #DEEFD7",
"jX c #E7E6CA",
"kX c #EDF3D8",
"lX c #F6F7D9",
"zX c #F7F8D9",
"xX c #F9F4D6",
"cX c #F1EFCF",
"vX c #C7EAF2",
"bX c #D8F1F6",
"nX c #D1EEF4",
"mX c #EEEDE3",
"MX c #F5F3E8",
"NX c #FEFEFD",
"BX c #FAFAF5",
"VX c #F0EEE5",
/* pixels */
"  e e e e e r K r e e e e K r e e e e Y e K ! e e e e e e e e e r r e e e e r K e e e e K r e W H e e e e e e e e e r e e e e e Y r e e e r K e K Q e ",
"  e e r r e r O.X.e e r e e e e e e K :.Q H ! H T r e e e K e e O.O.r r e e e e e e e e ' | H W W t Y e e e r r e r #.K e e e e e e e e e Y ,.W K ! K ",
"  e e r K e e e e e ' U e e e e J K e Y / U [ W / K e e e K e e e r e R ^ K e e e r U e r ^ Q W [ H / e e e r r e r e e K ` J e e e e U r e Y ! J [ J ",
"  e e e e e Y :.T e R :.U e K ! :.Y e e W ! H U U e e e e e e e ` ) r r :./ r e W { :.e e K { U H Q r e e e r e e Y | H r R  .H e J ! >.Y e e Q Q H W ",
"  K r H W e e Y | J K R >.U ! W e e e e e W ! H Y e Y e e ! H e e :.Q K K %.( W ! K e e e e J ! H Q e t K e U J e e ) } H K ) | J ! U e e e e r ! W W ",
". :.~ H ! K e e e J ! e H W ! e H W ) e r e e e e e ' } H ! U e e e r ! U r U ! J e W ^ K K e e e e e R :.U U Q r e e e ~ ( e J Q W e U W R r r e e e ",
"  Y { Q U K U e e e ! W e W U e W U R r r e r _ R e r / ! U H H K e e W ! r U Q r K ! R K r e e W ` e e R [ Q J K U e e K ! J e ! H e ! R Y r e e H ` ",
"  r H [ U e Q r e e J Q e W K H { K e e e r ,.:.t e r e ! ! e U J e e e Q K U U e ! ! e e e e ' 8.Y e e e U [ H e Q e e e J W K Q e U [ K r e e H 8.' ",
"  e e e e e U e e e e e e J K H Y e ` } K ! W e e e e e e e e Y H e e e e e H J e U e R | U J ! t e e e e e e e e W e e e e e e U e J H K :./ K [ J e ",
"  e e e e e e r K e e e e e e e e e K _ U Q r e e e e e e e e e e K e e e e e e e e e r ) ! J U e e e e e e e e e e K r e e e e e e e e e Y _ U ! e e ",
"  e O.r e e e r r e e e e ) W e e e e r t H e e e e e K K e e e e r e e r e Y _ H e e e e H r K e e e e e Y e e e e r e e e e r ' T e e e e K r H e e ",
"  e r r r r e e e K _ ) e Y | W r Q K e e e r K r +.r r e e K e e e K W ` t r ' _ K U U e e e e Y e X.K e r t Y e e e K Y } R e T | U K ( e e e e r K ",
"  e e e ) ' e e W  .` r e e r W Q ` K e r r e e e e e e e r ,.K e K { :.T e e e U W } R r r K e e e e e e e e %.R e e Q  .' e e e K W ! ' e e K e e e ",
"  e e e Y ^ U e W _ t e e e e J ! K r e X.r e e e e e e e r ) U K K _ T e e e e r ! U e e r Y e e e e e e e e R W U e Q ) r e e e e U Q r e e L e e e ",
"  e r ' U e Q r U U r Q _ Y e J U e e e e e Y ) e e e e ' ^ r U J K Q e U / ) e r W e e e e e e ' r e e e Y _ H r W e Q K K Q _ K e W K r e e e e T R ",
"  e e Y ,.>.H e W U } ` e e r e e e e R ) t H W r e e e e :.,.( e K Q W :.H e r r e e e r :.K r W r r e e e R 8. .H e Q U } ) e r r e e e e ' R e J J ",
"  e e e e ) _ J U ! Q e e e Y r e U H H [ J ! r ) K e e e e K | W K Q ! K e e X.r e Y T H W ! W H U ) e e e e e ` / K U [ Q e e r +.e r R K J ! H Q K ",
"  K r e e e U J e H r e e e e e e R ~ W W K J J J e r K e e e H W P a o.s s f s s s o./ U W J J K ! e e K e e e r ~ H e J e e e e e e e R W W U K J Q ",
"  r r r L e e e e e e e e e e e e e r Y e e r r H e r r e X.d y.y.a.k.j.j.v.n.Z.n.Z.Z.a.u.g.= s e H e e r e X.K e e e e e e e e e e e e e r U r e e K ",
"  e e e r e e K W [ K e r e H Q e e r e e K K e e _ a y.s.j.k.N.N.x.x.x.c.A.wXrXwXwXwXwXyXrXA.n.d.u.X.T e e e K e e r Q ! e e e e J W e r r e e K e e ",
"  e T H T ( H ! W K e e ~ Q H [ P r +.e e W [ e P g.l.x.N.N.c.j.j.C.7X8X8X8X8X8X8X8X8X5XZ.n.A.uXyXwXZ.u.a R K [ U H ! W K r e / U U Q r r +.e r Q Q e ",
"  e ) ` E { U ! H e R t R ! H Q W r T ~ e e ( u.k.N.c.x.v.V.0XkXkXkXlXlXzXzXzXzXlXlXzXlXkXkX0XC.A.D.tXyXZ.(.O.R ! J ! K r R e R ! H ! H r ~ R e K [ K ",
"  e r U W Q J Q e ` R e e ` ! J [ [ [ K H u.j.N.c.k.V.0XhXlXzXzXlXlXzXzXxXzXlXxXlXlXlXlXlXlXzXxXhX0XC.S.rXwXV.u.! U W e ` Y e t :.Q W [ ! / r Y e U U ",
"  r r K ! H e K [ ! r e e r W K J K e a s.x.N.v.S.hXlXzXzXzXlXkX%X%XS 4.3.F oXOX*X#X%X*X%XxXxXxXzXzXzXkX7XA.yXwXd.a U ! ! r e e K W e W K r e e e e W ",
"  +.r e e e e e e e e e e e K J e e s s.N.N.z.0XkXzXzXlXcX%XA M Z 1.v zXcX:Xx v =.5 4 x x N W.jXjXcXjXcXkX0XZ.rXyXZ.s e e e e e e H J e e e e e e e e ",
"  e e e e e e e e e e e e K e e e a s.N.N.C.kXzXzXzXcXE.l 4 m G b b {..X.X3.7 XX7 7 ;.v 4.'.VXMXVXVXVXmXfXjXcX7XwXyXC.d e e e e K e e e e e e e K U e ",
"  e e e e e r #.Y e e e e P e e o.s.N.N.V.jXcXzXcXE.Z 3 3 j S R.R.S Z j *.6.-X;X.X*.7.OXmXBXxX{.{.6.xXNXNXmXgXjX9XwXyXC.f e e e r e e e e R | K K Q e ",
"  e e r Y e e e e e K P e e e e y.N.N.C.>X<X,X%Xk 4 A '.$X+XQ.Q.^.^.&X].F 6.cX:X.X{.%XNXBX X*.6.6.6.3. XNXNXBXfX>X9XwXyXy.K H e e e e e e e ) } J [ J ",
"  e e e e e K ) H e ) | H e H g.k.N.l.>X1X#XD F j S >XQ.T.P.P.I././.Y.!.S A .XXXXX4.MXNXxXw -.6.6.6.6.-.MXNXNXmXOXOXZ.yXeX(.| H e K W | K e r Q W W W ",
"  e r K J e r ) | K r ) | H o.s.N.N.0X<X#XF x x #X/.I.P.P.P.P.P.Y.*XQ.B A R.S j 8 b MXNXxXw w -.6.6.6.-.xXNXNXBXoXoX`.A.uXC.#.} H ! Q T r e e H [ U W ",
"X | r H W r e e H Q Q K ( U g.N.N.N.=X>XA 6 z #X@XI.P.P.P.P.P.P.~./.L.B M |.-X[.v 4.MXNXMX-.w w w -.-.w kXNXNXBXoXoXoXZ.uXeXg./ J Q r e e e e e K K e ",
"  ) { T Q K H e e e ! H e ( y.N.N.h.1X#Xl 1.S <X@XY.P.P.P.P.P.I.^.P.L.k 6 Q./.,X}.j '.NXNXxX3.w w w w .XNXNXNXBXM W.OXH.wXuXd.r ! U e ! / ) K r e K T ",
"  e W ! J e Q r e e W W r o.v.B.l.=X1XA 7.R.,X1X$X+X+XP.P.P.P.Y.I.r.% 6 m V Q.^.$XS v jXNXNXMX;X6.{.xXBXNXNXBXfXl M oXoXZ.yXS.d Q K H ! K e e e t ` | ",
"  e e J K e Q r e e e K e o.j.B.x.<X>Xz b E.,XQ.I.U.^.^.P.P.P.P.P.L.4 8 n Q.Q.V R.4.=.1.fXmXNXNXNXNXNXNXBXmXfXOXm l oX#XV.sXA.= Q e W W H ` J r ! ` Y ",
"  e e e e e r e e e e e e d j.B.l.<X}.4 5 #XQ.I.P.P.P.-X&XY.I.L.L.x 8 n !.Y.B C ;.7.7.c S OXfXfXVXVXmXmXgXjXgX[.n F W.%XS.nX5X= r e r r e )  .H ! r e ",
"  e K e e e e r K e e e f o.v.N.l.<X'.m j #XY.I.P.P.P.Q.Q.@XQ.% % V V T.V % C v 3.7 L #.D 1.fXfXgXgXgXgXgX#X1. X;X2.R.<XS.dXD.= R K e e e e U K W e e ",
"  e Y e e e e e e e U R e o.j.c.b.fX].m N -XQ.I.P.P.P.Q.I.T.|.!.C T.P.P.% V m *.7 9 e $.Y &.5.4.%XfX'.=X4.=.*.:X:X2.].=XS.iXS.d ' | H e U e e e e r r ",
"  e e e R T e e J Q :.R e d v.B.N.h.E.x A -X#XY.P.P.P.~.Y.U.}.A |.,X+X!.T.C 7 c u 0 y o.$.y u ;.-X=X-.<.@.&.3.2.6.n R.9XrXsXS.d r ~ W W ` e e e e r r ",
"  e e e R _ H e W :.T e e e a.N.N.N.E.G [.|.,XQ.~.P.P.P.r.B 4 V Q.+X,X,X!.Z ] $.:.i > ( @.! [ y ) $.Y I ).u 2.7 b 4 W.A.dXdXd.P e e W ! Y r e O.r e e ",
"  e P E H e Q e W J r H T r a.N.N.N.3Xz k [.,X+X~.^.Y.% P.k 8 V P.I.L.!.R.v #.@.u > ; } o.0 & & ( q 0 ).$.1.n =.8 % `.A.nXsXd.~ r e W H e e e e e r Y ",
"  e r ' :.Q U r W J W } ^ Y u.v.N.N.z.N 4 S |.>X+XY.V L.k 1 x P.P.L.% V 5 6.-.7 < $.2X#.| : 1X1X$.& * X.9 =.6 2.8 l 9XdXvXpXg.) t e H K e e R t e R W ",
"  e e r R :./ r U ! ! R e r o.j.N.N.x.i.3 b S |.-X$XP.k 8 n P.P.Y.B U.x 1 =.3.;.< 0 , X.I 0 $.@.I I I X.w 7 {.2.l H.aXbXdXS.d e t X.e e e e ~ ! K W K ",
"  r e e e e Q Q e W H e e e f s.N.N.N.N.t.m b A S E.N U.P.P.Y./.Y.P.C [.:X-.] : O.b , I ].&., , & $.~ ! 2 7 8 x F.aXbXnXiXZ.d r e e e r ` Q K W H W W ",
"  K r r r e e e e e e e e e e y.l.N.N.N.x.t.4 F M E.^.T.I.~./.~.B V M cXzX2X0 ).1XE , [ $.i i ) c , ..t m 1 4 G.uXnXbXaXeXu.e e e e e e r H Q K e e J ",
"  e e r K e e e Y W r e e e r X.k.N.N.N.N.N.s.g D Z E.#X$X@X&X$X!.M b 6..X1., | 2X).D < 0 o.).o.i 1.y D 1.h d.tXbXbXdXuXC.s e e e K H e e e e e e e e ",
"  e e e U H r ~ W U e e J H P Q i.c.N.N.N.N.c.j.d.Z 4.M A R.W.A l 8 8 6.cX{.&.q 0 * &.1., [ J q u n m ].H.qXtXvXbXdXuXrXu.r e W K J W e r T e e ! W e ",
"  e :._ R | U ! U e K r ) } J [ W a.c.v.N.N.c.N.N.k.C.i ].:X;X6.*.3.;.{.:X<XXXc > 2 v .X;.] c h Z h F.m.D.eXwXsXdXpXqXd.r K e ' { J [ H r K K e H ! e ",
"  e r ' H Q J ! e Y ' r e / W J Q X.p.q.c.N.N.c.N.N.N.x.j.u.i.S 5 1 7 6.6..X6.n 7 7 .XXX2XD u.F.S.A.yXS.l.b.n.uXpXe.p.f O.) e r _ H W W T } R K e ! U ",
"  r e H ! T P U Q } K e e T ! r Q W o.9.b.b.c.c.c.B.c.B.N.N.B.Z.D.d.- G.G.H.u.G._.H.i.m.Z.D.uXuXyXyXyXD.n.Z.A.6X6Xe.o.Q ) K e e R Q K ! U H e r e r W ",
"  +.r r K r e e K H e e e e H W e e e = 9.# z.c.c.c.B.B.N.N.D.yXyXyX7XwXwXrXtXwX8XrXtXyXyXyXyXuXyXyXuXeXpXeX5X# K.d r r K e e e e U U K e e e e e e r ",
"  e e e e e e e e e e e e e e e e e e r u $ f.v.w.e.c.B.N.B.wXyXyXyXyXuXtXuXiXiXuXuXyXyXyXyXuXuXuXtXyXM.w.pX3X$ d e e e e e e e r e e e e e e e e e e ",
"  e e e e e e +.K e e e e K r e e e r R u s l.b.0.q.c.B.N.B.wXyXyXyXyXuXyXyXtXtXyXyXyXyXyXyXuXuXuXtXrXq.0.4Xm.= e e K r e e e e K e e e e K T r H ! e ",
"  e e r +.e e K r e e e e e e e e e r ' } J o.s.0.0.b.f.# $ eXyXpX4XuXuXyX3XJ.3XyXuXyX4XpXuXuXr.O J.yXw.0.s.o.e e r Y r e e e e e e e e e K %.! H ! H ",
"  e e e r e e e e e %.W e e e e U H e t ! J [ ( y.p.j.$ o # m.wXe.q.4XuXpX% o % 6XuX4Xq.e.uX6X+ o % m.e.t.e K e e e e r H :.J e e e e W K e K / J { U ",
"  e e r r e Y ,./ e Y :.Q r H { | Y e e W ! H J X.a y.t.# O f.Z.e.0.M.tX3X+ o o 3XuXM.0.e.tXJ.O @ t.y.a e e P P e Y :.U e T >.U e U { %.Y e e W [ K W ",
". ^ r H ( e e r ) U U Y _ U ! J e e e e e U J K K r ) X.d F.t.s.e.0.q.pXJ.+ o o J.wXw.0.e.n.i.- d L X.R W e L L e e R ~ W J R _ H ! H e e e e e U J J ",
". :.! J [ H e e e H ! e K W [ e H ! ' r r e r e e r ) | H ! T e i.i.p.a.t.$ - - t.d.p.(.d o.e e e e e Y :.Q U ! r e e e J Q e H Q Q e W ! ) K r e e e ",
"  K ! ! K e W r e e [ W e W H e W U Y e e e K } R e e Q [ H P U H e e J / X.P K r P Q H r e e e Q :.e e Y [ W K K ~ e e H [ J r Q H e Q Y K r r e H :.",
"  e e W J e Q r e e r J e W H J ! H T H e J ,.) e e e e J Q r U U e e e J K J U r ! U Y Y r K ` %.r e e e K Q K r Q e e e K J K Q e W Q K R K e T ,.R ",
"  e e e e e J r e e e e e H e K H e ' | K ! T e e e e e e e e K H e e e e e K H e H e R | U J ! K e e e e e e e e J e e e e e e J e H K K ` } K ! U e ",
"  e e e e e e r r e e e e e e e e e r / T Q r e e e e e e e e e e K e e e e e e e e e e R ! Y U e e e e e e e e e e K r e e e e e e e e e t / U ! e e ",
"  e Y e e e e e e e H K e / _ K e K e e r r r r e r e K K e e e e H e e K e Y | U e r r e K e e e e e r r +.e e e e r e e K K e ' / K e r e t e r r e ",
"  e r e Y t e e K U | ) e H ` W K _ K e e e e K e O.r e e e Y e e e H / ` Y r R _ H / ~ e e e e X.e K Y e e e E r e e H W | R e r ` W J _ e e e e r r ",
"  e e e ) _ r e U >.) e e e e W / ) r e L r e e e e e e e K ,.Y e K { :.Y e e e J Q _ T e e Y e e e e e e e e :.^ e e Q >.) e e e K W [ ) e e X.r e e ",
"  e e e Y T W e W / e e e e e U ( r e e K r e e e e e e e r R U H K ! H e e e e r ! H e e e H e e e e e e r e Y U U e Q R e e e e e W U r e e K r e e ",
"  e r :.^ H W r W J H { | R e H U e e e r e Y ` e e e e ` | Y U H K W K ! { ' e r W e e e K e e %.r e e e Y ,.~ H W e ! K U { :.K e T K e e r r e R ^ ",
"  e e Y :.>.T r W W { ) e e K e e r e R _ r J U Y r e e e ` :._ H K ! Q ` t e K r e e e r :.H K ~ K Y e e e R %.| U e W W } ^ e e K e e e e ) ~ e W H ",
"  e e e e R [ J H ! W r e e Y e e R T K ! J ! K ) K e e e e H _ Q K W ! H e e K r e Y ^ K W Q Q J T R e e e e e ) [ J J ! U e e r Y e e ) U H ! H Q H ",
"  K e e e e H H e H e e e e e e e T T Q U r H U U e r K e r e K U e r K e e e e e e K R ~ Q K K K ! e e Y e e e e J K e K e e e e e e r T U Q U e H Q ",
"  e e K O.e e e e K e e e e e K e e e e e e e e e r r e e O.r e e e K e e e e e r e e e e e e e e e K e e e +.K e e e r K e e e e r r e e e e e e e e ",
"  e e e K r e H W ! r e K K K Q e r K e e H H e e _ r e e e K e H K ! U e e K r ( K e r r e r J e e ~ R e r e K r r K Q Q e e K e J ~ r r r e e J H e ",
"  e ) T ~ / Y ! W K e e ^ Q Y ! K e +.e e U ! e J ) t Y ^ K } J Q W U e e K _ H Q U e K r e K ! H K ^ Y e ) J ' W H ! W r e e _ ~ J ( r r Y e e W Q e ",
"  e Y %.r / U Q r e ` r K Q K U W r / ' e K ! W Q K e r :.Y U W Q H e ) R e T W K Q r U :.r e W ! H W e r R ' K ! J Q e Y ` e H ! K W H K } ) e K [ J ",
"  e e H Q W H Q K %.Y e e ' { H [ [ ! e K r K Q Q K e e e ! U T W H T _ e e R  .W Q [ ! K e L e W J W e e r U W Q H W K ` K e t | ( U { [ W e Y e H U ",
"  K r K ( H e K Q Q r e e e W H J K e e e e e H ! K e K e W W e e W Q J e e e Y J H T r e e e e e Q Q e K r H Q K e H Q W e e e r W K U r e e e e e U "
};
