/* XPM */
static char *dc31e3d643904c0eb65c8bcc5f97b0abkWlZSP4L5LmOzd1l[] = {
/* columns rows colors chars-per-pixel */
"75 75 252 2 ",
"   c #F70A0F",
".  c #CA2B3A",
"X  c #E92B31",
"o  c #DA7C34",
"O  c #DD7D27",
"+  c #BB3B49",
"@  c #C53449",
"#  c #987173",
"$  c #AC5F6D",
"%  c #F77D7B",
"&  c #E87B75",
"*  c #D4535B",
"=  c #7BB636",
"-  c #79D435",
";  c #78B578",
":  c #7BAB77",
">  c #7DC47F",
",  c #7AC652",
"<  c #B19A2B",
"1  c #98B535",
"2  c #B5B236",
"3  c #F88D1C",
"4  c #F1A91A",
"5  c #D38C34",
"6  c #E88C30",
"7  c #EFAC30",
"8  c #CD9E22",
"9  c #89C73C",
"0  c #8DD033",
"q  c #A1C33B",
"w  c #84CD1F",
"e  c #F9CA2D",
"r  c #8EB457",
"t  c #8EB65A",
"y  c #91B657",
"u  c #94BA57",
"i  c #99BD54",
"p  c #93B658",
"a  c #95BA58",
"s  c #99BE59",
"d  c #96BA49",
"f  c #B5B346",
"g  c #89B968",
"h  c #85B976",
"j  c #84AA6D",
"k  c #B0A869",
"l  c #D59353",
"z  c #EA974B",
"x  c #D4B251",
"c  c #E9B847",
"v  c #E3A85A",
"b  c #F9BB58",
"n  c #EDAE4D",
"m  c #D59D6B",
"M  c #F8847C",
"N  c #EC9170",
"B  c #D7A573",
"V  c #DBB77A",
"C  c #D2B169",
"Z  c #E3B766",
"A  c #E7B06E",
"S  c #96C057",
"D  c #9BC457",
"F  c #9ECA57",
"G  c #9CC25A",
"H  c #9BC957",
"J  c #8FCB4E",
"K  c #A5C74C",
"L  c #ABD54F",
"P  c #A1CD56",
"I  c #A3C55A",
"U  c #A4CB59",
"Y  c #ABCC5B",
"T  c #A3C553",
"R  c #B0CF5C",
"E  c #A5D356",
"W  c #A9D556",
"Q  c #A7D956",
"!  c #AADB56",
"~  c #A7D158",
"^  c #ACD359",
"/  c #AEDA58",
"(  c #A5DD5C",
")  c #B0DE56",
"_  c #B4D45C",
"`  c #B3DB5A",
"'  c #BBDB5D",
"]  c #B6D65A",
"[  c #B7C140",
"{  c #B3E44F",
"}  c #AEE255",
"|  c #ADE854",
" . c #B1E456",
".. c #B5E259",
"X. c #BBE35A",
"o. c #BDE959",
"O. c #B6E955",
"+. c #8DC666",
"@. c #94C863",
"#. c #99D96A",
"$. c #86C578",
"%. c #96CA72",
"&. c #A3CA61",
"*. c #A2C860",
"=. c #AAD569",
"-. c #ADD36D",
";. c #B9E768",
":. c #ADE371",
">. c #CFC955",
",. c #EAC95C",
"<. c #F8CD56",
"1. c #F6CB4C",
"2. c #C3E45D",
"3. c #C4EA5C",
"4. c #CAEB5D",
"5. c #C6E45A",
"6. c #D2EF5F",
"7. c #CAF15B",
"8. c #EAC668",
"9. c #F8D666",
"0. c #FADA75",
"q. c #EDCA72",
"w. c #CFEA60",
"e. c #FBE579",
"r. c #C4D07D",
"t. c #3637CA",
"y. c #3753C8",
"u. c #4752CD",
"i. c #5075D3",
"p. c #8B7D91",
"a. c #BF7E8A",
"s. c #FC7E85",
"d. c #5CB19C",
"f. c #76B784",
"g. c #67B799",
"h. c #6FB18E",
"j. c #498BB5",
"k. c #59B3AF",
"l. c #6EB6AF",
"z. c #699693",
"x. c #78C690",
"c. c #6FC5B1",
"v. c #5FC1AE",
"b. c #3DB8D9",
"n. c #3CBBE1",
"m. c #3A84CF",
"M. c #4699DC",
"N. c #4B89C8",
"B. c #4AB7C8",
"V. c #43BCDB",
"C. c #48BAD5",
"Z. c #55B8D0",
"A. c #79B9C3",
"S. c #6DB7CF",
"D. c #46BEE1",
"F. c #5EA0E7",
"G. c #7BAEE3",
"H. c #6592DE",
"J. c #4EC3DB",
"K. c #51C1DA",
"L. c #55C6D6",
"P. c #6AC1C8",
"I. c #77C3C5",
"U. c #79C9D8",
"Y. c #69C6D8",
"T. c #45C2E2",
"R. c #51C9E6",
"E. c #7CCDE3",
"W. c #7CD2E8",
"Q. c #7ED7F3",
"!. c #89958F",
"~. c #88AC94",
"^. c #A2AE88",
"/. c #8CBAB2",
"(. c #A5A3B8",
"). c #A596AB",
"_. c #FD8486",
"`. c #FC8689",
"'. c #FC8A8A",
"]. c #F78587",
"[. c #FC8992",
"{. c #FA9694",
"}. c #F09388",
"|. c #D9B987",
" X c #D6B792",
".X c #E1B889",
"XX c #F8A69C",
"oX c #EDB394",
"OX c #F9A9A4",
"+X c #F8B4A8",
"@X c #C899A0",
"#X c #ACC99A",
"$X c #B4E78B",
"%X c #92C8BB",
"&X c #B8D8BB",
"*X c #8ACF8D",
"=X c #DCC898",
"-X c #DCCF8B",
";X c #E3C88C",
":X c #E5CC96",
">X c #F9DC94",
",X c #F0D68B",
"<X c #F9EB98",
"1X c #F8E787",
"2X c #D3CEAD",
"3X c #E9C9A4",
"4X c #F3C9A9",
"5X c #E7D5A8",
"6X c #F3D9AE",
"7X c #EFD8B7",
"8X c #D5ECB5",
"9X c #E7E7B7",
"0X c #F4EAB8",
"qX c #FBF8BC",
"wX c #F2F0AC",
"eX c #C2F09D",
"rX c #97B8CF",
"tX c #96D1C8",
"yX c #84CAD3",
"uX c #95CFD5",
"iX c #A5D6D7",
"pX c #ABD3D0",
"aX c #BEE2D2",
"sX c #88CBE6",
"dX c #89D3EA",
"fX c #95DBEC",
"gX c #9ADBEA",
"hX c #97D7E6",
"jX c #99DDF2",
"kX c #8AD3EF",
"lX c #A3DCE9",
"zX c #97E4F1",
"xX c #B1E3F0",
"cX c #DDDDCA",
"vX c #E5DDC3",
"bX c #C9E4D1",
"nX c #DDE5CF",
"mX c #E5E3CA",
"MX c #F4EBC9",
"NX c #E9E7D5",
"BX c #F5F6D6",
"VX c #FEFDDC",
"CX c #F9F8D9",
"ZX c #F8F4CA",
"AX c #C7EBF3",
"SX c #DAF2F6",
"DX c #EDEDE4",
"FX c #FBFEE3",
"GX c #F5F4E9",
"HX c #FDFEFE",
"JX c #FCFCF6",
"KX c #E2F5F7",
/* pixels */
"a a u u a s I G p a a a G G a a a s Y u s Q u u u u a a a a a G *.p a s u s G a a a a I H p E F y y u u a a a a s @.s a s a a I a a D p G P y F E p y ",
"a a G G u a &.*.a p p a a a a a a s 5.) D ! D U G p u s @.s a I &.a a p a a a a a a a ] 3.s E E G Y u a a G G u s =.s a p a a a a a u u I 4.E D ! D Y ",
"a a s @.u a u p a ' E p a a p P D p s ..F } E _ U u a a G s a a a y Y ` a a s p D P p u _ E E  .U ` p s u G G u a a p s ' F a a a a P s y I ..F  .E ' ",
"a a a i a s 2.W p Y 4.E a G ! o.Y u a P } F P E u p u s u s p ] X.s s 2...s a W  .' u a S } E F W s u p a a a u I 5.P p _ 3.F a F ! 2.I a p Q ! D E F ",
"I p F E p u Y X.F a Y 3.D ! Q s p p s a E E P P p Y S u Q a a s 2.W D s 2.Q P } D a p u u I Q F E u I F p P F p a _ ..F a _ o.G } U a p a a s Q F E F ",
"4.^ D } D p a p E } p D E ! a D E R s s a p p a a 2.X.a ! E p a y s } F u P ! F a F _ I G a a p y u ^ 4.F U ! a p a u Q Q p F E Q p F W Y s s a u y p ",
"I ..E P D P s u u ! E p Q E p E Q Y G s a s ` Y y a ' } P F F F a p P } p F ! u D ! Y G s a p ^ ' a p Y  .E P D P a a a } F u ! F p ! W Y a s u D ' F ",
"y D } F p ! s u u F Q p Q a F  .D s u p s 4.2.s a u u Q Q y E P a a s Q s P E a } E a S u u ` 6.I a s y F } s D ! a a a E E a ! p E } a s a p P 6.' a ",
"a a s a a E a p a a a a P s F P a 2...s Q ! a a a a a a s p P P p a a a a F P a E a R 4.F F  .G a a a a u s s s E a a a a a s E a E D s 4.Q a } E a a ",
"a u a a a a G G u a u a p a a u u s X.P W s a a a a a a a a p a G s a a a a p p a a p ] ! P P p a a s a u a u a a s s a a a a p p a a u I o.F W a a a ",
"u &.s a a a s G a u s a ] / u a a p a G F s u a s a G I u u a a G a a s a I X.D a a a u D G G a a a a s &.a u a a s s p a s a ' E p a a p s D F a a a ",
"a G a s a a a a S ..' y I 4.W p / D u u p s G a &.s s s s s u u a a E 5.s a ' o.u U E p a p a I s G I a s u s p a a a H o._ p Y 4.F s / a a p p G F a ",
"a s y ' ' p a F 3.2.s u p G E Q 2.s u G s a s a a a a a I 4.G p S  .3.Y p a a ~ E O.Y p G G a a a s a a a p 2._ y u Q 7.] a a p F P ! 2.a a G a a a a ",
"a a y I / P a E X.a y u a p F } s u u I G u u a a a a a a _ E G a O.Y r p a a a } F a a s @.a p a a a a a p Y / F u Q ` p a a s p E Q a a a *.s p a a ",
"u s ' P p W u P F u E X.I r P P p a a a p I ] t a a p ] ` p P P G E y E ) ] p s W a a a s p a ] G u G u I X.D u Q a W a G ! ' G y E F a a s a p Y Y p ",
"a u Y 6.o.P p E E ) 2.G G G a s p r _ ` t P ^ s G a a G 2.4.Q u G Q E 3.U s s s S a p s 2.s s ) s G a a a ] w.X.D p Q P o.] G s s s a y t ' ^ p W U G ",
"a u a p ] O.F F  .Q a p a U a a Y P s  .P Q a ` I p u a a I o.E s !  .G p u @.G y D ^ u Q E E H Y _ u u a a a '  .G U | E p a s *.u s ^ D F } P E a ' ",
"G s a p p F U p F s u s a a a a ^ W E ~ G D E E p s G u a p s ~ s s G p a s a a u I _ E E D F H Q u a G a a a a E F a F a a a a u a s _ E P P G D W F ",
"s s G *.a p p a a a a u a a a a p p P s p p s G u s s u &.s a p u a a a a a p a a a p G F a u p H a a G a I G p p p S a s a a a a a a r s P s p p G D ",
"a p a G a a S U } s a S a G E a a G p a D D a y ! G y y s S a D D { L d i T i W K i D s a s D u p ~ U p p a G u a a Q ! a a S p P P y s s p a F D u y ",
"a Y D ^ / G ! E F p y _ ^ D } s s @.u a E ! a D ' a I Y F o.S @.H $.d.g.g.x.g.x.g.h.g g g K  .D p _ Y u ^ a ` ^ F ! ~ s p a ..U P ! a G @.u a Q E p F ",
"a ] X.I O.F ! D p _ a I ..D E E p W _ p a } F E H p T ;.h x.v.C.C.b.n.b.R.dXdXW.kXW.U.U.c.g.*XS T Q p a 2.` I  .F ! a s _ p Y } s ! F u ] Y y G  .D ! ",
"u y ^ F E F E a ' _ u y ' ! D } ! ..I G G F E W L t h.B.V.n.b.b.b.P.P.P.U.yXyXU.yXyXsXU.E.fXsXU.x.@.d s p ^ F P U E a 2.Y a a 5.E F } Q ) I G s E E W ",
"G a a } F u F ! } a u s G Q D E P u u a a u T ( h.B.b.b.b.P.tXbXbXBXVXFXVXBXBXBXBXBXbXaXpXU.U.dXkXU.g.g i F ! F a F ! ! p a a F E D E F u y s a p P  .",
"*.s a a a a a s a a a a u s P a a a a a s i ; B.D.b.P.uXbXBXVXVXFXFXMXZXMXFXFXCXFXFXFXFXVXCXbXpXyXE.fXU.h.y i a a a a a a a a p F I y u a s a a a a U ",
"a a a a a a a a a a a a G s p a a a u s s k.V.V.C.pXBXCXVXGXNXmX=X XV >X0. X X=X X X XmXMXBXVXVXBXaXU.dXdXl.g i a a a a s a a I a u u u a u y D P p u ",
"a a s s a a =.F u p a a D a a a a G 5.F k.T.C.yXnXVXVXFX7X Xm z Z 7 <XVX1Xz x 7 8 3 z l  XcXnXcXmXMXnXtXdXzXI.g F =.G u p a a G s u a u Y 2.H D Q a s ",
"a a G *.a a a a a U G a a a u a a p ^ c.V.J.%XZXVXDX9XB o 3 v V C V Z 9.0.,.<X<.1.q.,XNXJXMXMXNXHXNXNXMXaXU.gXI.g a a s U a a u u p s a a ] ..G O.F 2.",
"a a p a a s _ D a ' 3.a a a F ..U a d.T.C.tXqXMXmXm l B V ;XoX3X3X5X|.x 9.FXqXwXq.mXHXGX0.<.9.<.>XHXHXDX0XpXU.gXI.^ s a 5...a p G E o.G a p Q E E E E ",
"a a G P a a ' o.D p ' o.a Q } Y T ; B.J.yXqX0X|.v 6 V 7X+X{._.{.+XXX+XV V <Xe.e.:XJXHX<.e e.0.e.<.MXHXHXmX6X%XdXdX*XX.a s 5...S ! ! Y a a u F  .D E F ",
"X.G F ! a p a I E E a W E ! D u s k.T.Z.9X9XV z v 9X+X].s._.`._.OX4Xs.}.B |.x 7 ;XHXJX1.e e.e.e.9.>XHXHXDX2X2X/.fXU.+.! E a / U Q a p G G a a D G u a ",
"' O.F Q F s a a s } F p Q Q p W x.V.V.yXqX|.7 5 7XOX% _.`.`.`._.+XOX& N -XqX|.7 ;XJXJX1Xe e 1.<.e >XHXHXDX2X5X/.E.fXg.D } u a } E p Q ..] s G y u U s ",
"p E } F a ! s a a E Q p Q D s ) v.b.Z.8X0XB Z ;XqX4XXXM `.`.`.{.OXs.& 6 N +X0X:X5 NXHXHX,Xe e 7 0.JXHXHXGXm  X2XS.jXI.t } E u Q a F } s p a u a 2.5.G ",
"a a F D p ! s a a a F a Q G T #.C.J.I.ZX|.n |.9X6XXX4X+Xs.`.`.'.].s.z 4 }.OXXX5XZ q.GXHXHXFX0XMXHXHXHXNX2X6 B 2X/.dXU.; i D a ! a E E s X.F u ! 2.s u ",
"a u a a a G a s a a a a a a i g C.b.c.ZXB 6 :X6X]._._.4X4X'._._.].l 3 <.}.}.& A e.c V cXNXDXHXHXJXGXNXnX;Xb C =XtXlXdX; i u a a a a a a _ 3.D } a a a ",
"a G a a a u s G a p p a U F p g B.V.I.0Xm 7 -XOX_.'.`.{.4X4X}.M N z N [.M M v 9.,.-.f q.cXcXcXvXcXcXcX:X,X,Xv 5XtXxXgX; i y S Y H p a p p U F P a a a ",
"a *.s p u a a p p P _ y _ 3.T h C.V.I.0Xv l 5X+X].'.`.{.[.}.3X}.M `.s.% M m 1.7 < -.H ,.,X-XmXvX7X5X,.c qXwXZ 6XtXfXW.; L Y p ' o.D a F a a a a G G u ",
"a a p ^ ^ u a F ) 4.Y a p ^ ! @.B.J.C.&Xz m 5X6X'.'.s.{.OXM ;X.X5X6X4X}.N 7 x 1 1 %.( s f <.8X-X9.%.>.<.9.9.z 2XU.xXU.%.6.T a p ` P E 5.a a a a s s a ",
"a u t _ 3.S p P 4.U y p u y F { g.D.b.c.v V :X6XXXOX`.`.% ].6 M XX4X0X9Xm T ;.;.< 1 $XJ E 1 ' =.J $XD ,.<.7 z %XdXAXc.2.G y p a u E } I a a &.s u u a ",
"a s ^ a p ! a E P y F Y G y P W d.R.C.L.|.6 |.0X4XXX{.% s.l 7 M _.M _..Xc >.-.< f =.:.0 S g Q w #.r.>.b n 6 B yXAXxXc.s u F Y G p E P p a u a p G I a ",
"a s ' 4.^ U p E F E o.^ I p H T ; V.K.J.l.O v :X9X6XXX% l 4 N _.'.M & O <.0.7 q :.=.;.9 eX8X#.0 J 2 7 ,.9.6 ~.gXKXkXx.K  .X.^ G p F G u y Y I p ^ ^ y ",
"a u a Y 3.) p U  .! Y r a &.a u g C.K.C.D.z.n A |.5X.X& z M [.OX{.% N Z c >.[ K < = %.2 9 = - ..:.[ 7 ,.n !.dXKXAXE.$.{ } I r s *.a u s u _ ! D E a ' ",
"s s a p s } Q p Q F u s s s s p ' l.V.K.J.T.!.3 v m .X{.'.{.+X+XM & ;XFXwX0 $XwX< 0 $Xr.x >.f J } f 3 3 ^.hXSXAXfXI.a Q s p a s s a s ' E D Q P P E P ",
"G s s G p a a a p u a a a a a a i h C.J.C.J.b.l.C Z .X6X4X4X4X+XB m 0.<X,X0 :.8X%.2 0 J $X+.C x 1 q.l !.hXKXSXxXW.f.i r a a a a a a a a D Q D a p P G ",
"a p G G a a p F Q s a a p G F a u s k.J.L.J.K.T.b.~.C A V :X=X|.Z 7 c qX>Xc 0 0 d 0.2 J ( 0 x n A #XU.kXAXKXxXzXP.t P E a a p a F F p a a a a a a a a ",
"a G p P U S U E Q p p U F H ! a a U a k.M.J.C.K.K.V.L.g.-.-X1Xb 7 <.0.wXqX<X8 8 4 <Xe.>.x l k ~.l.E.E.E.lXzXG.S.@.P Q U a a E G P E p G *.u a Q P a s ",
"a ' / Y o.D } E p I p _ O.a / U p F T ; y.M.R.J.K.K.D.D.b.k.k.^.k 5 c 8.,Xq.,.c q.=X#X#Xl.A.U.dXfXB.B.Z.kXG.y.; K  .G p I p ' ! D } G p P s p P ! a Q ",
"a s ' D E P E t Y ' a a ..U F ! P O.^ K ~.j.p.K.K.K.R.Z.D.D.R.W.sXI.l.l.I.I.I.Y.A.A.W.W.fXzXfXgXhXY.dXE.@X(.g.! E E p _ ] p s o.H E W P o.Y a G } P W ",
"s p D  .P s P E o.D a a R ) a } Q F p s D h @ !.D.N.D.D.J.V.dXlXgXgXjXgXjXfXfXfXgXjXgXgXhXhXhXgXsXH.sX(.. j  .I s E W o.a a a _ W D } E F p G a s E } ",
"&.G u F s a s P D a a a y F P a a p s u a a j k.M.t.i.R.T.T.dXgXgXgXgXhXhXzXfXfXhXgXgXhXgXfXzXzXG.t.F.uX: H I a u s F S a a a y P P a u a a u a p D ! ",
"s a a a a a p p u a a a s a D u a a u a a D i ; j.t.i.J.$ # Q.gXsXsXhXfXhX).iXjXhXsXsXhXzX@X* iXG.t.N.*Xu a a a u u y a a a a G s s u a a p a a G a s ",
"a a a u a a &.@.u a a a G s a u a s / a s Q a i , z.i.Z.    A.kXu.u.lXgXa.  * gXxXi.y.sXuXX   (.M.j.g d a a u a s &.G u a a a G a u s u I ^ u F E p u ",
"a u G @.a a Y G p a a u a a a a a s 2.X.s } P Y @.D g g.# + p.R.u.u.uXzX@   X lXhXu.t.kX(.+ # f.h 2.y a u G G u a *.s a a a a a s u a u I 3./ H } D ] ",
"s a s s a s s u a 2./ y a a a W F u p ` P ! Q W P a i s +.; : l.N.y.H.uX@ . @ (.F.y.i.l.; $.#.{ T L u s s s s u s s p G 5.E p a a s ^ D p G / F } P ` ",
"p u s s a s 5.) a s 4.` a P } X.U a p F } F P E p p p a D D i ] o.$.z.; %.; : $.f.$.+.y D  .W G ! a p p u s s u I 4.W y Y 4.E a E ! X.G a p E } D E F ",
"^ u F E a p I ] E F s o.F ! U p a p a p U E G F s _ H p } a u u _ W L D X.! E } F d y u p G E H U p Y ^ p E P y u Y ` P G *.O.H ! F p p p a a E F F D ",
"3.` D } D a a p F ! u a Q ! u F ! ' s G p p a a a ' 3.D Q E p a y a } F t U } H a E ' U G a p p a p Y 4.P P } a a p u E ! y D Q W y P ) _ s G p p u a ",
"s } Q F G E a a a ! W p Q P p W E s s s a I 2.Y y y ^  .P s P P p u F } a F Q p F } G a s a s ` ' a y I  .Q D D E a a a } E a ! G u ! P s s s a U 2.I ",
"p s Q P y ! s a a D ^ p Q D F  .G I S p F 4.] a a a p E Q p E P p S a E a F E p } P I P p S X.4.s a s p F Q G a ! a a a F P a ! p E } s Y a p ~ 6.Y a ",
"a a a a a P s a a a u u P a D F p 2.o.S Q E a a a a a a a a F D p a a a a G F a F p Y 4.U F } p u s a a a a a s F a a a a a a F a F D s 5.` S } F u a ",
"a s a s a u s G u u a a u a p a a p ) E E s a a u a s a a s a a G a a a a a a a u a p U ! U U p a a a a a a s a p G G u a u u u a u a u a  .P E u a a ",
"a &.s u a u s a a a I p ] X.s a a p a s D s s a s a @.I p a a a s a a I a U 3.P a a S a S s s s a s s s &.a a a a s a p G G a 2.! a a a a u G a s s a ",
"a a a I G u a D H o.] a s 2.Q a o.G a p y s I u &.s a a s I a a s H / 5.s p R o.u W _ p a p a G s G G a s a I s a a D P 3.R y I 3.F G X.a a y u G G u ",
"a a p ] 2.u p P 7.] a u u a P } ' s p I G u a a a a a a G 6.F p s O.4.s a a p F E o.U p @.F a a a a a a a p 5.` p a Q 7.R p a p s E  .] a a *.s a a a ",
"a s a G P Q a E ) p u s s p P Q p u u s s a a a a a a s s I E F s  .s y s s a a } G p a s G a s a s a a s a I U E y W ^ y a s s p E E y a u G s a a s ",
"a s 5._ a E a E H G  .' Y y P U p s s s p P ' t u s y ] o.s P F D E p ) ..] p s ~ s a a s u u ' G p u u I 3.P D ^ p Q a P  .X.G p P F a a G a r Y _ r ",
"a a I 2.3.E p P E  .' a u @.a a u r _ ' u P U I G u u s ' 4.) p D Q Q 2.I u G s a a u s 2.D D E D Y u u p Y 5.5.F y Q E X._ y s I a a t r ' _ u E F Y ",
"a a a y Y O.F G } E y a u I s a _ E i } P Q D ` I p a a y s X.! s Q } a y u G G u U ` a E E E F Y Y u u a p p ]  .F P  .F y u a I p s ' F S } P W D ` ",
"G s a s u D F p s a a a u u a a I P W P s s P P p G G u a a s P u a s p a s u u p G Y E E S a F Q p a G a a G u F D p s a a a a p a a Y E Q F a s E D ",
"a a G *.u p p s D a a a u s s u y u I a y y a s a a s s &.a a p u F D a a p u G s u p G G p p u S s S a a *.G u p p s D a a a a s S a p u G a y p s s ",
"a p y D s a D P } s u G u G E a s @.i a P F a a ..G y p a D p F G } P p s D p Q D a G s p G P G p ^ / p p a H p s D Q Q a a H p U E p G G u s P H p a ",
"a ' F _ ..D } E a a y ` ) D } F a G a a P } p F _ u U ` D 3.D ^ Q F p u D 3.D Q E p G s u D } D a ^ I a ' S ' / F  .P u a p X.^ H } a s I u a E Q p E ",
"p ^ X.s ) F ! a s ' s s ..G E E a / ] a a } P E F y G 5.I Y E E U t _ Y p _ E D } a E ' s a E ! F E p a ' ` s ! U Q y I ] p I  .a ! P a ..^ p G } F Q ",
"a p U W P F ~ D X.Y a p ] ) G } ! ! G G s F E W F p p s Q E P E H / ] a p P o.D W } ! P s G a ~ Q ~ a p p ~ Q U F E F 2.I a a 2.E F } } W s G s P ~ ! ",
"G s s Q F p G ! E s a a a E F P F p p a a a D } D a G p E E a u E ! F p a a P U G U a a a a a a ! Q p G a H ! G p F Q E a a u s E S F G a a a a a F } "
};
