/* XPM */
static char *_6edc373ce7549e2b3da1254bddb144acdIQCqUJcadBY3I6[] = {
/* columns rows colors chars-per-pixel */
"75 75 233 2 ",
"   c #010102",
".  c #02010B",
"X  c #040114",
"o  c #07021C",
"O  c #08021E",
"+  c #0A0223",
"@  c #0C032B",
"#  c #0E0334",
"$  c #0F043B",
"%  c #12043D",
"&  c #120337",
"*  c #10032F",
"=  c #130443",
"-  c #15054C",
";  c #1A054C",
":  c #190543",
">  c #1B0653",
",  c #1B065C",
"<  c #160656",
"1  c #24075C",
"2  c #260659",
"3  c #22064E",
"4  c #1B0763",
"5  c #1C086C",
"6  c #1B0766",
"7  c #1D0973",
"8  c #1C0A7B",
"9  c #230762",
"0  c #24086C",
"q  c #290867",
"w  c #34086D",
"e  c #240973",
"r  c #2B0974",
"t  c #230A7B",
"y  c #2C0A7B",
"u  c #360A7A",
"i  c #647C7E",
"p  c #6B7D7D",
"a  c #787D7D",
"s  c #5F797D",
"d  c #430B79",
"f  c #847C7E",
"g  c #7D9B6B",
"h  c #79966C",
"j  c #6C8778",
"k  c #738C73",
"l  c #7C8D73",
"z  c #78867A",
"x  c #7D9373",
"c  c #779577",
"v  c #718E6F",
"b  c #7FA26F",
"n  c #8DAD5E",
"m  c #86A75F",
"M  c #91AE5E",
"N  c #8EB25C",
"B  c #8EB457",
"V  c #91B657",
"C  c #94BA57",
"Z  c #98BF57",
"A  c #92B55A",
"S  c #95BA58",
"D  c #99BE59",
"F  c #A0BE5F",
"G  c #84956D",
"H  c #849C6A",
"J  c #8C9C6A",
"K  c #889A69",
"L  c #838C73",
"P  c #888879",
"I  c #889675",
"U  c #969B78",
"Y  c #939772",
"T  c #A29B7D",
"R  c #84A464",
"E  c #8BA365",
"W  c #87A962",
"Q  c #8CAB62",
"!  c #8CA36B",
"~  c #8BAB6C",
"^  c #83A46A",
"/  c #92AB63",
"(  c #93A46C",
")  c #95AA68",
"_  c #8DB365",
"`  c #94B562",
"'  c #9CBB64",
"]  c #97B767",
"[  c #86A574",
"{  c #98A574",
"}  c #9FB177",
"|  c #A6BC68",
" . c #A7B571",
".. c #A6AB73",
"X. c #9BC457",
"o. c #9EC957",
"O. c #9CC35B",
"+. c #9ECA5B",
"@. c #97C15B",
"#. c #A1CD57",
"$. c #A2C45B",
"%. c #A3CB5A",
"&. c #ACCC5B",
"*. c #A5D356",
"=. c #AADB56",
"-. c #A5D35A",
";. c #ABD45A",
":. c #ADDA59",
">. c #A8D757",
",. c #B3D35C",
"<. c #B4DB5A",
"1. c #BBDC5D",
"2. c #B8D75D",
"3. c #AEE255",
"4. c #B1E456",
"5. c #BBE35A",
"6. c #B5E558",
"7. c #9CC362",
"8. c #98C363",
"9. c #A6C864",
"0. c #B9D962",
"q. c #B0CC66",
"w. c #C3E45D",
"e. c #C6EA5C",
"r. c #CCF15D",
"t. c #C9E063",
"y. c #1E0B87",
"u. c #1F0D97",
"i. c #2B0B82",
"p. c #260C88",
"a. c #360C88",
"s. c #270D95",
"d. c #380D96",
"f. c #27109D",
"g. c #38109C",
"h. c #1D10A9",
"j. c #1F10A8",
"k. c #3C0FA2",
"l. c #2911A8",
"z. c #3912A9",
"x. c #2814B8",
"c. c #3713B8",
"v. c #2A0FA6",
"b. c #2A29BD",
"n. c #372ABC",
"m. c #3935B4",
"M. c #3337B2",
"N. c #470C8A",
"B. c #460D95",
"V. c #530E99",
"C. c #44109A",
"Z. c #511098",
"A. c #610F9E",
"S. c #4811A8",
"D. c #5611A7",
"F. c #4814B7",
"G. c #5C14BB",
"H. c #5814B6",
"J. c #500FA1",
"K. c #6513AB",
"L. c #6715BA",
"P. c #7514B9",
"I. c #620FA0",
"U. c #483CAE",
"Y. c #573EAD",
"T. c #472CBC",
"R. c #5A2ABC",
"E. c #4838B6",
"W. c #5836B4",
"Q. c #673DAD",
"!. c #7A3DAC",
"~. c #682BBC",
"^. c #782BBC",
"/. c #6835B5",
"(. c #7634B6",
"). c #3C47A9",
"_. c #3A40B0",
"`. c #44549C",
"'. c #4B5998",
"]. c #585998",
"[. c #534E9D",
"{. c #685798",
"}. c #785999",
"|. c #724E9F",
" X c #58688C",
".X c #5D7384",
"XX c #576594",
"oX c #516592",
"OX c #67698C",
"+X c #79698B",
"@X c #6B7384",
"#X c #637A81",
"$X c #6C7C82",
"%X c #657486",
"&X c #777784",
"*X c #676594",
"=X c #776595",
"-X c #6D7493",
";X c #4647A7",
":X c #5949A5",
">X c #4855A2",
",X c #534FA9",
"<X c #6747A7",
"1X c #7748A7",
"2X c #7854A2",
"3X c #6D4BA8",
"4X c #281AC5",
"5X c #361AC5",
"6X c #2922C2",
"7X c #3624C3",
"8X c #1E17C9",
"9X c #4719C5",
"0X c #5C1CC6",
"qX c #5718C5",
"wX c #6818C5",
"eX c #761AC6",
"rX c #4823C3",
"tX c #5826C2",
"yX c #6824C4",
"uX c #7625C3",
"iX c #6132C0",
"pX c #8435B5",
"aX c #85549A",
"sX c #847784",
"dX c #866B90",
"fX c #8347AA",
"gX c #831AC7",
"hX c #8524C5",
"jX c #6C8384",
"kX c #798685",
"lX c #8A8583",
"zX c #929483",
"xX c #A09284",
/* pixels */
"S S C C C D $.O.S S S S O.@.S D C O.$.V X.>.V C C S S S Z S Z O.O.S S S S O.O.S S S S &.Z V >.X.C V C C S C S S D $.D C S D S O.S S S C $.$.V o.*.V C ",
"S C O.O.C D 9.O.C C S S S S S S V $.e.:.X.=.X.&.Z S S Z 7.S C 9.9.S C S S S S S S V S 1.w.Z *.*.X.&.C S V $.D C O.q.O.C V S S D S C S C &.e.*.o.=.Z &.",
"D C O.O.C Z V C D 1.o.C S C S #.X.V $.6.X.4.*.<.$.S S S O.S S S V C ;.:.C C S V $.#.A C <.*.*.3.%.<.V Z C $.Z C S C V O.5.o.S S C C %.Z B $.6.o.4.#.1.",
"C S S D C $.w.#.A ,.e.o.S o.3.w.$.S C *.3.X.*.o.C V S Z Z S C 0.3.C D t.;.C D *.<.,.A C X.3.*.X.>.Z V C S S D V %.w.o.A ,.e.X.V #.=.e.$.C C *.=.o.*.o.",
"X.A #.#.V C ,.<.o.Z ,.5.X.3.*.S C V S D =.#.#.X.S &.S S >.A V D 0.+.D D w.+.+.;.A M M M V $.<.Z *.V $.$.V #.#.V S ,.6.o.Z ,.5.X.4.#.S V A S D =.#.#.X.",
"e.$.#.=.D C S C *.=.V o.*.=.V X.;.&.D D S S V A Z w.:.N >.] Q W Q ` -.A M O.-.S M F q.` M M M A A V ,.e.$.#.=.C S C A >.=.B o.>.=.V o.*.&.D D C C V C ",
";.4.*.o.X.#.C C Z 3.#.S =.o.V =.>.$.D D C X.6.$.B A ,.+.` _ _ ~ E H ] 7.E ] 7.Q A &.F ) M M M | q.M M &.4.*.#.X.#.S C S 3.o.S =.$.V =.>.$.D D C X.1.$.",
"V o.3.X.D =.C D C #.*.S =.C #.3.D D S C $.e.<.V n W R 8._ h ^ g k k x ~ L ! ( G | M ) / M M q.t.| m M M X.=.C X.=.S Z S *.*.S =.V #.4.D @.C C $.r.1.S ",
"S S D C D *.C D S S D S *.D #.X.D e.:.C >.9.n b ^ g h h h k x k p p a @X@XkXP z Y L ..| ) A &.) / M / / M M A Z #.C S S S D Z *.C #.X.D e.;.C 3.*.C C ",
"S C C D S S D @.Z S C S V S C C S O.6.O.+.W W b g R b h h h c z l z z &X+X*X{.}.+XsXP T Y ..) J J J / ( ( / M M C D D S S S C A S C Z C $.5.#.=.C S S ",
"D 9.C S S S D S C Z C C 1.*.C D S N S N _ W W W Q R ~ g v k j j jX$X@X@X+X=X=X|.1X1X}.+Xf f P Y J / J / ..J E M A S S S C D D 1.*.V Z Z C Z Z X.D S C ",
"Z @.C D D S C Z @.5.,.V &.e.#.C >.N _ W m _ ^ g b v j i i jXj %X@X@X-XsX*X*X2X2X/.(.^.(.aXdXdXf f Y ) J / J / J ( M A D w.&.V &.e.o.Z :.Z D V C O.D C ",
"C C V w.,.C C >.r.2.S S C X.#.>.0.N W ~ h j j j #Xi i s jXzX.X%Xp I zX&X*X*X*X}.|.(.eXeX^.pXfXdXf f f ..J J | ' J E $.w.,.C D V O.*.:.1.C C O.Z D D D ",
"S Z V &.=.o.V *.<.S C S C M O.-.N W g g k j j j #X#X.X.X#XjXjX.X%XkX-XOXOXOX{.=X=X1X^.eXeXgXpXpXaXf f f Y J ....) K 7.q.N A S S C *.=.C C C 9.Z V C V ",
"C F w.X.Z >.C *.@.X.=.1.@.n O._ g g b h v c c s .X XoX%X-X`.>X[.].*X].-X=X=X{.{.}.1X(.eXP.P.gXgXpXpXf f T ..J J ] J ] J A ;.2.O.V *.X.C D S V V &.&.V ",
"S S ,.r.5.X.V >.#.6.2.D A _ W R g g ] ~ v c c .X X`.;X>X,X,XE.7X7XE.rXE.W.:X{.|.3X<X~.eXeXP.P.gXgXgXhXaXdXxX....J G ] ! q.9.D D D D Z V V 1.,.V *.%.F ",
"C C S D 1.4.@.#.4.*.A N Q ] R R ] ^ g [ c j .X-X'.'.'.].`.;X;XE.E.E.T.5X9XqXW.<X<X(.!.eXK.P.K.P.gXgXgXpXfXdXf T { E ) ' ) E n S 7.Z S ;.O.o.4.#.*.Z 1.",
"$.D S S S #.#.V o.A N Q W W R H ~ [ c c jX XoX`.'.XXXXXX'.;X;X,X;X;XE.rX9XrXtXW./.~.iXwXP.I.I.A.gXgXgXgXpX1X+Xf Y ( G I I ^ Q / N C S ,.*.*.#.X.X.>.X.",
"D S $.O.S V V D S A A Q Q W H g h k k .XXX'.'.XX'.].'.;X;Xn.5X5XT.T.9X9X9X9XqXtXtX0XwXwXeXL.P.V.A.gXgXgXuX^.1X+Xa L G G G K E Q N C S B C #.D V V X.Z ",
"V V D D C Z S *.-.A n n R ^ _ g l $X%XOXXX].>X;XU.m.7X4X5X4Xx.v.x.c.5X5XF.c.z.H.qXqXqXwXwXL.wXK.d A.I.pXuX(.(.2X+XP ( ( G G E H ' o.N O.O.V S X.D S S ",
"Z ,.X.<.&.X.=.#.D n n 9.~ ~ _ z $X&XOXXX*XXX;XT.E.n.7X5X5X5Xx.f.s.p.s.d.z.S.g.g.S.F.H.G.qXwXL.wXA.A.L.eX^.~.1XuX=XlXzXL x G | Q ` -.A D O.V D =.>.V #.",
"S 1.<.$.4.#.=.C A 9.H ) 7.H [ I z z -XOX*X*X,XE.5X5Xc.l.c.l.s.p.e e e e i.g.g.k.S.S.S.J.C.D.H.L.I.N.L.wXuXwX3X3X3XkX$XsXU l { 7.R -.@.B ,.&.V X.4.$.=.",
"C C ;.o.*.%.*.C 0.` H K  .I H [ z kX-X{.].:XE.9X5X5Xv.v.v.f.p.0 7 p.t e i.i.a.d.a.d.C.N.N.N.J.H.L.V.V.qXwXwXQ.3X3X=X&XlXI l x q._ ' -.-.:.O.O.D *.*.>.",
"O.C o.=.X.S O.*.9.H ^ H I ~ L kXkX&X{.:XY.E.T.T.rXc.z.v.z.f.s.p.t i.p.t p.y y i.w r r q a.B.C.D.G.J.B.G.qX0X<X3X:X<X&Xz z l l ~ ] Q +.A A S D S V #.4.",
"9.D C S S S A Q E K K L L L z @XOX<XW.W.W.U.W.T.9Xz.v.v.v.p.p.t 8 5 6 e e e r r q > 2 9 u B.B.S.H.S.B.S.qXqXR.<X:XY.{.@Xp l l x ^ Q Q n A S S S C S #.",
"C C S S S A A Q ! H G G I &X&X+XQ.R.Y.:X<XY.T.9Xz.g.a.i.t e 6 6 5 e > - 4 6 5 9 9 > 9 1 0 u a.d.C.k.a.C.9XF.R.Y.{.Y.Y.@X$Xl l G R H n Q A A V X.%.C C ",
"S S D D S D 9.~ H G G L sX&X+X3X<X|.}.Q.R.9XF.k.a.s.s.s.i.t 6 - = - - - - > > ; ; > 9 1 3 0 a.u i.a.y d.z.F.9XT.:X:XE.@X@Xz z x R H W W ' 0.O.X.>.C D ",
"S S $.O.S A Q E G ( G L &X&X{.3X<X3X3XtX9XS.d.a.a.a.d.i.t 6 , ; & = % = = - - & % > , , - > r r y r r s.d.z.5XT.:XU.U.OX$Xp j v H H Q Q Q ,.6.X.6.#.w.",
"S S S S C D | H I  ...L &X+X3X1X|.<XtXqXS.C.a.d.s.e e , > > = = % = $ # # % = @ # % : > = : 0 r e q 0 s.s.d.c.T.,XE.;X*XlXkX@Xk ^ ~ 9.~ W n >.*.*.*.*.",
"S S #.X.A ` q.| G G  .{ &X=X3X2X3XR.qXH.S.C.d.a.0 1 > ; > > = - = $ # @ @ @ # @ + # % = : % 4 0 e , 4 a.p.p.x.n.,X;X,XXXXXkXkXj ~ _ ] ^ W A X.4.X.*.X.",
"6.D *.*.M Q J ( ] ) L I +X3X/./.~.qXqXqXS.d.a.q > 9 q , - = # # % $ @ + o O + + O + # % @ @ - 5 5 4 , p.s.s.c.n.m.n.>XXX X XjXc ~ h R ^ Q A A X.X.C Z ",
"w.=.o.>.S A K H ! ] L &X=X1X/.yXwX0XqXF.a.u r q q 0 0 , > % # + + + + o X X o o X + + @ + & > 4 5 , 4 t p.s.x.n.m.n.;XXXXXoX.XkXc h _ 8.| ` D V C %.D ",
"S >.3.S A +.K H K ~ I +X3X/.~.yXwXqXD.d.d.a.u y 0 e 1 , < $ # @ X o O X . X X X X O + o O $ - < < < 6 y.y.u.x.7Xb.6X).`.'.oX Xc j b 8.b b B A D w.w.$.",
"S S o.D A 8.K H G I z {.Q.yXtX/.0XF.B.C.S.C.i.0 r e > % & @ + X X . X . . . . . X X X . + $ = = < = 6 u.u.u.j.4X4X6XM.M.`.'.oXjXv b b b &.@.N >.5.O.C ",
"S S S C ` Q K K G L z {./.0X0XqXqXC.C.F.F.C.a.i.e , = + + O . X X . . . . . . . . X X X + # # $ - < 5 y.y.u.h.x.8X8Xb.b.`.`.'.s j h v c 9.:.@.>.S S S ",
"S O.S S N R ^ ! H x &X{.tXqXqXqXC.d.F.9Xz.g.p.i.1 % = = # @ + X X X . .       . . X . X + + @ = = < 8 y.8 u.h.h.h.6XM.M.`.`.'.jXj j j b R D D +.S S S ",
"@.%.S A N R ^ H g ~ kX<XtX0X9XS.a.S.c.F.k.d.s.e > = < = # @ + o . . .           . . X X o @ = = = < 5 7 y.h.h.h.h.8Xb.). X'.'.kXb jXj b Q W _ A @.D C ",
"S S B 0.' R H Q ] ..&X:X9X9XF.g.k.9Xc.z.s.d.i.0 , , - = $ + o X . . .           . . X o + $ = = = < < 5 y.u.h.h.8X8Xb.oXjXoX`..XjXc c 9.W W N A D D C ",
"S S B 0.;.^ g ] 9.l OX;X9X9Xz.d.F.5X5Xz.s.i.8 4 4 4 < - @ o o X X . .           . . . o + # & = = = < 8 y.u.u.h.6X8X).oXoX`.`. X.Xj [ Q W W 8.D S C S ",
"S D ;.B N @.R ] [ z @X:X9Xc.c.k.z.c.5Xc.s.t 6 < < , - $ @ @ + o X X . .       . . . X X + @ & = = < 8 8 y.8 y.x.8X8X).oXoX).'.jXs c b R W g N V $.$.S ",
"S D w.1.$.` W ` b x kX,X5X5Xx.v.v.5X5Xc.x.f.p.4 - < - $ @ $ @ o X . . . . . . . . X X X + # # % - , 5 t y.6 y.l.b.8X).).oX>XjX.X.Xj b R g ' D N ;.,.V ",
"S C Z q.0.8.W ] 8.[ %X;X5X5Xc.v.x.5X7Xc.x.l.u.5 5 5 < - - = @ o X X . X . . . . X X O + @ * = ; - > e p.t 8 p.l.x.M.).).).>X XjXjXj R R g 8.>.@.*.C 1.",
"D D C B @.+.S b ` k  X;X4X5Xx.4X5X5X4X4Xx.l.s.y.y.5 5 < - $ @ @ + o X X . X X X X X + * = - ; ; 9 0 t t t 8 s.x.6X).).M._.`..XjX#Xv b ] _ _ *.o.#.#.#.",
"$.S O.D N m _ m g j .X;X4X4X4X4Xn.n.7X4Xx.l.j.y.y.8 5 < - = $ @ @ @ + X X X X O O X + * # ; > 4 0 i.i.e e p.c.5X_.).M.6X). X.Xs j v h c ^ +.S S S #.X.",
"C C O.O.B _ W A _ j jX>X6X4X6XM.).m.b.b.4Xu.u.u.8 y.8 4 - = $ % # $ + o o . X + * + + * * : 2 q e y i.i.p.c.5Xn.E.m.7X;XoX.X.Xs c b c h R n A C S S S ",
"S D C *.@.N ] 8._ j s `.6X6XM.).).;XM.b.b.h.h.u.y.y.8 , - = = = $ = @ @ * O X * * & & : : : 9 0 i.a.i.g.z.5X5X9Xn.5X;X Xs s jXs c b v b _ n A >.#.C Z ",
"D w.-.,.3.8.-.V ^ x jXXXM.6X>X>X`.'._.6X6Xx.h.l.8 7 p.5 , 4 = % = - & * & & + * : : : 2 2 2 2 w u a.d.k.z.F.9X7X5X7X>XXXjX.XjXc k b c h ] A A o.=.C =.",
"S $.<.S >.@.@.W 7.~ j oX).M.>XXXoXXX_.6X4Xx.x.j.7 7 p.e 8 6 = - = : % % : : % + & 3 3 2 2 q 3 9 a.g.k.d.z.9XrX9XrX,XXX-XkX.X.Xb j c b _ ;.9.S Z 4.#.>.",
"S V #.3.o.A 8.+.9.b k  X>X).)..XoX'.M.6X4X4X4Xx.p.8 i.p.t e , 1 > ; 3 3 3 2 3 & : : % 2 2 3 2 u d.C.S.F.rXtXrXrX;X*X-XkX X X$Xc c j _ 8.V N O.S @.*.4.",
"9.@.Z o.S N N @._ R v .X`.`.>XoXoXoX).x.6X7X7X5Xs.e 5 t i.p.q 0 r 1 3 3 2 2 w w q 3 2 2 w w w a.S.S.F.qXH.W.:X:X{.].OXOXXX.X$X%XjXg ^ _ N C S S S @.=.",
"D S S C D A B n n W h i oX'.'.oX X X'.b.6Xm.E.7Xz.s.y e a.a.i.r a.u 2 3 2 w w w w d u a.a.N.a.a.S.F.qX9XR.W.:X{.].].*X].].OX%X%Xk H W A B A S S @.C Z ",
"S S C C C D 7.` N n g j .XoXoXoX X%XOX).6XE.;Xn.c.v.z.a.d.k.B.a.a.a.a.w 2 2 w w u u N.N.B.B.N.B.D.qX0X0XR.W.Y.:X{.*X].:X].XX Xz g R N N $.>.C X.>.V C ",
"S C O.9.V S 9.A N N R c .X X.X X X$XkX-X_.rX;XW.5XF.9XF.k.C.S.B.N.B.B.u w 2 w w d u Z.V.Z.Z.Z.H.qXwX0X0XR./.Q.<X:X3XY.:X].*Xj x W _ N A $.e.=.X.4.X.,.",
"D C D D C Z S V A 0.@.g j .Xj jX%Xi %X-X,XrXW.,XT.9X9XqXS.S.S.J.B.B.N.N.N.N.d w d Z.D.G.H.H.G.G.G.G.qXH.qX0XR.W.W.T.W.:X+XkXk H Q A *.D V $.:.X.4.#.<.",
"V D Z Z C $.e.>.N 7.1._ h jXc zX%X%X#X$X-XE.:X:X:XW.9XqXH.S.H.H.L.D.V.N.N.N.V.N.d N.D.H.L.L.L.wXwXG.D.D.H.qXqXqXtXiX<X*XkX} Q Q O.-.1.D C V *.4.X.*.o.",
"#.V *.#.C V &.,.#.@.9.-.b c j j j %X@X#X%X,X:X,X{.}.R.tXtXG.G.wXyXwXwXI.Z.V.V.I.V.V.N.Z.V.V.J.D.J.J.J.H.H.G.qX0XtX<X=Xc G ) 9.S -.D A C C S D >.X.#.X.",
"e.*.#.:.Z D C A #.=.n N 8.^ j c [ zX$X$X@X*X:X{.*XdX=X/./.~.wXwX~.(.uXeXL.K.K.L.L.L.L.K.D.I.Z.V.J.J.D.L.0XwXyX/.3X+Xa J ] H N -.%.N %.:.,.O.@.V C V S ",
"$.3.=.X.X.*.C C S 3.%.n 8.^ j [ g l j $Xp kX&X|.{.=X-X2X(.~.^.^.^.(.1X!.P.eXeXL.eXeXeXeXeXwXwXP.L.L.L.wXyX~.Q.}.lXz z H 9.D Q -.A C =.#.D S S S &.e.$.",
"C X.=.@.D =.C D S X.#.A +.R ~ ~ x ! x @X&XzXkX{.{.{.{.+X2X/.1X|.!.(.(.aX1X(.(.uX^.eXeXeXuX^.uXeXeXwXwXeX(.}.+X&XI l G Q S D Q -.A *.=.D %.S S %.r.&.S ",
"C C C C Z #.C D S S S A O.W _ H x  .] x L kX&XOXOX}.|.{.}.}.}.}.|.|.(.(.fX}.aX1XfX(.^.pXuXuXeXeXeXuX(.1X}.&Xf L ! E Q Q Q Q _ X.C o.X.D e.<.X.3.$.V C ",
"S Z C Z S C O.D S S C S A N W E g G ' Q [ a p &X&X&X+X|.}.}.}.}.dX}.1XpX^.fX1X1X1X1X!.fXpX(.^.^.!.|.dX+Xf L G J E / ` Q Q A A S S C S C D :.#.>.C C D ",
"D 9.C C S S D S V @.O.S 0.:.N N W g g ~ W l a &Xz z lXsX+X}.+X=X+XdXsXdX2XpXfXfXfXpXpX!.1XpX1XaX+XdXf P U J J E E / / Q ` D S t.=.Z S Z Z C Z Z Z S C ",
"C D S $.D S C X.#.e.,.B $.5.o.S ;.E H H W ! L z P l l z f sX+XdXsXsXsXxXf dXdXsXdXdXdXaXdXdXsXf f Y J J J E ) Q Q / ` X.e.&.V $.w.o.X.5.D C V V O.@.C ",
"S D V w.<.C V =.r.&.A S C @.o.3.,.n W ~ E n ^ x z L G l Y ..L a sXU T f f f dXxXsXT f f P P P P L J J J ( J q.| Q M -.e.&.V S C Z *.4.,.C S 9.D C C D ",
"S D S $.#.*.V >.&.V Z Z Z V *.*.A C n ` W Q Q E L l G J H I { I P U P L I P P sXU P L G Y Y L Y J J J J J Y M F $.A ;.&.B Z Z Z C *.*.A S C O.S C Z C ",
"V $.e.&.Z *.C >.Z %.4.1.$.V *.X.C C D A m ] 9.R W H G | 9.J ~ J ~ ) P { { ..L G Y P G Y Y J E  .J J J J F 2.F M #.V *.Z #.3.1.O.V #.X.C S O.D V ,.,.B ",
"S C &.e.w.#.V >.*.6.,.C S O.D S C B ,.,.A +.C | A Q E K | q.| H ! ' | | J G Y Y G Y L Y  .( ( ) ( ) J / M F t.w.X.V =.*.5.&.C D $.S S C V <.;.C *.O.&.",
"S S V V ,.4.X.$.4.#.V S Z $.C S 2.#.@.3.o.-.S &.A / N W K ) 9.O.E ' ] K J E ( Y K (  .J ) ) | ) | | M A S V V ,.4.X.o.4.o.C C @.$.S D 2.#.X.3.#.*.X.<.",
"O.S Z D C o.X.V Z S S S S V C Z %.#.=.$.Z Z *.O.A ` S M ` E W ` Q / Q E E J K ! J ) ) | ' / M A %.M V F S D D A #.Z C Z S S Z S C C C &.#.=.X.X.Z *.X.",
"@.S $.O.C V V X.X.S S S S Z Z C V C @.D V V Z Z Z D A C 9.M M Q Q ` ` A M M / / M M M M A M M A S S S C S $.F C V V Z $.S S C S D D C V C O.C C A Z Z ",
"S C V X.C X.Z >.=.Z Z X.C #.*.V D O.S S #.X.S D 6.D V V @.@.A S A :.D / S S A #.M A F S M X.%.Z V ,.;.V V C X.C X.Z =.=.S S X.V #.*.A D $.C D #.X.S C ",
"@.2.X.1.:.X.4.#.S S V <.:.X.=.X.D O.S S *.=.V #.&.A &.:.#.w.@.>.>.D B A $.5.S =.$.V F S C Z 4.Z Z :.$.Z 1.X.1.;.#.=.#.C S S w.#.o.3.Z D 7.V S *.=.A #.",
"S ,.1.F :.#.=.V $.2.V $.<.Z =.*.C 6.,.V Z 3.o.*.X.C $.w.$.:.#.>.$.V 2.$.C <.*.X.3.S *.1.D C *.=.$.*.V Z 1.2.$.=.#.=.V $.2.V &.4.C =.#.Z 5.&.V D 4.X.=.",
"C C *.*.*.O.*.X.w.$.S V w.>.X.3.=.*.D $.C #.*.=.O.C V O.=.#.#.*.X.<.2.C V &.5.X.=.3.=.$.D O.D *.*.*.V C V *.*.#.#.#.X.w.F V C w.*.o.3.=.>.D O.D #.*.=.",
"O.C X.=.Z C #.=.>.S S S Z *.Z #.X.C C S Z V $.4.Z D D S >.#.V S >.=.X.V C C #.#.@.#.C C S S C S =.*.C O.C o.=.Z V #.=.*.C D C Z *.Z #.X.C S S S C #.4."
};
