/* XPM */
static char *result[] = {
/* columns rows colors chars-per-pixel */
"75 75 229 2 ",
"   c #010103",
".  c #02010C",
"X  c #050114",
"o  c #06021B",
"O  c #09021E",
"+  c #0A0223",
"@  c #0C032C",
"#  c #070220",
"$  c #0E0334",
"%  c #0F043C",
"&  c #110435",
"*  c #12043C",
"=  c #1A043E",
"-  c #11032F",
";  c #515F36",
":  c #5F6A38",
">  c #140444",
",  c #15054B",
"<  c #1A054B",
"1  c #1A0545",
"2  c #150553",
"3  c #1B0653",
"4  c #1B075C",
"5  c #18075B",
"6  c #23075C",
"7  c #250657",
"8  c #21054E",
"9  c #1B086C",
"0  c #1B0764",
"q  c #1D0A78",
"w  c #24086C",
"e  c #270766",
"r  c #33086C",
"t  c #230974",
"y  c #240A7B",
"u  c #2B0A7B",
"i  c #2B0974",
"p  c #360A79",
"a  c #687E7D",
"s  c #777D7E",
"d  c #400A78",
"f  c #867D7E",
"g  c #7D9D49",
"h  c #7D9B6B",
"j  c #79966D",
"k  c #6B847B",
"l  c #6C897B",
"z  c #738B75",
"x  c #788879",
"c  c #759273",
"v  c #7C9373",
"b  c #799776",
"n  c #7FA271",
"m  c #809F4A",
"M  c #81A14A",
"N  c #87AC48",
"B  c #8DAE5E",
"V  c #89AA52",
"C  c #91AF5F",
"Z  c #8EB15D",
"A  c #95BB57",
"S  c #92B55B",
"D  c #96BB58",
"F  c #99BE5A",
"G  c #99BB4B",
"H  c #8B966E",
"J  c #849C6A",
"K  c #8B9C6B",
"L  c #86976C",
"P  c #868A77",
"I  c #839372",
"U  c #8B9473",
"Y  c #869A75",
"T  c #949777",
"R  c #919872",
"E  c #84A465",
"W  c #8BA465",
"Q  c #87A963",
"!  c #8BAB62",
"~  c #83A26B",
"^  c #8CA26A",
"/  c #89AA6B",
"(  c #90A465",
")  c #92AC63",
"_  c #92A36B",
"`  c #94AB6B",
"'  c #9BAC6B",
"]  c #8DB263",
"[  c #8CB368",
"{  c #93B363",
"}  c #94BA62",
"|  c #9BBB63",
" . c #98B468",
".. c #89A473",
"X. c #97A673",
"o. c #98B273",
"O. c #A6B96A",
"+. c #A6AD74",
"@. c #A3AA67",
"#. c #9CC557",
"$. c #9EC957",
"%. c #9BC25A",
"&. c #9EC959",
"*. c #97C05E",
"=. c #A1CD57",
"-. c #A2C55B",
";. c #A4CB5A",
":. c #ABCC5B",
">. c #A5D357",
",. c #AADC56",
"<. c #A5D359",
"1. c #ACD45A",
"2. c #ABD958",
"3. c #A7D856",
"4. c #B4D55C",
"5. c #B4DB5A",
"6. c #BADC5D",
"7. c #B8D65D",
"8. c #ACC44F",
"9. c #ADE255",
"0. c #BAE45A",
"q. c #9AC362",
"w. c #A4C363",
"e. c #A8C864",
"r. c #B8D663",
"t. c #B3CE65",
"y. c #C3E55D",
"u. c #D1EC60",
"i. c #1E0B86",
"p. c #1F0E96",
"a. c #240B83",
"s. c #290C88",
"d. c #360C88",
"f. c #280D94",
"g. c #390D97",
"h. c #3B109A",
"j. c #27109B",
"k. c #1E11AD",
"l. c #3A0FA2",
"z. c #2711A8",
"x. c #3811A8",
"c. c #2915B7",
"v. c #3814B8",
"b. c #230FA3",
"n. c #2C29BD",
"m. c #382BBC",
"M. c #3836B5",
"N. c #373CAE",
"B. c #460D8A",
"V. c #470E95",
"C. c #540E98",
"Z. c #4A1099",
"A. c #4812A8",
"S. c #5711AA",
"D. c #4714B8",
"F. c #5914B7",
"G. c #4C0FA2",
"H. c #6612AA",
"J. c #6615BB",
"K. c #7516BB",
"L. c #483DAE",
"P. c #573FAB",
"I. c #482BBB",
"U. c #592ABC",
"Y. c #4638B4",
"T. c #5835B4",
"R. c #683DAD",
"E. c #6629BD",
"W. c #762BBC",
"Q. c #6837B4",
"!. c #7736B4",
"~. c #793CAE",
"^. c #600F9C",
"/. c #3B44AA",
"(. c #3F43B0",
"). c #4A5899",
"_. c #565899",
"`. c #514F9F",
"'. c #685898",
"]. c #76589A",
"[. c #6C4F9F",
"{. c #5A6B8B",
"}. c #5D7387",
"|. c #4F6296",
" X c #576594",
".X c #676B8C",
"XX c #766A8C",
"oX c #637B81",
"OX c #6C7A82",
"+X c #677587",
"@X c #737B83",
"#X c #777686",
"$X c #696593",
"%X c #766396",
"&X c #717592",
"*X c #4847A8",
"=X c #5947A8",
"-X c #504FA6",
";X c #6748A6",
":X c #7847A7",
">X c #7050A6",
",X c #281AC5",
"<X c #361AC4",
"1X c #2A23C3",
"2X c #3824C2",
"3X c #1F1AC9",
"4X c #4819C4",
"5X c #5B1CC5",
"6X c #5818C4",
"7X c #6719C4",
"8X c #761AC5",
"9X c #4623C3",
"0X c #5823C3",
"qX c #6922C4",
"wX c #7623C2",
"eX c #8335B4",
"rX c #835899",
"tX c #846C8C",
"yX c #867786",
"uX c #846595",
"iX c #917693",
"pX c #8447A9",
"aX c #864EA9",
"sX c #831BC6",
"dX c #8623C2",
"fX c #6A8283",
"gX c #778684",
"hX c #868684",
"jX c #8E8E84",
/* pixels */
"; D D D D D F *.F D D A F %.F D A A F %.A >.$.A A A A A D D D F F D D D D %.*.D A A F -.F F 3.F A A A A D D D D F F D D D A $.F A D D F %.F F 3.F D g ",
"; D A %.F A -.e.%.A A D D D D D A A 4.y.%.>.=.-.%.A A A %.F A -.e.F D D D D D D A A F 6.5.#.3.=.F -.A A F F F D e.e.D D D D D D D D D -.y.2.#.,.#.8.g ",
"; D D F %.D D D D %.6.#.A F D %.#.F D 1.>.3.9.2.:.A D A %.F A A F A :.5.F A D F %.=.A F 2.3.3.,.;.:.A A D %.D A A D D 4.1.D D D D =.#.A F 2.-.9.>.9.M ",
"; D D D A A ;.y.#.D 4.0.#.A $.0.6.F A #.,.;.#.>.F A S S Z S S t.1.} S r.1.S S ;.4.t.C C F ,.#.-.>.D D A D A A F 5.2.D -.0.2.A F 3.y.:.A A 3.,.#.>.$.g ",
"; -.A -.>.A D :.0.#.%.5.0.$.9.$.S D D A &.2.$.$.D D D Q q.} E E e.w.{ S t.;.%.;.S ) C C ( -.:.| ;.S F F %.;.$.S -.0.3.D ;.0.>.3.3.F A A A A ,.3.;.%.g ",
": y.>.$.,.D D A D =.3.D $.3.>.A =.1.;.F %.A A Z Z O.t.] q.[ J J L J { ` W  .q. .) w.w.{ { ( C ( C S 4.7.#.3.=.D F A #.,.-.%.>.3.F #.>.:.-.A A A A A g ",
"; ;.9.3.$.#.=.A D #.9.#.#.3.#.D <.<.%.D A Z q.w.Q h { [ n b b x x x I ..I Y X.J ^  .@.( ) C @.8.O.C @.:.2.=.#.#.-.A A >.3.A >.=.A >.>.:.F D A #.6.-.g ",
"; D $.9.=.D 3.A A D $.$.%.>.D 3.3.F D Z Z w.r.] h h h ~ [ c b c k @X#XgX#X#XyXP X._ H R ( ( t.t.C ) C ( ;.;.A $.-.A A #.>.#.>.-.%.9.-.D D A -.y.6.F g ",
"; D D D A F =.D D D A D F =.F =.#.%.6.q.} q.Q h B h h j v z b b k s @X.X%X%X%X%XyXf T +.T @.@.( ( ( ( ( ( C C -.#.A D D D D =.F #.#.F 6.5.%.,.>.D D m ",
"; D D D A A D F F A D D A A A S S Z q.q.*.} B n h h j c z z a OX@X@X+XXX$X'.[.[.:X].tXiXT f @.H ( ( ( _ ( ( C S S D D D D D D A A A A -.5.=.3.F A D g ",
"; D e.D D D A F F D D A -.4.=.S S ] Z Z Q n h j c l k fXa a oX+X+X.X$X$X$X>X>X:X!.W.eXrXf f f P H R K _ _ K ( ( C S S D A A 4.1.D A A A #.F #.F D D m ",
"; D F A %.F A A F $.5.:.A :.5.D D q.E n j c c k k k a }.a OXOXoXa s #X#X%X%X].>XW.wXK.eXeXpXiXf f T _ R _ ( _ K ( S D 4.7.F %.6.1.#.1.%.A A F F F D V ",
"; D A D 4.4.A %.2.0.4.A A S F &.e.} j c l k a k a a a }.&XgXfX&X+XgXhX&X$X$X'.].>XW.8X8XsXeXeXrXf f T R H @.+._ K { 1.6.-.A A F =.3.0.F D %.F A D D m ",
"; %.D D ;.<.#.D 2.1.D A Z Z ! } [ h j c c k a }.{.{.a |.|._. X X$X$X$X$X$X'.'.].>X!.8XK.8XsXdXeXpXtXf f H _ @.@.K ` w.| S A A A $.2.%.A D %.F A D D g ",
"; A #.6.$.%.>.%.<.&.%.<.:.Z E [ Q h h c z k l }.).)./.).-X*X9X*X*X-X=X;X[.].'.[.>XW.8X8XK.8XsXsXdXpXrXf T +.H ' ` _ ` W %.7.;.A ;.=.A A D D A -.:.A g ",
"; A A ;.u.0.#.D >.>.5.w.E Q Q n h j h n l a }.|.).).).).-X*XY.2X9X9X4X9XU.;X;X;X:XQ.wXJ.K.K.K.sXsXdXeXrXiXjX+.` H ` ` O.e.S S D A D A S 4.1.F -.=.%.m ",
"; A D D F 7.,.#.$.2.*.Q Q ! / J ~ h c c fX}. X X X|. X).*XL.=X*XY.Y.9X4X9X0XR.;XQ.Q.8XJ.H.H.H.K.sXsXdXpXrXyXP +._ K o. .W ! S w.F D -.;.#.,.$.>.%.7.m ",
"; -.D D D D =.=.A %.] B Q E J j b Y z fX X|.-X|. X|._.).N.L.*X*XP.Y.9X4X4X0XU.U.E.qX8X7XH.^.^.H.sXsXsXdXeX].yXP _ L L K J ! B S D D :.<.=.>.#.#.>.#.g ",
"; F F %.%.A D D Z ] B ! Q J h j c a +X.X|._.|._.`.*X*XM.m.2X<Xv.2X9X4X<XD.4XU.0X5X7X7X8XK.J.H.^.H.K.K.K.W.:X%XyXP I L I J K ! C S D D F $.#.A D #.D g ",
"; A D D F F D D <.&.B W ~ ~ / h OX+X.X X_.`.*XM.M.m.<X<Xc.v.z.c.v.v.D.v.v.A.D.6X6X6X7X7X7XJ.J.C.^.K.W.K.W.~.>X%X#XR ` ..L ~ K S &.D D *.F A F #.D #.G ",
"; F ;.#.1.>.%.3.#.{ E ~  ./ Y gXa +X$X_. X-XY.I.Y.2X<X1X<Xv.j.f.f.f.j.l.x.l.V.A.S.F.F.6XJ.7X7XH.C.K.8XqXwX:X:X>XyXY I P j `  .{ =.q.D w.D A 2.3.D #.G ",
"; F 7.6.;.5.$.<.{ ) ` W ' ..b Y @X.X&X$X`._.Y.2X<Xc.c.v.c.b.s.y t y t d.g.h.l.A.A.A.G.G.S.F.J.S.C.H.7X7XqXQ.;X>X#XhX@XY U K | ] %.&.D =.:.F F ,.$.3.M ",
"; A A ;.=.>.$.%.) O./ L U o.Y x gXgX&X_.=X*X9X2Xv.x.z.l.j.s.q 9 y y t u s.d.g.g.h.V.V.B.V.G.J.F.S.C.7X7XqX;X:X:X%X&XhXT I v O.O.} <.1.,.#.-.D =.=.,.M ",
"; F F &.,.%.S } q. .J I x I x s #X$X=X=XT.9X9X9X<Xz.x.z.z.f.a.a.a.s.y s.u a.p u u p r d.V.V.D.F.A.V.F.6X5XQ.>X=X;X#Xx P x v ~ { ! *.F S D D D D =.9.M ",
"; -.F D A S S W W J I I P x s @X'.=XT.T.I.Y.I.9Xv.x.x.z.f.s.a.y t t y y u y u i 6 e 7 p g.V.A.D.A.V.S.6X6XU.;X=X=X'.+Xs v v L J ] B B S S D A A D >.m ",
"; F D D A S B W J L I P x @XXX[.R.T.P.=X=XT.0Xv.x.j.s.s.a.t t q 9 5 4 9 w w w e < 6 6 p p g.V.A.A.d.A.4X4XU.P.[.P.=X.XOXx v J J W ! B S S D #.=.D D g ",
"; D D D A Z  .o.K I I s #X#X'.;X=X;X>X;XU.9XD.x.g.f.s.a.t 0 4 2 0 2 , 3 4 4 3 4 4 e 6 e i d.d.d.g.d.g.D.D.4XT._.=X=X$XOXk z L J J ! ! | 6.=.F 3.D D m ",
"; F D %.w.B W J L L U x #X%X>X;X;X;XT.5XD.A.g.s.s.g.f.a.y 9 2 * 1 > , 1 , 3 1 > 2 6 6 3 e u p p u i d.l.x.4XI.=XL.P.$XOXx z z J E Q ! ! e.0.#.9.=.y.M ",
"; F A A S C ` ' L H +.T #X[.;X>X].R.5X4XA.d.d.g.d.s.y w 0 3 , > 1 * * * 1 , & * 1 3 4 1 1 w i i i w d.g.h.v.I.=X*X*X XgXhXx c h / w. .! B 3.3.=.;.=.g ",
"; D A %.%.! ^ +.' L T jXyX>X>X>X;X0X6XA.A.d.d.d.t w 4 < 3 > > * > * $ $ % * @ $ * > 1 1 , e u w w w s.j.f.c.m.*XT.=X$X{.gXhXb / [ { ! ! S #.,.=.3.#.g ",
": 0.%.$.$.W K L _ ` Y #X%X:X:X;XE.5X4XA.g.g.d.w 6 4 < 3 , > > > % $ @ @ @ @ @ + @ * * , & 4 w t 0 4 s.f.s.v.2X*XY.*X X&X.XfXx ..~ ~ E W B S #.#.F D g ",
"; 6.9.;.q.) ^ J J U jXXX:X;XQ.qXqX5X6XG.g.d.r 3 6 w 4 3 > & $ * $ @ # O O # + # + & & @ @ < 0 w 0 4 a.s.f.c.2XM.m.*X|. X}.{.b n h [ | w.} D D D :.%.g ",
"; A >.,.{ ^ { K I P P %X~.Q.E.7X7X6XA.V.p i w e w w 4 3 1 $ @ + + + O X X X o X # @ @ + $ 2 0 0 0 5 q s.i.c.m.M.M.L.).|.{.{.l b h ] / Q Z D D 6.y.%.g ",
"; A F #.] ^ { J I P #X>XQ.Q.0X5X6XD.G.d.d.p i i w e 4 3 * $ @ o o o X . X X X X O # O O $ , 5 5 2 0 i.p.f.c.1Xm.n.N.).).|. Xl c n [ ~ w.%.S <.0.-.D g ",
"; F D S ! E ^ L I x XX;XE.0XE.5X6XA.V.l.g.d.i y w 4 , * $ @ # X X X X . X . X X X o X # % % , , , 0 i.p.p.k.n.3X,Xn././.).|.fXl j h h | r.%.3.#.D D g ",
"; D -.S ! J J J I s '.R.0XqX0X6XA.g.A.D.l.d.u i e < @ @ o X X X . X . . . . . . X X X # $ % > , 2 0 i.p.i.k.k.3X,X1XM.).).).oXc c c j W D *.=.*.A D g ",
"; F -.D Q J J J I @X].Q.6X5X6XD.V.A.D.D.l.s.s.w 2 > * @ @ o X X X . .       . . X X X # @ @ % > 5 q i.i.p.k.k.k.3Xn./.).|.).fX..b c n Q Q Z S F F D V ",
"; A D S  .` J J J Y %XU.6X6XD.V.h.D.D.x.g.d.u 4 * > > * @ # o X . .           . . . X X # $ > > , 9 q i.p.k.b.k.n.1X/. X X|.{.c b b [ [ Q ] D F F D M ",
"; D D D O.| E J ..jX'.0X4XD.x.g.v.D.v.g.g.f.t 3 2 2 > $ $ # X X . .           . . X o # $ > > > 2 0 9 i.p.b.k.k.3Xn./.}.).).}.fXl b / ! B } D A D A g ",
"; F F -.! ~ } ~ ..gX=X9X4XD.l.l.D.4Xx.f.f.a.w 0 4 2 , $ # X X X . .             . X o + $ % % > , 2 9 i.p.k.b.3X3Xn.).|.|.|.}.}.l c h Q E B A F -.D g ",
"; D F 4.e.o.[ J Y OX=X9X4Xv.g.v.<Xv.v.g.a.t 0 4 5 5 , @ # # X X . .           . . . o + @ * > > > 0 q i.i.p.z.3X3X/.|.}.|.|.fXfXk c h g } } A ;.1.F g ",
"; F D | | e.} J ..gX_.9X<Xx.x.x.v.<Xc.g.a.9 5 5 2 2 > @ @ + # X X . .       . . . . X + @ % > > 5 q q q q i.c.,X3X/.|.|.).).|.fXk j B h [ <.*.>.F 7.M ",
"; F D D Q Q q./ z k *X2X<Xv.z.x.<X<X<Xz.b.a.9 2 2 2 % $ % @ # X X . . . . . . . . X o + $ & * , 5 9 q a.9 i.b.c.3X/./.).).|.fX}.k h w.q./ q.#.>.3.%.g ",
"; %.F D ] Q Q h z .X-X2X<Xv.c.c.<X<X<Xc.z.p.q 9 9 2 , > > @ # X . . X   . . . . X o + - $ * < < , w a.a.q i.b.c.n./././.).|.}.fXl h n n q.D A A =.F g ",
"; F D D { Q Q n b oX*X2X<Xc.c.,X<X<X,Xc.z.j.i.q q 5 5 2 > $ @ + O X X . X X X X o O + * 1 1 1 4 w y a.y q f.c.1XN./.N.N.).}.}.oXc h h j B Z A A A F N ",
"; D D D D ] Z ] b fX*Xn.,X,X1Xm.2X1X,Xc.z.b.p.i.q 9 5 2 % $ @ @ @ # o X o X o X o + + = 1 3 4 w y u t t s.x.<XM./.N.n./.).oXoXl n h h [ ! Z 3.3.A F 8.",
"; F y.1.q.<.S q.b oX).1X,X1Xn.(.M.n.1X,Xk.b.p.q i.q 0 2 > $ $ $ $ + o X X o + + + O - - > 7 e t d.s.u u x.<X9X(./.n.N.).}.fXc c [ n j E Z A %.3.#.3.M ",
"; D %.4.} q.} } z gX X1X1Xm.(.(./.(.M.,Xb.p.p.i.i.q 0 2 > > > * % @ + + X X + - - - & = 1 3 w i u u f.x.<X2X2X(.(.1X/.fXfXk l c n n n e.w.} D 3.=.,.M ",
"; D D $.<.} Q } / b ).n.n./.)./.).(.n.1Xk.b.b.i.i.q 9 2 2 > > * 1 & @ & - O - & & 1 8 8 8 e i p d.d.h.v.v.4X4X<X2X*X.X+XoXoXfXb c n Q Z Z *.A %.=.9.g ",
"; e.F D D ! Q Q n l |.N.n./.).|.).N.1X,Xc.c.b.q 9 i.q 9 0 > * 1 1 * & * = - O = < < 7 6 7 3 e u d.h.h.l.v.4X<X<XI.-X{.oXoX}.oXc c c h Q Z S A A D ,.g ",
"; D D D Z B ! Q h c {.N.N./.).).).N.1X,X3X,Xk.i.q a.y t 9 3 3 1 > 1 1 1 8 1 - - 1 8 6 e e 7 r d.g.A.l.D.4X9X4XI.=X X.X+X{.+Xk k k c h B S A D %.A A g ",
"; D D D S Z ] { n c }.)./.).|.|.).N.1X,X,X,Xc.s.q y a.y i 0 6 6 < 3 8 8 6 8 1 1 1 = 8 6 7 6 p d.l.A.D.I.I.I.I.P._..X{. X{.oXk fXk h E S &.%.%.>.%.%.g ",
"; D D %.q.Z ] { n b }.|./.).).a  X*Xn.1X2X2X2Xj.a.w t s.s.i w i e 8 8 7 7 r e r 7 7 e r p r p G.D.F.4X0XT.=X=X_. X$X$X X.XoXa a c h Z A 4.5.#.9.$.4.M ",
"; D D D D S S ] B / gX{.).|.).|.}.|.M.1X*X*X2Xc.f.a.u s.d.p i d.p e 7 6 r r r p p B.p B.p d.B.A.F.D.6X0XT.=X'._.'.$X_.&X+X.X+Xz h } *.S F 2.#.9.>.,.g ",
"; F D D D S F r.*.n c gX}.|.a }.&X X-X2X*X*XI.v.x.l.f.h.l.h.d.p B.d.r e r r r p p B.B.V.Z.V.V.G.6X6X5X0XT.P.;X'.$X%X_.'.&XfXk h q.r.-.S A >.9.%.>.#.g ",
": 1.#.#.3.S S F &.*.n fXfX}.}.{.oX{.|.Y.2X*XY.9XD.D.D.h.A.A.g.B.V.B.d r 7 e r d p B.Z.Z.Z.Z.S.F.6X6X7XU.T.;X;X=X>X=X-X'.$Xx Y } F S S A D A =.=.$.D g ",
"; y.2.#.9.D A Z Z *.[ l }.c fX{.x gX+X*X2XY.=X9X4X4X0XA.A.A.A.V.V.B.B.B.B.d r d B.S.H.F.F.S.F.6X6X6X6X5X0XE.P.T.Y.T.=X$X+Xx [ q.S %.3.4.-.%.D D A A g ",
"; %.9.3.%.#.=.S Z Z *.h l l fX}.fXa .X_.Y.Y.=X=XU.4X6XD.S.A.S.S.C.V.B.B.B.C.B.d B.S.F.J.F.J.J.J.F.S.S.F.0X5X5X0X0XT.'.@XY v } %.B $.$.%.F D D $.y.-.g ",
"; F #.3.#.D 3.D S Z ] n z x l c fXgX@X X=X=X>X[.;XU.0X5XF.F.7X7X7XS.C.B.B.C.C.C.V.C.C.S.S.S.J.F.S.S.S.F.F.5X6XqXT.[.+Xx ..E q.F %.2.%.;.$.D ;.y.:.A g ",
"; F D D D D -.D A S B h c l l c k fXjX#X'.[.-X$X'.;XU.E.J.5X7XqXW.7XJ.S.^.C.H.H.H.^.C.C.C.C.C.C.C.G.F.J.6X5XU.Q.'.&Xx I J Q D } F F A 6.0.%.3.=.A D g ",
"; A A A A D A F D S S E v l z z z a x gX@X'.[.'.$X$XR.Q.Q.qX7XqX!.Q.wX8XJ.J.J.K.8X7X7XJ.J.H.S.F.F.J.J.7X7XE.R.'.#Xx I ~ W B B S S A A F 1.=.3.F S A m ",
"; F ;.F A A D D D D D C ^ o.Y z v z @X@Xs .X_.'.$X].].Q.E.W.!.W.W.~.~.!.K.wXwX8X8X8X8X8X8X7XK.J.J.J.7X7XQ.:X].s P I J ! S C w.4.#.A F A F D #.F F A m ",
"; D D D -.#.D A *.;.6.q.E ` o.h ....s OXs +X$X'.$X].'.[.:X:X:X:X~.!.pXaX:X~.!.eXwX8X8XwXW.8X8X8X7X8XwXQ.].XXyXP P J { e.t.{ Z 4.2.#.5.%.A D D F F F V ",
"; D D D 4.4.D #.,.y.:.Z B Q ~ /  ._ z x s #XXXXX$X].].].].uXrX].].pXpX:XaX:X:XpX:XeXW.W.wXwX8X8XW.!.:XXX#XjXX.W K S 1.t.) Z S F =.,.5.%.A %.F D D D g ",
"; F F F -.;.=.A 2.:.A Z Z B ! [ / h ~ v x @X#X@X#XXX].].].rXuXtXrXuXpX!.~.pX:XpXrX:X~.!.!.eX!.eX].rXXXf P K ' { ) { w.{ ) A F D =.>.#.A S %.F A A A m ",
"; A F y.1.-.>.F >.#.=.0.4.D Z ] ~ L W W I x P hXx f #XtXyXtX%XtXtXyXuXrXpXpXpX:XpX~.eXeXeX~.rXuXtXf P H @.O.) | { D *.D 1.0.:.D #.$.F A %.F D ;.4.A g ",
"; F A ;.y.y.-.F >.3.0.:.A } D B E L W w.[ x P P P x P s iXjXjXyXtXjXT iXuXrXuXrXrXrX].uXiXuXyXP P R H K ( O.t.e.) | &.2.5.%.D *.F D D A 4.1.F ;.$.;.m ",
"; D A D F 1.,.$.=.,.$.A D F | Z | | / } q.[ Y U U I v P P yXjXjXf P jXf yXtXyXtXtXyXT f T T T R ' X.H K ( K ' e.%.S <.>.D D D %.F A :.;.#.3.=.3.#.4.m ",
"; -.F A A A -.#.A #.A D A A A A D | } } { ! / Y I I L L P I P P P P P P P f yXyXf P T T X.U H ( ' K K ` ( ( ( { D S #.#.A A A A A D ;.;.3.=.F #.2.#.g ",
"; F A F ;.A A A F #.A A A A A #.D S Z B ! Q B J J J J L _ U I H P P P U P P P P P H H H K K R H K K _ ( (  .S C A F F F A A A F F D A D A A A A A A g ",
"; A A A #.F F #.3.3.A D %.F =.;.S %.F Z S { ] Q | ` J W ^ W K ^ (  .K U P H U _ R H R H H _ ( K ( @.) ( ) S D D D =.3.-.A %.F #.>.F D %.F A #.#.A F #.",
"; D 1.=.1.1.=.,.=.F A %.5.;.=.3.D %.*.S D <.F Z w. ._  .) O. .{  .` ( K ` @.R ' _ H R H R ( O.( ' O.C O.-.;.5.;.>.,.#.A A :.1.=.3.#.D $.F F ;.3.G $.G ",
"; F :.6.F 3.=.3.A -.7.A ;.>.%.>.#.&.0.:.Z >.<.$.*.S B e. .{ | q.{ K +.' (  .' `  .K +.O.K ( | w.D %.S F 4.:.;.2.=.$.A 4.-.A 2.#.>.=.F 5.4.F F 9.=.,.M ",
"; D A -.2.>.=.=.-.0.A A -.0.1.=.9.2.$.F %.%.$.<.$.S S ! w.| | %.} | e.( K ' e.' O.-.O.) )  .S $.%.;.S D %.=.3.=.=.#.1.4.A A 6.5.=.,.9.3.F -.F #.=.,.M ",
"; %.A #.3.%.A -.3.1.A D A #.=.#.$.%.D D A D D ,.;.S F Z %.-.! ! *.;.| S C C D F S %.) S S S S %.,.-.D %.D >.<.S F >.3.#.A A F =.%.=.#.A A A A A $.9.g "
};
