/* XPM */
static char *_3fff707c1624e2fa54b725472f93e39XBHqXanRDlMg0jSZ[] = {
/* columns rows colors chars-per-pixel */
"75 75 256 2 ",
"   c #010100",
".  c #0C0300",
"X  c #060A09",
"o  c #160803",
"O  c #0F1211",
"+  c #260D01",
"@  c #381502",
"#  c #2B130B",
"$  c #1A2311",
"%  c #1B250E",
"&  c #2C3217",
"*  c #070F2A",
"=  c #323531",
"-  c #182B32",
";  c #471900",
":  c #541D01",
">  c #5D2401",
",  c #552614",
"<  c #672701",
"1  c #772B01",
"2  c #793603",
"3  c #67360A",
"4  c #703A28",
"5  c #4C342B",
"6  c #35441E",
"7  c #394822",
"8  c #3A463F",
"9  c #465727",
"0  c #4F5129",
"q  c #546933",
"w  c #556A2E",
"e  c #627A37",
"r  c #67782F",
"t  c #694427",
"y  c #11164E",
"u  c #191C7A",
"i  c #0E1772",
"p  c #1A227C",
"a  c #112A6B",
"s  c #272879",
"d  c #2B3078",
"f  c #1B2957",
"g  c #483568",
"h  c #653452",
"j  c #024B74",
"k  c #26586A",
"l  c #544955",
"z  c #706F70",
"x  c #5D5E69",
"c  c #893202",
"v  c #993801",
"b  c #883106",
"n  c #A63B01",
"m  c #B53E00",
"M  c #983C2C",
"N  c #FF2B00",
"B  c #FF2300",
"V  c #FF3400",
"C  c #FE3A02",
"Z  c #FF1F00",
"A  c #914306",
"S  c #B84400",
"D  c #AA4B01",
"F  c #914A31",
"G  c #A8533A",
"H  c #B25334",
"J  c #B27331",
"K  c #C84700",
"L  c #D64C02",
"P  c #DA5804",
"I  c #D0590E",
"U  c #E54D01",
"Y  c #F64A05",
"T  c #E55100",
"R  c #EB5300",
"E  c #EA5B02",
"W  c #F45500",
"Q  c #FD5A00",
"!  c #F85801",
"~  c #EA5A16",
"^  c #D96C1C",
"/  c #EA6302",
"(  c #F46301",
")  c #FC6500",
"_  c #FD6C00",
"`  c #F96B07",
"'  c #FF7301",
"]  c #FF7B01",
"[  c #FF770B",
"{  c #E86D15",
"}  c #D0752B",
"|  c #F86934",
" . c #CD5A38",
".. c #8D5451",
"X. c #B05A46",
"o. c #97664D",
"O. c #B06C49",
"+. c #917665",
"@. c #BB7E6B",
"#. c #C56346",
"$. c #D86A48",
"%. c #D17254",
"&. c #E87C5A",
"*. c #F0754E",
"=. c #C96549",
"-. c #708A3B",
";. c #799648",
":. c #718949",
">. c #758A67",
",. c #6AA66A",
"<. c #54A672",
"1. c #BB8B38",
"2. c #909B3E",
"3. c #FF8900",
"4. c #FF9300",
"5. c #FF9C00",
"6. c #FF9F12",
"7. c #FFA801",
"8. c #FFB301",
"9. c #FFB803",
"0. c #FFAB16",
"q. c #CB8B33",
"w. c #EFA032",
"e. c #FFC536",
"r. c #86A44B",
"t. c #8EB356",
"y. c #8FBB5A",
"u. c #92B657",
"i. c #95BA57",
"p. c #99BC56",
"a. c #93B658",
"s. c #95BA58",
"d. c #99BE59",
"f. c #9AB352",
"g. c #90AF50",
"h. c #A7B44C",
"j. c #8B8A70",
"k. c #9FA45E",
"l. c #F5835B",
"z. c #EE825F",
"x. c #FEAA4F",
"c. c #FE8A65",
"v. c #FA8863",
"b. c #F38F71",
"n. c #FFB56C",
"m. c #8FC35E",
"M. c #9BC457",
"N. c #9ECA57",
"B. c #9CC35B",
"V. c #96C55A",
"C. c #9ACA50",
"Z. c #A1CD57",
"A. c #A2C55B",
"S. c #A3CA5B",
"D. c #ABCC5B",
"F. c #AAC855",
"G. c #A5D356",
"H. c #AADC56",
"J. c #ABD459",
"K. c #A9D858",
"L. c #B3D45C",
"P. c #B4DC5A",
"I. c #BCDC5D",
"U. c #B6D95A",
"Y. c #B1CD53",
"T. c #AEE255",
"R. c #AEE55A",
"E. c #B4E359",
"W. c #BCE45A",
"Q. c #B5E758",
"!. c #ACF05E",
"~. c #93CE65",
"^. c #A3CB61",
"/. c #A5C665",
"(. c #ABD463",
"). c #B2DC65",
"_. c #A0EC67",
"`. c #C2E35D",
"'. c #C7EA5C",
"]. c #CBF15B",
"[. c #FFCB70",
"{. c #CCF063",
"}. c #C1DF5D",
"|. c #0E1B85",
" X c #0F1E85",
".X c #192584",
"XX c #143991",
"oX c #163090",
"OX c #272E88",
"+X c #01758B",
"@X c #0F57A5",
"#X c #0277BC",
"$X c #096BB0",
"%X c #215191",
"&X c #697991",
"*X c #626C9A",
"=X c #027CC5",
"-X c #177DC2",
";X c #068796",
":X c #0593AB",
">X c #2FB0AF",
",X c #1EA3A9",
"<X c #54BB90",
"1X c #5B929B",
"2X c #12DBBC",
"3X c #17E9B3",
"4X c #0BE6B1",
"5X c #2DDBB5",
"6X c #5BD093",
"7X c #058AD4",
"8X c #04B6CC",
"9X c #01BBD3",
"0X c #00BBDA",
"qX c #00B6D3",
"wX c #16BACD",
"eX c #049CE8",
"rX c #02AAF7",
"tX c #01B3FE",
"yX c #09AAE7",
"uX c #2B9ED4",
"iX c #0AC8CB",
"pX c #03C4D7",
"aX c #16CBCE",
"sX c #01C6E3",
"dX c #0BD9E7",
"fX c #1BFFFF",
"gX c #0CE2F0",
"hX c #2AD8D2",
"jX c #46CFDD",
"kX c #4CECC6",
"lX c #4DD0E1",
"zX c #70D4EB",
"xX c #6EEDD4",
"cX c #6AB5E3",
"vX c #8C8B8B",
"bX c #ABAEB0",
"nX c #9F9EA0",
"mX c #D19A92",
"MX c #FDAC8E",
"NX c #EBA590",
"BX c #FFD588",
"VX c #E9DEB6",
"CX c #8CF4DA",
"ZX c #8FE4ED",
"AX c #BBEDF4",
"SX c #ACEBF3",
"DX c #9DDBE9",
"FX c #D0D0CF",
"GX c #FBEBD7",
"HX c #CBF6F0",
"JX c #E9FCFA",
"KX c #FEFFFF",
"LX c #F6FAF9",
"PX c #F0EEEC",
"IX c #E7DBDA",
"UX c #A3E6BB",
/* pixels */
"s.s.i.i.s.s.^.~.B.B.d.m.^ V V N h.~.~.C.Y V N Y m.~.y.s.s.s.s.B.B.s.s.s.s.B.B.s.s.s.d.S.p.s.K.p.i.i.p.i.s.i.s.s.M.^.d.i.s.p.M.B.i.s.s.s.A.M.t.G.N.a.a.",
"s.s.B.B.u.V.h.1.h.y.k.1.~ Y *.*.q.q.x.1.! ( *.*.1.1.s.d.A.f.p.^.^.s.a.s.s.s.s.s.s.i.i.`.W.p.H.N.A.A.a.p.s.^.s.a.^.^.s.a.a.s.s.s.s.s.s.s.L.'.M.G.G.M.D.",
"d.s.d.B.i.m.1.B } _.q.N V N GXKX| B N V 3.6.KXGXN ~ m.m.~.m.V.V.m.m.L.G.a.s.s.s.N.N.a.s.E.Z.H.H.J.G.a.s.s.B.s.s.a.u.u.D.P.p.s.s.a.M.Z.s.s.L.K.G.Q.Z.P.",
"a.s.s.s.a.m.w.V ~ q.` V *.b.[.BX| C ) ` n.BXLXGXC Y q.q.1.} q.q.q.1.^.'.H.a.M.K.W.L.a.s.M.R.Z.N.G.i.i.i.s.p.d.u.L.W.V.i.`.W.d.s.G.E.W.a.s.p.T.G.M.K.s.",
"S.u.Z.H.s.m.q.V C B C V VXKXe.8.Q V 3.6.LXKXKXGXC C V N V V C V B } V.A.'.Z.G.H.d.s.u.s.s.G.G.M.G.s.D.V.s.G.M.s.d.W.K.N.s.`.K.N.T.M.a.a.a.a.N.K.M.G.s.",
"'.G.2.q.1.m.1.V Q _ Q V c.BXe.8.] ) 4.0.PXPXBXn.V | b.l.) Q C ~ } h.!.p.V.Z.H.M.p.G.L.d.B.s.s.a.a.s.I.W.M.K.G.s.s.a.p.T.N.s.G.H.Z.a.Z.L.A.B.i.s.a.i.s.",
"A.!.q.B ^ _.1.N Q 7.Q N 3.9.7.9.5.4.8.9.KXLX4.] B | LXGX5.] B q.~.y.G.K.a.G.K.i.Z.H.D.B.d.s.d.U.L.a.s.L.T.G.M.M.N.s.a.N.T.p.V.H.d.M.H.J.A.M.s.s.G.U.i.",
"a.V.w.C ~ q.~ V ) 4.] ) 5.9.7.5.4.4.7.9.[.[.0.0.MXMXn.x.Q { q.1.u.i.M.K.s.G.N.p.R.N.s.s.a.s.`.'.d.s.s.a.G.H.s.Z.G.a.s.p.K.M.M.K.a.T.G.s.s.a.a.I.{.D.s.",
"s.m.q.V C N V C ) 5.4.4.7.9.5.3.3.4.7.8.7.8.8.e.KXGX3.' B } _.~.m.i.i.s.s.Z.M.M.G.a.}.W.d.G.T.s.s.s.s.s.s.M.i.A.N.a.s.s.s.s.M.Z.s.G.p.J.'.M.N.T.M.s.s.",
"s.y.1.V Q ] ) V Y Q [ 4.5.5.4.4.7.7.8.8.9.8.8.0.x.x.5.] V Y ^ ^ ^ 1.m.s.s.s.a.s.a.s.s.I.G.G.M.s.s.d.s.s.i.i.i.s.s.B.d.s.s.s.s.s.s.s.s.a.L.E.N.G.a.s.s.",
"s.^.q.N Q 5.Q N C B ( 4.4.4.4.4.9.9.9.9.9.9.9.9.5.4.4.] V V V V N } m.p.a.D.E.p.i.i.s.p.M.M.M.d.s.s.s.B.^.a.s.s.s.B.s.s.d.p.A.W.V.p.a.s.a.M.M.M.s.s.s.",
"s.~.q.N | VXbXuX*Xh h l l g l l l l l l l l l l g ..4.3.] ( V ^ h.h.H.`.d.d.`.H.u.K.S.a.a.s.s.B.s.^.d.s.d.i.d.s.s.s.s.Z.'.d.a.I.W.s.Z.J.a.s.a.s.^.d.M.",
"s.m.q.B &.KXDXrX=Xu  X|.|.|.|.|. X X X|. X X Xp |.g 4.4.5.] N  .V.E.`.M.s.a.V.G.G.W.A.i.M.d.i.s.s.d.s.s.s.d.'.M.i.p.T.'.D.i.s.a.Z.G.W.J.a.d.B.s.s.s.s.",
"f.m.1.N X.jXuXoXOXx &Xx bXIXAXIXvXx d oX7XeX7X7XeX#Xg g g g g = % & $ $ $ $ $ % & r.d.i.B.A.p.i.s.s.s.s.s.s.L.J.M.i.Q.D.a.a.s.s.s.T.N.i.s.s.^.i.a.s.s.",
"a.V.q.V X.rX=Xu x vX+.z FXKXLXKXvXz d oXeXrXrXrXtX7Xp  X X X.Xy               .   -.p.g.a.t.p.U.a.s.d.u.L.P.i.N.G.s.K.y.G.P.U.a.s.K.d.s.s.s.s.s.I.d.a.",
"s.~.q.V H XXOXx nXPXbXx FXKXKXKXnXz d .XOXXXoXXXXXoXp p p u .Xu i f i M K P P P P & $ $ $ O & K.A.M.s.s.d.}.'.P.i.d.H.N.'.D.d.d.d.p.i.a.d.`.d.d.K.M.M.",
"s.m.1.C M i OXj.bXKXbXz FXPXLXLXvXz d u p u u p OXOXs .X.X.XOX.XoX.XOXF ! _ ' _ ` @ . . . . % r.F.D.a.s.s.s.d.`.H.p.K.Q.N.a.i.B.B.a.A.J.s.G.G.G.N.Z.L.",
"B.d.f.h.j.i *XLXLXKXbXz *XOXOXOXOXs .X.X.X.X.Xd &.&.#...i @XeXeXeXz C P R T R ; o S / / E L S O & s.V.B.i.s.s.d.G.V.s.M.i.i.s.i.s.s.A.L.G.G.N.M.M.H.s.",
"d.d.B.(.>.i *XKXPXPXnXz d u s u u i d d s s s g v.&.$.X.u %XrXrXtXz C K L L R ; o P ] { { T m   % s.s.d.s.^.d.i.u.s.s.s.s.s.s.s.s.d.s.a.M.N.s.a.s.M.s.",
"a.a.a.A.>.|.OXOXOXOX.X.X..=.G X.#   ;.t...X.=.#.X.#.c.&.H &XrXrXtX$Xs s u H ! / / ' ' >X8XX     $ P.M.a.a.d.M.s.p.p.T.G.s.s.V.a.G.M.a.M.d.a.d.M.d.a.S.",
"s.J.p.P.t.d d i p XXs d ..*.#.X.= * k./.H H $.$.G X.c.%.F z uXuXuX%Xp d d M K ( ] { } ,X:X$ O # = Y.f.M.D.V.W.V.G.K.G.a.a.M.W.M.K.G.i.B.d.a.M.T.M.s.K.",
"a.L.W.A.(.^.-.  j tX&X .&.c.c.v.uXrXHXLX%.$.c.v.X.X.*.F   > [ / ~ h |.F ! ; . K ' >X8XO o X.$.v.z.H O.M.'.S.J.K.Z.K.t.D.D.s.P.G.V.T.i.M.I.d.a.G.K.A.G.",
"p.u.J.N.Z.K.-.  k uXvX$.&.c.c.c.1XuXIXGX%.$.v.&.F F G ..= t I L R M s M K @   F q.>X8X$ @ G H z.&.#.O.g.f.G.V.G.G.M.A.}.M.i.A.'.M.K.H.T.J.d.B.M.H.Z.K.",
"B.s.V.T.M.B.e   4 $.*.c.c.c.c.c.b.b.c.c.c.l.$.G       0 KXnX  < W U Q :       ;XsX0X9X%. .. o H #.l.l.G O.T.T.i.s.G.T.Z.a.p.s.Z.G.M.G.d.s.s.s.s.p.H.H.",
"^.d.s.s.s.B.e   4 $.%.v.&.&.c.c.c.c.c.c.c.v.#.G   O = z KXnXX < W K D t 8 - - :XpX>X>X+.+.- - z +.mXz.H O.g.g.p.s.s.s.s.s.s.s.a.Z.M.a.s.s.s.i.s.a.M.Z.",
"a.s.s.s.a.S.q   , *.X.G  .=.&.v.c.b.c.c.c.c.#.F   = KXKXKXnX  < Q < X nXKXjX0XpX8X#.$.wX0X0XpXpX0X0X,X$. .H O.V.d.s.s.s.s.s.d.B.s.s.s.s.s.s.i.S.M.a.s.",
"s.s.d.d.u.B.;.6 t F G H $.&.NXMXz.%.v.&.&.%.F 4 ; t FXIXKXbXy 5 m 3 & bXKXjX9X9X9X1X+.2XiXiXiXiXiXiX>Xj.j.z >.V.^.(.s.a.a.s.s.B.p.s.s.a.I.P.s.G.S.s.d.",
"s.s.d.^.s.s.s.^.q   4 *.&.c.GXKX@.G $.#.X.F   o U } x nXKXSXtX+X  q Z.VXKXjX9X9X9X0X0X4X3X4X3X3X3X3X2X0X9XsX<Xh.i.s.s.A.S.s.s.s.a.i.V.s.d.'.Z.G.T.S.}.",
"s.s.s.s.s.d.L.N.e 9 t F #.l.NXVX%.G #.H 4 4 : < R ~ o.j.FXbX1Xk   :.VXGXKXjXqX9XpXiXaXxXxXxXxXxXxXxXkXiXiX0X>X<X~.Y.a.S.'.G.a.s.M.K.W.a.a.M.H.Z.G.G.N.",
"s.s.M.N.a.d.I.W.s.(.9   F *.$.$.*.$.X.X.  o U ! ' ` R  .z X.Y c   vXLXKXKXjX9X0X9X4X3XLXLXKXLXKXKXKXHX3X2X9XpXsX<X].K.u.A.].Z.M.R.G.D.a.s.p.K.T.M.K.i.",
"W.M.M.H.s.s.s.A.Z.E.7   , 4 F 4 4 4 4 4 = 0 J } / ( ! I o.H Q c   l vXFXKXjX9XiXaXxXCXJXKXKXKXKXKXLXAX3XaX9X0X0X<XB.N.H.M.A.K.K.G.a.i.M.d.s.i.M.d.p.p.",
"I.W.N.H.M.M.s.s.s.Q.9 X X               z z ^.h.U Y ] ) U T ! 2       nXKXjXqX2X3XJXLXKXKXKXKXKXKXLXHX3X2X9X9X0X<Xh.u.G.K.a.M.T.M.s.T.I.D.B.i.u.V.S.s.",
"i.Z.R.M.s.H.d.s.y.R.w   = = z vXvXvXj.1Xj./.k.j.z +.! E ( E R m 2 @ X 1XxXhXiX6X6XGXLXCXCXZXzXZXxXCXCXCXlX8XpXgX5X<X,.Z.Q.V.M.G.a.G.K.a.a.s.i.S.'.U.a.",
"s.i.Z.M.s.K.d.s.i.Z.9   l vXLXKXLXKXKXLX!.Q.+.1XtXuXW ! ' ( U W ) 1 O j sX3X3Xm.T.PXLX3X4X8XqX9X9X4XkXKXSX8XgXfXdXyX<Xh.V.M.N.G.s.T.M.D.P.p.M.W.P.s.s.",
"i.i.s.s.s.M.d.d.i.B.9   l z *X*XcXzXzXcXj.>.= 8 <X<.> c E E U n > = y $XpX2X3XCXVXJXLXhXaXZXDXDXZXiXlXLXDXqXdXfXgX9X<XF.s.i.p.p.s.d.i.d.`.H.Z.G.a.s.s.",
"s.B.s.s.s.i.d.B.s.B.7   l vXs i =XrXrXeX&Xz   O D.2.  @ Q R Q b   y |.$XpX3X3XHXKXKXJXyXaXKXKXKXHXqXjXKXSX8XdXfXdX0X<Xh.a.i.M.Z.i.s.p.u.M.Z.S.N.a.d.s.",
"d.A.d.a.i.d.p.a.a.K.r.q 0 = p .X-X1XeXeXX.H c 2 0 9 e 0 < < < ; X O * :XpX3X3XHXKXKXLXaXaXJXKXLXHX9XaXzXlXqXdXfXgX9X,.h.U.B.d.'.P.i.M.N.s.s.s.s.B.s.d.",
"s.s.a.L.D.a.s.N.T.'.D.^.6   y .Xx +.yXrX~ R ! S   O ).:.            X j sXaX3XAXKXKXJXwXwXKXKXKXHX9X9X9X9XqXdXfXdX9X6X'.I.d.s.d.E.V.E.L.i.s.s.s.B.s.d.",
"s.s.t.L.W.V.a.G.'.A.t.s.6   l *XbXFX1X*XI R ( P D A 7 = f *   ; D ;   +XpX2X3XHXKXKXJXhXaXlXlXzXlX9X9X9X9X9XdXfXdXwX6X].a.a.s.s.s.T.H.d.i.M.^.s.a.s.s.",
"s.d.J.i.s.H.s.G.Z.a.M.P.6   l z PXKXvX+.P R _ _ ' I   * oXy   3 3.2   +XsX3X3XHXKXKXJX5X3XpX8X8XqX9X9X9X9X9XdXfXdX0X6Xp.d.Z.D.s.s.H.d.a.s.a.s.s.D.s.s.",
"s.d.I.'.J.N.a.G.N.J.W.L.r.-.= $ FXLXIXFX{ R _ _ _ / S 2 * , S P ] 1   :.~.2X9XkXkXJXKXHXAXHXAXAXAXAXZX9X9X9X0XdX>X~.~.M.W.P.L.s.s.S.s.a.d.L.s.a.W.d.a.",
"s.a.d.D.'.U.a.G.R.T.A.u.V.).&   FXKXKXLX~ T _ _ _ ) ! n   > ] _ ] 2   -.F.>XqX2X3XHXKXKXKXKXKXKXKXLXAX9X9X9X8X0X<XF.T.T.H.s.t.^.B.a.d.M.s.W.G.N.N.A.U.",
"B.d.a.t.d.R.G.a.K.M.u.s.a.d.;.;.0 = $.| ( _ _ ~ g h T L n L _ ` ' 2   A { >XpXiXiXkXxXJXKXKXKXKXKXKXAX9X0X9X0X0X6XM.M.G.u.s.s.d.d.s.S.W.M.N.G.G.A.K.M.",
"B.d.B.B.s.s.s.s.a.s.s.s.s.i.d.^.O   m U ` _ ] I |.g R U W ! _ _ ' 2   c R 1X0X9XqX4X3XJXKXLXLXJXLXKXAX9XpX9XiXsX<Xi.a.a.s.s.s.s.a.s.s.s.G.G.s.a.p.Z.u.",
"s.s.d.d.a.s.a.N.G.p.p.s.i.M.N.d.&   + + + ; T E ^ ~ ` _ ` ! R ( _ / P P R & * :XpX9XaXkXkXkXkXkXkXkXhX9XqX0X>X,.y.s.G.S.s.s.s.s.N.M.s.s.a.s.s.s.p.a.M.",
"s.d.s.Z.S.p.G.G.K.i.i.G.M.M.G.t.& .   .   o K E _ _ _ _ ' ( T E _ _ ' E Y ; . ;XpXqXsX2X3X4X3X3X4X3X2X9XqX0X6Xh.S.Z.H.d.a.M.G.s.K.N.u.A.B.i.N.H.M.a.J.",
"s.I.K.L.W.M.T.Z.a.A.y.L.E.Z.6 o v L P / L m o @ R R R E _ _ _ ( R ( _ _ _ P K I I >X0X0X9XpXpX9XpXpXiX0X5X~.).G.G.H.s.d.M.d.`.N.Z.T.a.d.S.d.s.K.Z.M.K.",
"s.d.I.M.G.G.G.t.D.U.i.i.Y.i.& o S E _ _ ! L o @ K L T T _ _ _ E K E _ _ _ T L P I >XaXwXwXwXwX8X9X9X9XqX6XY.V.G.G.N.s.I.D.t.Z.W.s.T.Z.H.`.d.s.N.T.N.G.",
"s.a.M.E.Z.M.Z.G.W.M.y.B.9 X D L ( _ _ _ _ ( L S o ; W R R R ! v . c Q R W : . ;X9XAXJXJXPX{ 1.9X9X9X9XpX>XT.H.C.p.Y.P.P.t.i.M.E.N.N.T.Z.p.s.B.a.M.H.K.",
"^.B.i.N.d.s.s.N.V.B.t.r.& + S ! _ _ _ _ _ ( W S   + K K K K L 1   < L K K & * ,XhXIXGXGXGX' ^ >XwX8X9X:X>Xp.C.f.u.M.M.V.p.s.a.s.G.M.d.a.s.s.s.a.s.Z.G.",
"d.d.s.s.s.s.a.a.a.B.9 . v T ( _ _ _ _ _ R R ! K     . . . . .       . . . +X9XSXLXl.[ [ ' _ ' _ } sX:XX 7 ^.s.M.M.s.s.s.s.s.d.d.s.d.s.s.i.s.s.M.M.s.d.",
"s.s.s.i.s.s.^.B.a.A.9   v Q ) _ _ _ _ ( T L K v           X $ $ % O   X   ;XsXFXGX6.) _ _ _ ' ^ 1.>X;X+ 7 r.;.r.r.r.g.s.s.s.d.B.i.s.p.s.J.Z.a.G.V.a.a.",
"s.i.B.^.a.s.^.d.u.B.9   D ' _ _ _ _ ! R ! K               7 M.d.(.9     X ;XdX1.Y ) _ _ _ _ } pX>XU R ' D           e (.s.a.s.p.s.s.s.s.D.].N.G.H.A.L.",
"s.s.d.s.s.s.d.a.a.'.w   D ' _ _ _ _ S S S n ; +   . @ +   6 M.p.M.q & & 6 j :Xt m W _ ) ) ) ^ >X1XU E ' S @ @ @ @ @ 0 r.Y.M.a.i.d.M.K.a.a.Z.K.Z.T.Z.P.",
"s.s.p.M.a.M.'.P.u.J.w   D ' _ ' ' _ o     . T K   @ W n   7 ^.`.W.p.i.`.Q.&       K ! U T T T T T T E ' ] _ ' _ ( Q >   2.].N.i.H.T.I.s.d.p.T.K.M.K.i.",
"J.u.N.G.s.a.A.P.Z.J.9   D _ ( ( ) ( < ; ; : U m   @ W n   & :.;.P.G.Z.p.W.w & 6 & b m L T T T R T T R ) ( ) ) ' L n 1 ; w r.M.G.H.s.a.a.s.s.V.G.M.Z.i.",
"'.P.M.T.V.s.s.a.M.Q.7 X v Q U U T T R R R R ! K   + Y v       9 ^.V.T.M.i.G.R.M.M.$   P W W R T R T T U T T E ] 2   A ] >   -.!.M.s.G.I.D.B.s.i.s.s.s.",
"d.T.H.M.M.G.s.s.s.Q.-.& 2 D L T T T T L U L n v : < W n   X * = -.;.K.H.a.G.Z.a.N.w & v v v n T T T T T T U T _ 2   D ] >   -.Q.u.M.T.M.d.s.a.d.P.I.s.",
"s.s.H.N.s.H.d.s.d.M.G.^.6   m Q W W W E Q L   . R R Q n   * .Xy   q B.Z.i.G.S.p.T.G.d.X   . o R W T R T R W W Q 1   A ] >   r.T.a.T.Z.M.M.s.s.I.'.A.s.",
"s.s.s.s.p.S.s.s.s.s.a.d.e 9 3 b 1 c c c c 1 < 1 U K b , * f @Xy   q ^.t.s.V.M.M.A.a.Y.r 9 9 0 c v T U U S c c c 1 < S _ >   -.Z.s.Z.a.D.'.G.S.T.s.a.p.",
"s.d.i.d.s.s.d.B.s.s.s.s.d.S.$             o W Q Q m   * .XXX7Xj   q /.a.s.a.s.s.i.i.a.W.R.E.g.  o Q W Q v       2 3.Q Y >   ;.(.i.i.i.t.S.H.Z.Z.a.s.s.",
"s.^.s.i.s.s.s.d.s.d.M.a.I.P.e 9 9 q O . . o < 1 1 , * y p XX7Xj   q B.M.a.L.`.M.i.i.s.u.s.V.r.q 0 1 1 1 1 1 1 2 S ( n 1 #   6 r g.i.i.p.s.s.M.d.d.s.d.",
"s.s.s.A.M.s.a.M.N.W.L.s.M.`.R.^.].B.O             * OX.Xi XX7Xj   q '.W.s.s.I.T.i.E.S.a.s.a.d.).;.      : Q _ ] ) Q :           C.J.J.J.a.s.s.s.B.d.B.",
"s.d.t.I.`.a.a.G.].U.a.s.s.s.N.H.L.i.e e e e e 9   * @X@X@X@XXXf   -.{.i.i.s.a.Z.K.W.d.a.^.B.a.a.g.w e e 0 : > < < > = y *   X   6 9 K.D.a.B.A.s.s.s.s.",
"s.d.s.M.S.G.i.G.J.i.i.d.s.s.Z.K.u.i.B.^.S.A.^.;.X * 7X=X7X@Xu y   e A.a.d.s.a.M.H.s.s.i.d.M.s.s.d.^.B.(.e       X X y OX*           g.V.V.s.B.s.s.s.d.",
"s.d.`.P.d.K.a.G.M.M.T.W.A.u.Z.S.i.i.d.d.t.A.I.;.X * XXXXXXoX.X*   q A.H.E.L.u.M.G.a.s.d.d.y.M.}.a.u.i.a.p.2.-.-.8 y a  Xj XXj XXa f = 7 g.M.i.a.I.M.a.",
"d.i.A.`.'.Z.a.G.K.Q.P.a.s.^.s.s.u.a.P.P.i.Z.Z.r.  * u .Xu p OXy   w Q.W.d.s.B.d.s.s.u.S.W.p.N.Z.A.A.i.s.s.`.{.].x |..Xu $X=X=X=XoXu     u.].V.M.G.M.D.",
"s.s.i.t.D.Q.S.M.R.Z.a.s.s.A.s.s.L.G.p.H.Z.K.V.F.-.q * * .Xp .Xy   -.Q.i.s.i.^.s.a.J.J.p.K.G.K.M.L.A.u.i.s.y.p.W.N.j.k  X@X#X=X#X$X@Xf y & 9 G.G.N.D.D.",
"B.d.s.s.u.M.M.s.M.s.s.s.s.i.s.s.S.Z.K.Z.d.d.G.N.^.;.  * .Xi .Xy   q B.a.s.s.i.a.s.A.S.G.G.s.M.N.G.t.d.B.s.d.s.p.Z.G.x  X@X=X#X=X=X#XOXa   X M.M.M.K.a.",
"d.s.M.^.i.a.a.M.M.s.s.s.s.s.d.s.a.i.M.s.a.i.d.i.M.:.  5 mXmXNXh   w S.a.s.s.s.M.s.s.a.M.M.s.a.s.d.M.s.s.i.^.s.s.t.B.8 X a oX@X=X#X#X$X@XX X $ 7 s.s.V.",
"s.a.a.M.p.s.M.Z.T.s.i.M.s.N.G.a.d.^.a.s.Z.N.i.s.'.;.  5 MXMXMX+.  -.G.u.M.V.s.K.s.s.A.s.a.M.Z.d.a.U.Z.u.a.p.V.i.V.S.9   y .X$X=X#X#X7X$XX     $ M.a.Z.",
"s.P.N.L.E.M.T.G.p.a.i.I.K.M.T.M.s.A.s.a.G.K.a.Z.J.t.f.:.& # # w g.g.s.i.D.W.p.R.Z.a.^.s.a.N.T.s.M.J.d.A.P.M.`.Z.Z.Q.9   ..NXmXmX+...mXmXX.F   % A.M.J.",
"s.D.`.d.P.N.H.i.M.I.s.A.E.M.G.G.p.P.L.y.V.T.N.G.s.a.L.r.      w K.s.I.A.s.P.N.N.K.s.K.I.s.a.H.G.G.Z.a.d.`.Z.D.K.G.H.9 X o.MXMXMX#.G NXMX%.H . % R.M.K.",
"s.a.S.G.G.M.G.M.W.A.s.a.I.H.M.E.H.K.d.B.p.N.G.K.V.s.a.a.C.f.g.C.M.P.L.a.a.L.W.M.T.R.H.M.B.M.M.G.G.Z.s.s.a.K.G.N.N.N.p.F.0 O O # o o O + o o   $ K.G.G.",
"B.d.M.K.M.s.M.K.G.s.s.s.s.G.M.Z.M.i.i.i.p.i.N.T.p.M.B.s.H.G.V.p.G.K.M.a.s.a.Z.N.M.Z.a.a.s.s.i.p.E.B.s.B.i.Z.K.s.s.G.H.H.7                     $ s.H.K."
};
