/* XPM */
static char *result[] = {
/* columns rows colors chars-per-pixel */
"75 75 255 2 ",
"   c #000000",
".  c #0A0705",
"X  c #1B0A00",
"o  c #160901",
"O  c #14190B",
"+  c #090D15",
"@  c #250D00",
"#  c #2F170B",
"$  c #1C2210",
"%  c #333D1C",
"&  c #293017",
"*  c #090C29",
"=  c #081432",
"-  c #0C2933",
";  c #2E3230",
":  c #341A25",
">  c #491A00",
",  c #551E00",
"<  c #481E16",
"1  c #592302",
"2  c #582A1C",
"3  c #4B260E",
"4  c #672700",
"5  c #732A00",
"6  c #7D2C00",
"7  c #74370A",
"8  c #713828",
"9  c #503731",
"0  c #38451D",
"q  c #3A4821",
"w  c #455727",
"e  c #505D35",
"r  c #525E29",
"t  c #6A4628",
"y  c #56652C",
"u  c #576933",
"i  c #5C7436",
"p  c #52692A",
"a  c #637738",
"s  c #604514",
"d  c #10154C",
"f  c #121855",
"g  c #0D1546",
"h  c #05304E",
"j  c #161E6A",
"k  c #1A237E",
"l  c #1D2679",
"z  c #0D326F",
"x  c #2A2A78",
"c  c #342D76",
"v  c #373271",
"b  c #2D2246",
"n  c #413768",
"m  c #46336D",
"M  c #7E3649",
"N  c #094D75",
"B  c #04626B",
"V  c #254C5D",
"C  c #4E4D4C",
"Z  c #767677",
"A  c #6C6C70",
"S  c #5B6264",
"D  c #832F00",
"F  c #893500",
"G  c #973600",
"H  c #A13900",
"J  c #A93D00",
"K  c #B03E00",
"L  c #873D32",
"P  c #FF3D00",
"I  c #F33C07",
"U  c #A44500",
"Y  c #B84800",
"T  c #914833",
"R  c #AB573D",
"E  c #A9563C",
"W  c #B65A3A",
"Q  c #A35823",
"!  c #C54500",
"~  c #CC4900",
"^  c #D84D00",
"/  c #D85801",
"(  c #C9530D",
")  c #F84A06",
"_  c #E65100",
"`  c #E95500",
"'  c #EA5A02",
"]  c #F25E00",
"[  c #FF5500",
"{  c #EB540E",
"}  c #DC6C1E",
"|  c #E96303",
" . c #F66300",
".. c #FB6500",
"X. c #FE6D00",
"o. c #F96F0B",
"O. c #FF7A00",
"+. c #FE7302",
"@. c #E46617",
"#. c #EF761C",
"$. c #C55C23",
"%. c #CB7C2C",
"&. c #D37626",
"*. c #D27027",
"=. c #FF5E2B",
"-. c #B45C46",
";. c #B96246",
":. c #AD6E4F",
">. c #9A6A5C",
",. c #C96445",
"<. c #D16645",
"1. c #D86C4B",
"2. c #D67354",
"3. c #E87B59",
"4. c #F17E5B",
"5. c #D06F51",
"6. c #843045",
"7. c #6A843B",
"8. c #748D3C",
"9. c #7A9946",
"0. c #6F8A42",
"q. c #768C6A",
"w. c #5F9B77",
"e. c #71D87A",
"r. c #BB9039",
"t. c #FA8803",
"y. c #FF9200",
"u. c #FF9A04",
"i. c #FF9C1A",
"p. c #FFAA02",
"a. c #FFB300",
"s. c #FFB70C",
"d. c #FFB61C",
"f. c #CE862E",
"g. c #F58B2E",
"h. c #FFAB2F",
"j. c #8D9D46",
"k. c #85A649",
"l. c #89AB50",
"z. c #96BB58",
"x. c #99BE59",
"c. c #96B855",
"v. c #92AF50",
"b. c #ABAF4C",
"n. c #8A8973",
"m. c #89AA66",
"M. c #B19C6E",
"N. c #F4825E",
"B. c #FFAB44",
"V. c #FF8A65",
"C. c #F88561",
"Z. c #FD9B77",
"A. c #D6936A",
"S. c #9CC657",
"D. c #9FCA57",
"F. c #9BC259",
"G. c #9FC958",
"H. c #97C34E",
"J. c #A1CD57",
"K. c #A3C55A",
"L. c #A5CC59",
"P. c #AACC5B",
"I. c #A9CC57",
"U. c #A4D357",
"Y. c #A7D856",
"T. c #AADC56",
"R. c #ABD459",
"E. c #AEDA58",
"W. c #A7D358",
"Q. c #B3D45C",
"!. c #B4DC5A",
"~. c #BBDB5D",
"^. c #B8D85B",
"/. c #ADE156",
"(. c #B5E258",
"). c #BBE35A",
"_. c #B4E457",
"`. c #A2C961",
"'. c #A9CB6E",
"]. c #96D366",
"[. c #C0DF5D",
"{. c #FFC94F",
"}. c #C2E35D",
"|. c #C3E95C",
" X c #D0EB60",
".X c #FFC339",
"XX c #192882",
"oX c #15368C",
"OX c #262F85",
"+X c #124497",
"@X c #085090",
"#X c #017887",
"$X c #04688F",
"%X c #1156A6",
"&X c #0277BD",
"*X c #0578BD",
"=X c #0C6BB4",
"-X c #2F5C9B",
";X c #58748D",
":X c #626B8F",
">X c #8C7E84",
",X c #0098AB",
"<X c #2EB2AE",
"1X c #1BA2AB",
"2X c #588D8E",
"3X c #59A794",
"4X c #2EC5B3",
"5X c #1DE9B6",
"6X c #1AE5B9",
"7X c #22DDBC",
"8X c #56CA91",
"9X c #2D9BCA",
"0X c #00BCD4",
"qX c #0ABFD6",
"wX c #0EB9C8",
"eX c #0699E7",
"rX c #03A9F4",
"tX c #0BA4EB",
"yX c #1F9ADD",
"uX c #0BCCC9",
"iX c #12D8C2",
"pX c #04C5D8",
"aX c #17CAD0",
"sX c #2CCED6",
"dX c #35E5C4",
"fX c #13EFF5",
"gX c #18FFFF",
"hX c #0FE6EF",
"jX c #52CBE9",
"kX c #63D6E5",
"lX c #6AC8F5",
"zX c #5CEBCF",
"xX c #46A1CE",
"cX c #909091",
"vX c #A2A2A2",
"bX c #B6B6B6",
"nX c #A29997",
"mX c #FAA88F",
"MX c #DF9F95",
"NX c #FFD3B1",
"BX c #D8E8B2",
"VX c #A1B5C9",
"CX c #93F3DA",
"ZX c #AAF0EA",
"AX c #9BE3E0",
"SX c #D2D2D4",
"DX c #FFE7D9",
"FX c #EEF1DC",
"GX c #DDDFEC",
"HX c #DBF8F6",
"JX c #CCF7F1",
"KX c #FFFFFF",
"LX c #F6FAF9",
"PX c #EBF3F1",
"IX c #EADFCB",
/* pixels */
"e z.z.z.z.z.z.x.x.z.z.z.z.@.I P P v.x.`.c.P P P ) z.z.z.z.z.z.z.x.x.z.z.z.z.x.F.z.z.z.z.F.F.x.U.G.z.z.z.z.z.z.z.z.z.F.x.x.z.z.z.F.x.z.z.z.x.G.z.F.Y.x.",
"e z.z.x.x.z.x.b.&.b.z.r.%.{ P mXmX%.&.g.&.X.o.mXZ.%.r.z.z.x.z.z.`.'.x.x.z.z.z.z.z.z.z.z.^.).D.U.J.x.K.z.z.z.x.x.z.F.'.F.z.z.z.z.z.z.z.z.z.K.}.U.F.T.F.",
"e z.z.x.F.z.z.*.P f.Q.#.P P P DXKX) P P ) y.i.KXDXP { c.c.x.z.c.z.x.x.'.R.F.z.z.z.F.D.z.x.I.Y.U./.J.E.z.z.z.x.x.z.z.z.x.F.~.G.z.z.z.x.J.F.z.K.E.S./.D.",
"e z.z.z.z.z.F.g.P { } ) P mXNX{.{.) P +.O.NXNXKXDXP P } @.} } } } } f.F.[.E.x.z.U.(.).z.z.F./.J.S.U.x.z.z.z.z.x.z.K.).F.x.R.).F.z.D.T.}.K.z.z.Y.T.F.U.",
"e F.F.G.U.F.z.*.P P P P P NXLXh.a.) P y.u.KXKXKXDXP P P P P P P P P f.F.F.).R.U.T.F.z.z.z.z.G.T.S.U.z.x.F.z.J.D.z.z.Q.(.D.F.Q.).D./.U.x.z.z.z.x.T.U.U.",
"u }./.f.} r.z.&.P ..O.[ P g.{.p.a.O.O.p.s.KXLXB.B.P =.NXZ.....P @.r.b.T.D.F.J.T.D.x.U.R.F.F.z.z.z.x.z.P.}.L.J.Y.x.z.z.z.U.Y.z.D.U.U.z.D.W.P.x.z.z.x.z.",
"e K.(.f.P %.D.&.P X.y.[ P y.p.a.a.y.y.a.s.KXFXu.O.I =.LXNXu.O.P *.c.z.J.Y.F.G.Y.F.F.T.P.F.x.z.z.U.~.z.z.I./.U.D.x.J.z.z.F./.S.x.Y.D.x.Y.L.L.x.x.z.S.!.",
"e x.F.f.P { @.) P +.y.O.O.p.a.u.u.y.y.a.p.{..Xa.d.NXNXB.g.[ @.b.b.z.z.F.Y.F.G.U.x.Y.Y.z.z.z.x.^. XK.z.z.x.D./.D.x.Y.z.z.z.D.U.x.Y.x.J.E.F.z.z.z.S. X^.",
"e z.x.%.P ) P I P X.y.y.y.p.a.y.y.y.y.a.a.a.a.a.d.KXDXy.+.P } G.F.z.z.z.z.z.G.G.z.J.z.P.}.J.G.T.x.z.z.z.z.z.z.z.x.J.z.z.z.z.z.x.J.x.G.F.x.}.E.F./.D.z.",
"e z.x.%.P [ t.[ P ) ) +.y.y.u.y.y.p.p.a.a.a.a.a.s.h.h.y.O.P ) { { { r.z.z.z.z.z.z.z.z.z.R.T.G.J.z.z.z.z.z.z.z.z.z.z.x.x.z.z.z.z.z.z.z.z.z.K.!.J.T.z.z.",
"e z.`.%.P ..t.[ P P P X.y.y.y.y.y.a.a.p.a.a.a.a.p.y.t.y.O.P P P P P &.z.x.z.`.(.S.z.z.z.z.F.F.F.z.z.c.z.z.`.c.z.z.z.x.x.z.x.z.x.~.J.z.x.z.z.x.x.S.x.z.",
"e z.x.%.P Z.PXVX9X-Xm v n v n n v n n m n n n n v m C y.y.O...P } b.b.U.~.F.x.Q.!.F.J.L.z.z.z.z.F.z.`.K.z.x.x.x.x.z.z.x.G.!.I.z.L.).D.F.E.z.z.z.z.x.F.",
"e z.z.%.P mXLXAXtX+Xk k x OXOXOXXXXXXXXXk XXXXXXXXk n t.O.t.| I $.z.Y.!.c.v.v.v.S.S._.I.x.x.F.x.z.z.z.z.z.z.z.}.I.z.z.Y.).~.z.z.z.F.U.T.~.z.z.x.z.z.z.",
"e z.z.%.P >XtX=XoX-XA A A VXGXGXGXZ A XXXXeXeXeXeXeXyXv v m v v b O $ $ O O O O O O k.x.z.x.F.x.z.z.z.z.z.z.z.P.U.D.z.Y.Q.x.z.z.z.z.U.U.x.z.z.`.x.z.z.",
"e z.x.f.P Z tX=Xx :XcXZ Z SXKXKXKXn.A k XXeXeXeXeXeXeXj k k k XXf   +   . o o o X o 8.l.l.l.l.l.Q.x.z.z.z.K.~.K.F.Y.z.Y.F.F.U.!.F.z.U.F.z.z.z.z.z.L.L.",
"e x.x.%.P 6.x n A SXKXvXZ SXKXKXKX:XZ k XXXXXXk XXk k k XXk k XXk k k k L _  .o.X.X.#         . S.F.x.z.z.x.P.|.).S.x.Y.J.(.Q.z.z.x.z.z.z.z.^.I.z.G.G.",
"e z.z.%.{ M XX:X>XSXKXvXA SXGXGXPX:XA XXk k k k XXc c x x XXXXoXoXoXXXx L _ ] ..| | > X X X X X 9.v.Q.z.z.z.z.z.~.T.F.J./.J.z.z.x.`.z.z.L.F.D.T.S.Y.F.",
"e x.x.x.z.S k VXKXKXKXvXZ c k k k x k XXXXk k k c V.V.<.>.XX%XrXtXtX:X) ` _ ` _ ,   ( X.+.X.' _ o . v.z.F.z.z.z.x.J.F.z.D.F.z.z.z.z.z.z.R.U.U.J.F.D.U.",
"e x.x.x.x.:Xk :XGXGXGXcXA v c c c j j c c x x c m C.N.1.-.x %XtXrXrX:X( ( ( _ _ 4 @ / X.} &.! Y . . c.z.F.z.F.F.z.z.z.z.z.z.z.z.z.z.z.z.z.x.K.x.z.z.S.",
"e z.x.z.z.S XXOXXXXXXXXXXX>.<.R E .   z.c.E W <.,.E ;.V.2.-.:XtXrXrX=XXXXXXXL _  .+.X.X.<XpX+     . S.D.z.z.x.F.x.z.x.Y.T.z.z.F.x.G.U.z.z.x.z.x.F.F.z.",
"e z.`.F.`.q.v x j OX+Xc c -.1.;.;.- = '.'.-.W 1.<.-.-.N.2.T A 9X9X9X-XXXc v L ! | X.&.&.1X,X$ # # # c.b.F.L.F.!.J.D.Y.U.F.z.z.E.J.D.Y.x.x.`.z.x.U.Y.z.",
"e F.Q./.K.(.D.p . $XrX>X1.4.V.V.V.tXrXKXLX<.<.V.N.E R <.T   1 +. .` L XX6._ 1   U +.<X0X=   W <.V.V.-.-.x.~.Q.P./.D.Y.F.F.L.z.P./.F.T.G.x.R.K.z.F./.S.",
"e z.z.S.U.Y.D.w   N 9X>X1.4.V.V.V.xX9XDXDX1.1.4.3.T T E T ; t ~ ^ _ L m 8 Y >   T %.<XwX; : T E 3.N.;.;.v.v.I.G.T.G.U.x.~.K.z.F.}.R.U././.T.F.K.x.D.D.",
"e x.F.S./.D.S.q   L 1.4.V.V.V.V.V.V.V.V.V.V.V.1.W       C KXvX  4 _ _ _ 5       #X0X0X0X:.*.O . T -.V.V.-.R J.E.F.x.D./.R.x.z.z.x.U.x.U.F.z.z.z.z.z.U.",
"e `.x.z.z.z.z.q   8 1.3.3.3.4.V.V.V.V.V.V.V.C.,.E   + C cXLXvX  , ` ! H t C ; h ,XwX<X<X>.>Xh - A >.M.nXW ;.j.v.z.z.z.z.z.z.z.z.z.F.G.z.z.z.z.z.z.z.z.",
"e z.z.z.z.z.z.w   L <.W -.,.<.C.V.V.V.V.V.V.C.R T   ; KXKXKXvX  1 _ 6   cXLXkXpX0X0X>.<.9XqX0X0XpX0XqX0X<.<.-.W z.z.z.x.z.z.z.z.F.z.x.z.z.z.z.z.x.J.z.",
"e z.z.z.z.z.x.7.q t T E -.1.1.mXmX3.3.4.4.3.2.8 8 > 2 SXGXLXVXh 9 G 7 q nXKXkX0X0X0X2Xn.iXuXuXuXuXuXuXuXn.>.Z q.z.F.'.F.z.z.z.z.x.z.z.z.z.L.).F.F.Y.z.",
"e z.z.F.`.z.z.z.c.0   T *.N.V.LXKX-.-.<.<.-.T   X ` / Z vXKXZXrX$X  q F.BXKXkX0X0X0XqX0X6X5X5X5X6X6X6X6XpXpX0XwXz.z.x.z.x.F.x.z.z.z.z.F.z.z.Q.(.S._.J.",
"e z.z.z.z.z.x.Q.F.0.u t 2 ,.3.MXMX;.;.W W 2 2 6 F  .| W M.bXnXZ e   S BXFXKXkX0X0X0XuXiXCXCXCXCXCXCXCXCXiXuX0XqX3X8XR.F.F.^.(.F.z.F.U.).F.z.z.Y.U.U.U.",
"e z.z.F.J.z.x.Q.(.F.z.0   T <.<.<.5.,.-.E   o ^ ` X..._ $.A :._ D   Z KXLXKXkX0X0XpX6X5XHXKXKXKXKXKXKXKX5X6X0X0XpX4X~.(.x.x.~.!.G.Y.U.I.x.z.z.D./.J.U.",
"a }.F.S.U.z.z.x.F.U.Y.0   : 2 2 2 2 2 2 < C e r.f.| ]  .{ W $._ D . ; A bXKXkX0XuXiXCXCXLXKXKXKXKXKXKXKX5X6X0X0X0X<Xx.F.T.U.F.Y.J.U.x.z.z.z.z.z.F.x.x.",
"e `._.J.Y.S.S.z.z.z.Y.0     .           + Z A G.b._ ` X. ._ _ _ F       cXKXkX0XiX6XJXKXKXKXKXKXKXKXKXKX5X6X0X0X0X4Xz.x.F.T.F.x.T.J.z.Y.T.^.F.x.z.F.L.",
"e z.J.T.G.z.U.x.z.z.U.q . ; C cXnXvXcXvXnXm.K.m.n.2XZ ' ] ] ] _ ! F >   S kXsXiX8Xe.FXKXCXzXkXkXkXkXzXCXZXCX0XpXhXhX<X8Xc.Y.I.S.Y.F.S.Y.F.x.z.z.x.~.[.",
"e z.x.G.F.x.Y.x.z.z.x.%   C Z LXKXKXKXKXLXP.^.Z 2XrX9X_ ] X. ._ _ _ D   B 0XiX5Xe./.FXLXzX5X0X0X0X0X5X5XKXLX0XpXgXfX0X4Xc.H.S.x.U.x.U.U.S.~.D.x.Y.).K.",
"e z.z.z.z.z.x.z.z.z.z.%   S Z :X:XlXjXlXlXn.q.: ; 3Xw., D ' ` _ K , : f $X0XiX5XCXBXLXKXdXuXAXZXZXZXuXaXKXHXpXpXgXfXqX<Xz.z.c.z.x.x.x.x.x.Q.).S.T.x.z.",
"e z.F.x.z.z.z.x.x.z.z.%   C A x XXrXrXrXtXZ A   $ K.9.  > ` ` _ D   = XX=XpXiX5XZXKXLXKXsX0XHXKXLXKXqXpXKXHX0XpXgXfX0X<Xz.z.z.z.K.G.z.z.z.z.J.S.U.z.z.",
"e z.`.z.z.z.z.z.z.z.J.l.0.; ; l XX;X2XrXtX$.$.H G 0 q 0.y > > > @   + * #X0XiX5XZXKXKXKXsX0XPXKXLXLXqX0XjXjX0XpXgXfXuX<Xx.U.P.c.^.).S.x.D.z.z.z.z.x.x.",
"e z.z.z.P.L.z.z.G.Y.}.P.x.&   j XXA :XrXtX_ _ _ !   O c.7.              B 0XiX5XZXKXKXKXsX0XHXKXKXLXqX0X0XuX0XpXgXfXqX4XT.}.K.z.x.R.J.U.).z.z.z.z.x.z.",
"e z.z.z.I.!.F.x.U.}.K.x.x.&   S S SXSX2X2X_ `  .| Y U & ; f =   , Y 4   B 0XiX5XZXKXKXKXdXiXjXsXjXjXpX0X0X0X0XpXgXfX0X4X).K.z.z.z.z.U.T.K.z.z.`.z.z.z.",
"e z.z.L.S.z.Y.x.U.G.z.G.`.%   S :XLXKXZ Z _ ` X.+.+./   * k f   4 X.F   B 0XiX5XZXKXKXKXdXdXpX0X0X0X0X0X0X0X0XpXgXfX0X4XF.x.S.P.x.z.U.S.z.z.z.z.z.F.K.",
"e z.z.~.}.R.J.x.U.D.U.).R.v.k.$ O PXKXPXFX_ )  .X.X. .~ F + 3 ' | X.F   i ].4XuXdXdXHXKXPXHXHXHXHXHXHXHX0X0X0X0XpX4Xm.].J.Y.(.R.F.z.F.F.z.z.P.F.z.L.W.",
"e z.x.x.P.}.E.z.U.Y.T.P.z.x.`.O o PXKXKXLX_ ` X.X.X. ._ G   1 +.O.X.F   u x.<X0XiX6XJXKXKXKXKXKXKXKXKXLX0X0X0X0X0X<Xz.Y././.K.z.x.G.x.z.z.z.R.Y.F.U.F.",
"e z.z.z.z.z.U.U.z.U.F.z.z.z.z.l.l.$ + { @.X...X.{ x m _ _ ^ _ X.X.X.F . 5 ' 2X0X0XpX7XdXHXKXKXKXKXKXKXLX0X0X0X0X0XaXU.z.U.x.z.z.z.z.z.F.~.U.F.U.F.U.Y.",
"e F.x.x.F.z.x.x.z.z.z.z.z.z.z.z.c.. . _ ` X.X.X.@.j m _ _ _ ' X.X.+.F . 5 _ w.qX0X0X5X5XHXKXKXKXKXKXKXKX0X0X0X0X0X<Xx.z.z.z.z.z.z.z.z.z.x.S.Y.F.z.x.D.",
"e z.z.x.`.z.z.z.S.U.x.z.z.z.H.D.z..         X _ ` X.X.X.X.X. ._ | +.X.X.] _ ,   #X0X0X0X7X6X5X5X6X5X5X5X0X0X0XwXz.x.x.G.D.x.z.z.z.F.S.z.z.z.z.z.z.x.z.",
"e z.z.z.S.G.x.U.U.J.z.z.D.S.F.U.v.o . . . . @ ^ _ X.X.X.X.+. ._ ] X.X.X.] ` 1 . B wX0X0X7X6X5X5X6X5X6X6X0X0XwX4XF.F.D.U.S.x.x.D.F.D.J.z.x.`.z.x.Y.U.z.",
"e z.}.!.R.).D./.L.x.F.z.Q._.D.O . ~ _ X..._ ~   @ ` _ ` ' X.X.X. ._ ] X.X.X.] _ | ' <X0X0XqX0X0XpX0X0X0X0XwXU.~._.D./.G.x.F.z.^.!.D./.G.x.F.F.z.S.Y.x.",
"e z.x.^.G.Y.D.U.c.K.^.x.x.S.l.# X / ` X.X.` ^ X @ ! ^ _ ' X.X...' ~ / X.X.../ ~ ( $.<XsXaXaX9XwX0X0X0X0X0XaX^.F.Y.D.U.z.I.^.z.F.!.S.U.U.L._.I.x.F.T.D.",
"e z.z.F.E.J.F.G.Y._.F.z.z.&   ^ _ X.X.X.X.X.X.` !   @ ` _ _ _ _ F   4 _ _ _ 1   #X0XJXKXKXKX#.o.wXpX0X0XpXwXD.T.D.F.J.Y.(.z.z.x.P.U.F.T.J.F.z.x.z.x.U.",
"e `.x.x.F.z.x.x.F.F.z.l.9.% X ^ ` X.X.X.X.X. ._ !   @ ! ! ! ! ! 5   , ! ! ! 3 + 1XsXSXDXDXDX#.+.3X1X0X0X,X1XF.F.z.z.F.F.F.z.z.z.z.J.J.F.x.x.z.z.z.z.x.",
"e z.z.z.z.z.z.z.z.z.z.%   H _ X.X.X.X.X.X._ _ _ !                           #X0XZXLXg.X.X.+.X.X.X.o.wX0X  O z.x.z.z.z.z.z.z.z.z.x.z.z.z.z.z.z.z.x.F.z.",
"e z.z.z.z.z.x.F.x.z.z.%   J ` X.X.+.X. . ._ _ Y H           . $ & $ O       #XwXVXDXg.X.X.X.X.X.&.*.<X1X# # 9.9.9.9.9.k.z.z.z.z.F.z.z.z.z.F.L.x.F.U.z.",
"e z.z.x.`.z.x.`.x.z.x.%   Y +.+.X.X.X.` _ _ ^               0 z.x.`.e       #XpX>.'  .+.X.X.X.o.wXwX/ _ X.|           0 z.z.z.z.z.z.z.z.z.K.).E.S./.S.",
"e z.z.z.x.z.z.z.z.z.}.0   Y X.X.X.X.X.G H G F > >   . > #   q z.z.z.7.0 0 0 B #Xt G '  . . . . .w.2X_ _ X.| 1 1 1 1 > 2 7.v.D.z.z.z.z.U.x.z.x.E.S./.D.",
"e z.z.z.x.z.K.}.R.x.G.0   Y X.X.X.X.X.      o _ !   @ _ H   q z.~.).G.z.~.(.q .     U ` _ _ _ _ _ _ _ ` X.X.X.X.X. .` H . q |.U.x.J./.}.K.z.z.U./.x.U.",
"u R.x.K.U.z.z.F.R.U.D.0   Y  . . . . ., , , 4 _ !   @ ` H   $ a 0.R.L.U.S.E.8.q q q D F ^ _ _ _ _ _ _ _  . . . .X.| F 6 4 s 7.v.G.Y.G.z.z.z.z.z.U.D.D.",
"u }.Y.D.T.S.z.z.z.F.T.0   J _ _ _ _ _ _ _ _ ` _ !   @ _ G       w c.F.U.D.x.D./.G.x.&   ! _ ` _ _ _ _ _ _ _ _ ` +.!   , X.U   w Y.U.x.U.T.Q.F.x.z.z.z.",
"e F.T.Y.F.x.U.x.z.x.T.7.q 7 D ^ _ _ _ _ _ _ ^ D D 4 6 _ H   + = ; u 0.J./.F.D.U.x.F.i q 7 F D D ^ _ _ _ _ _ _ _  .Y   , X.U . w Y.H.z.Y.K.F.x.z.z.S.).",
"e z.x.U.D.x.U.x.z.z.x.D.x.&   ~ _ _ _ _ _ _ ~   X _ _ _ H   = k d   w z.D.F.D.U.x.T.J.K.$       ^ _ _ _ ` _ _ _ ' U   > X.U   w Y.F.U.Y.F.I.F.x.L.|.P.",
"e z.z.z.z.x.J.x.z.z.z.z.x.a w 7 5 5 5 5 5 5 5 5 D _ ^ 5 3 g j %Xz   w z.z.z.F.S.z.G.z.L.8.p p y 5 5 _ _ _ ^ 5 5 5 5 F U | U   w S.x.S.F.F.~.(.F.T.L.z.",
"e z.z.z.z.z.z.x.F.z.z.z.z.z.z.O             X _ _ _ !   * k oX&XN   w x.z.z.z.z.z.z.z.z.L.T.S.F.O   ^ ` ` ~       # X. ._ F   w F.c.x.c.z.x.E.J.T.z.z.",
"e z.`.z.z.z.z.z.z.z.F.x.z.Q.E.i p u u       . 4 4 4 , g f k oX&XN   w x.S.x.J.~.J.x.x.x.z.F.x.z.u y 4 4 4 4 6 D G U ] ~ 4 >   $ p 8.F.x.F.z.z.z.F.z.z.",
"e z.z.z.K.x.z.z.F.G.(.^.z.x.^.Y.F.!.F.              + XXXXXXoX&XN   w !.[.F.z.P.(.F.U.R.z.z.c.z.F.c..     X _ ' +. ._ H           i J.J.!.z.z.z.z.x.x.",
"e z.z.z.Q.!.x.x.U.).Q.x.z.z.F.U.T.^.x.u i i u u e   + %X%X%X%X+Xh   p }.K.z.z.z.G.U.(.L.z.x.`.z.z.c.i u u u 1 4 5 4 4 < d *       $ w k.Q.z.z.`.x.z.z.",
"e z.z.z.K.L.U.x.U.R.x.z.z.z.z.G.U.x.x.z.F.x.z.z.k.  * &X&X&X%Xk d   y K.z.z.z.z.x.Y.G.z.z.x.F.z.z.z.z.z.z.l.          * k d           i z.z.z.x.x.z.z.",
"e z.x.}.Q.F.U.x.U.D.D._.).L.c.G.J.z.z.x.x.z.K.[.k.  + oX+XoXoXk d   w F.Y._.~.z.x.U.z.z.x.F.z.z.~.x.z.z.z.x.k.8.0.0.j j XXz N @X@Xz f ; % 0.F.x.x.L.R.",
"e z.z.K.}.}.J.c.U.U._.Q.z.z.F.z.z.z.z.P.!.x.J.J.l.  + k k k k k d   p Y.~.F.z.F.x.z.c.z.F.).S.F.U.F.K.z.z.z.I.}.).9.k k XX+X&X&X&X@XXX=   a Q.`.F.J.S.",
"e z.z.z.z.I._.J.S.T.J.z.z.z.`.z.z.P.J.F.Y.J.Y.x.P.0.i * = k k k g   r E.S.z.z.F.x.z.K.R.F.U.T.U.J.L.P.z.z.z.z.c././.q.S XXoX&X&X&X=X=Xz f - % k.S.Y.S.",
"e F.x.z.z.z.G.G.z.S.x.z.z.z.z.z.z.P.J.U.U.x.S.J.`.z.9.  * k k k d o w x.z.z.z.z.z.z.F.L.L.U.F.F.F.Y.z.x.K.x.z.z.x.S.F.q.k oX&X&X&X&X&XoXXX*   7.z.S.U.",
"e z.z.F.`.z.z.z.F.F.z.z.z.z.z.F.z.z.z.z.z.z.z.z.z.`.9.  ; MXMXMXS   w x.z.z.z.z.x.z.z.z.x.x.z.z.x.z.x.x.z.z.`.F.z.z.z.0.+ g oX%X&X&X&X=X=Xh   O $ 9.z.",
"e z.z.z.F.x.z.F.U.Y.x.z.F.x.S.Y.z.z.F.z.z.G.G.z.z.!.j.  9 mXMXmX>.  p G.z.x.F.x.U.F.z.F.x.z.F.S.x.z.L.I.z.z.z.x.x.F.F.8.  = x +X&X*X=X*X*Xh       9.x.",
"e z.Q.J.I.E.G.T.U.F.z.z.R.Y.S.T.S.z.`.z.z.J.Y.z.G.Q.c.v.0.O @ @ r v.c.z.z.F.(.G.R.U.z.F.x.z.F.T.S.x.R.K.x.Q.K.~.U.D./.0.  9 MXMXMXnX>.M.MX5.;.#   9.z.",
"e z.K.[.F.T.G.Y.F.z.~.x.x.E.F.J.U.F.E.~.z.z./.U.U.F.z.F.j.      w D.H.Q.P.F.L.U.F.Y.z.D.[.F.z.U.T.S.U.x.x.I.~.F.T.G.U.7.  t mXmXmX2.-.A.mX3.<.<   k.D.",
"e z.x.F.Y.Y.G.U.F.).K.z.z.~.!.D././.Y.z.F.F.F.Y.Y.F.z.z.c.D.H.S.J.S.L.Q.z.z.P.).J.T././.F.F.F.z.U.D.U.z.z.z.D.U.Y.G.U.F.^.a + . o . . . . . +     9.J.",
"e F.x.F.U.F.z.F.Y.Y.x.z.z.z.U.F.S.F.z.z.z.z.z.F./.F.z.x.z.U.U.x.z.U.Y.D.z.z.z.S.J.F.D.x.x.z.z.z.z.Y.U.x.F.x.S.Y.F.x.G.U.U.i                       8.D."
};
